M48
; DRILL file {KiCad 6.0.8-f2edbf62ab~116~ubuntu22.04.1} date mer. 12 oct. 2022 20:14:18
; FORMAT={-:-/ absolute / metric / decimal}
; #@! TF.CreationDate,2022-10-12T20:14:18+02:00
; #@! TF.GenerationSoftware,Kicad,Pcbnew,6.0.8-f2edbf62ab~116~ubuntu22.04.1
; #@! TF.FileFunction,Plated,1,2,PTH
FMAT,2
METRIC
; #@! TA.AperFunction,Plated,PTH,ViaDrill
T1C0.300
; #@! TA.AperFunction,Plated,PTH,ViaDrill
T2C0.400
; #@! TA.AperFunction,Plated,PTH,ComponentDrill
T3C0.800
; #@! TA.AperFunction,Plated,PTH,ComponentDrill
T4C1.000
; #@! TA.AperFunction,Plated,PTH,ComponentDrill
T5C1.400
%
G90
G05
T1
X111.76Y-91.46
X111.76Y-103.779
X113.03Y-95.905
X113.65Y-98.318
X114.3Y-99.335
X115.57Y-100.332
X116.84Y-101.205
X127.0Y-102.76
X127.635Y-103.525
X128.27Y-104.16
X134.62Y-94.572
X140.335Y-107.034
X141.732Y-97.492
X142.621Y-97.81
X143.383Y-98.191
X144.272Y-102.128
X144.907Y-101.556
X145.097Y-95.841
X145.415Y-82.55
X145.415Y-107.034
X145.732Y-95.27
X146.621Y-94.317
X147.383Y-93.746
X148.062Y-106.68
X148.082Y-93.174
X148.272Y-101.175
X149.225Y-100.795
X149.542Y-106.063
X152.788Y-82.55
X156.21Y-81.3
X157.48Y-81.3
X157.48Y-94.635
X161.29Y-81.935
X163.83Y-81.935
X180.779Y-82.57
T2
X105.41Y-95.905
X108.585Y-97.81
X108.585Y-104.795
X109.855Y-90.19
X115.57Y-102.89
X132.715Y-89.5
X133.985Y-88.285
X136.525Y-103.525
X138.43Y-103.977
X139.065Y-89.174
X140.081Y-96.54
X140.653Y-81.3
X142.621Y-96.539
X145.542Y-90.952
X149.034Y-97.683
X150.05Y-96.54
X150.05Y-102.89
X155.575Y-102.89
X160.655Y-103.525
X172.085Y-104.16
X179.705Y-97.175
T3
X142.785Y-77.47
X142.785Y-79.47
X144.785Y-77.47
X144.785Y-79.47
X146.785Y-77.47
X146.785Y-79.47
X148.785Y-77.47
X148.785Y-79.47
X150.785Y-77.47
X150.785Y-79.47
X152.785Y-77.47
X152.785Y-79.47
X154.785Y-77.47
X154.785Y-79.47
X156.785Y-77.47
X156.785Y-79.47
X158.785Y-77.47
X158.785Y-79.47
X160.785Y-77.47
X160.785Y-79.47
X162.785Y-77.47
X162.785Y-79.47
X164.785Y-77.47
X164.785Y-79.47
X166.785Y-77.47
X166.785Y-79.47
X168.785Y-77.47
X168.785Y-79.47
X170.785Y-77.47
X170.785Y-79.47
X172.785Y-77.47
X172.785Y-79.47
X174.785Y-77.47
X174.785Y-79.47
X176.785Y-77.47
X176.785Y-79.47
X178.785Y-77.47
X178.785Y-79.47
X180.785Y-77.47
X180.785Y-79.47
X182.785Y-77.47
X182.785Y-79.47
X184.785Y-77.47
X184.785Y-79.47
T4
X106.045Y-79.375
X108.585Y-79.375
X111.125Y-79.375
X113.665Y-79.375
X116.205Y-79.375
X118.745Y-79.375
X122.555Y-78.125
X122.555Y-80.665
X126.365Y-78.125
X126.365Y-80.665
X130.175Y-78.125
X130.175Y-80.665
X133.985Y-78.125
X133.985Y-80.665
X184.785Y-95.905
X184.785Y-98.445
T5
X106.045Y-85.745
X106.045Y-108.605
X108.585Y-85.745
X108.585Y-108.605
X111.125Y-85.745
X111.125Y-108.605
X113.665Y-85.745
X113.665Y-108.605
X116.205Y-85.745
X116.205Y-108.605
X118.745Y-85.745
X118.745Y-108.605
X121.285Y-85.745
X121.285Y-108.605
X123.825Y-85.745
X123.825Y-108.605
X126.365Y-85.745
X126.365Y-108.605
X128.905Y-85.745
X128.905Y-108.605
X131.445Y-85.745
X131.445Y-108.605
X133.985Y-85.745
X133.985Y-108.605
X136.525Y-85.745
X136.525Y-108.605
X139.065Y-85.745
X139.065Y-108.605
X141.605Y-85.745
X141.605Y-108.605
X144.145Y-85.745
X144.145Y-108.605
X146.685Y-85.745
X146.685Y-108.605
X149.225Y-85.745
X149.225Y-108.605
X151.765Y-85.745
X151.765Y-108.605
X154.305Y-85.745
X154.305Y-108.605
X156.845Y-85.745
X156.845Y-108.605
X159.385Y-85.745
X159.385Y-108.605
X161.925Y-85.745
X161.925Y-108.605
X164.465Y-85.745
X164.465Y-108.605
X167.005Y-85.745
X167.005Y-108.605
X169.545Y-85.745
X169.545Y-108.605
X172.085Y-85.745
X172.085Y-108.605
X174.625Y-85.745
X174.625Y-108.605
X177.165Y-85.745
X177.165Y-108.605
X179.705Y-85.745
X179.705Y-108.605
X182.245Y-85.745
X182.245Y-108.605
X184.785Y-85.745
X184.785Y-108.605
T0
M30
