G04 #@! TF.GenerationSoftware,KiCad,Pcbnew,6.0.8-f2edbf62ab~116~ubuntu22.04.1*
G04 #@! TF.CreationDate,2022-10-12T20:13:52+02:00*
G04 #@! TF.ProjectId,a500-ide-ram,61353030-2d69-4646-952d-72616d2e6b69,0.2*
G04 #@! TF.SameCoordinates,Original*
G04 #@! TF.FileFunction,Legend,Bot*
G04 #@! TF.FilePolarity,Positive*
%FSLAX46Y46*%
G04 Gerber Fmt 4.6, Leading zero omitted, Abs format (unit mm)*
G04 Created by KiCad (PCBNEW 6.0.8-f2edbf62ab~116~ubuntu22.04.1) date 2022-10-12 20:13:52*
%MOMM*%
%LPD*%
G01*
G04 APERTURE LIST*
G04 Aperture macros list*
%AMRoundRect*
0 Rectangle with rounded corners*
0 $1 Rounding radius*
0 $2 $3 $4 $5 $6 $7 $8 $9 X,Y pos of 4 corners*
0 Add a 4 corners polygon primitive as box body*
4,1,4,$2,$3,$4,$5,$6,$7,$8,$9,$2,$3,0*
0 Add four circle primitives for the rounded corners*
1,1,$1+$1,$2,$3*
1,1,$1+$1,$4,$5*
1,1,$1+$1,$6,$7*
1,1,$1+$1,$8,$9*
0 Add four rect primitives between the rounded corners*
20,1,$1+$1,$2,$3,$4,$5,0*
20,1,$1+$1,$4,$5,$6,$7,0*
20,1,$1+$1,$6,$7,$8,$9,0*
20,1,$1+$1,$8,$9,$2,$3,0*%
G04 Aperture macros list end*
%ADD10C,0.120000*%
%ADD11C,0.150000*%
%ADD12RoundRect,0.051000X-0.850000X-0.850000X0.850000X-0.850000X0.850000X0.850000X-0.850000X0.850000X0*%
%ADD13O,1.802000X1.802000*%
%ADD14RoundRect,0.051000X-0.675000X0.675000X-0.675000X-0.675000X0.675000X-0.675000X0.675000X0.675000X0*%
%ADD15O,1.452000X1.452000*%
%ADD16RoundRect,0.051000X-0.850000X0.850000X-0.850000X-0.850000X0.850000X-0.850000X0.850000X0.850000X0*%
%ADD17RoundRect,0.051000X0.800000X-1.200000X0.800000X1.200000X-0.800000X1.200000X-0.800000X-1.200000X0*%
%ADD18O,1.702000X2.502000*%
%ADD19RoundRect,0.126000X0.075000X-0.662500X0.075000X0.662500X-0.075000X0.662500X-0.075000X-0.662500X0*%
%ADD20RoundRect,0.126000X0.662500X-0.075000X0.662500X0.075000X-0.662500X0.075000X-0.662500X-0.075000X0*%
G04 APERTURE END LIST*
D10*
X106680000Y-106065000D02*
X105410000Y-106065000D01*
X185420000Y-81935000D02*
X184150000Y-81935000D01*
X106045000Y-106700000D02*
X106680000Y-106065000D01*
X184150000Y-81935000D02*
X184785000Y-81300000D01*
X105410000Y-106065000D02*
X106045000Y-106700000D01*
X184785000Y-81300000D02*
X185420000Y-81935000D01*
D11*
X105687857Y-105157976D02*
X105640238Y-105205595D01*
X105592619Y-105348452D01*
X105592619Y-105443690D01*
X105640238Y-105586547D01*
X105735476Y-105681785D01*
X105830714Y-105729404D01*
X106021190Y-105777023D01*
X106164047Y-105777023D01*
X106354523Y-105729404D01*
X106449761Y-105681785D01*
X106545000Y-105586547D01*
X106592619Y-105443690D01*
X106592619Y-105348452D01*
X106545000Y-105205595D01*
X106497380Y-105157976D01*
X105592619Y-104729404D02*
X106592619Y-104729404D01*
X106592619Y-104348452D01*
X106545000Y-104253214D01*
X106497380Y-104205595D01*
X106402142Y-104157976D01*
X106259285Y-104157976D01*
X106164047Y-104205595D01*
X106116428Y-104253214D01*
X106068809Y-104348452D01*
X106068809Y-104729404D01*
X106592619Y-103729404D02*
X105783095Y-103729404D01*
X105687857Y-103681785D01*
X105640238Y-103634166D01*
X105592619Y-103538928D01*
X105592619Y-103348452D01*
X105640238Y-103253214D01*
X105687857Y-103205595D01*
X105783095Y-103157976D01*
X106592619Y-103157976D01*
X106259285Y-101967500D02*
X106259285Y-101253214D01*
X106687857Y-101681785D02*
X105402142Y-101967500D01*
X105830714Y-101348452D02*
X105830714Y-102062738D01*
X105402142Y-101634166D02*
X106687857Y-101348452D01*
X105592619Y-100396071D02*
X105592619Y-100967500D01*
X105592619Y-100681785D02*
X106592619Y-100681785D01*
X106449761Y-100777023D01*
X106354523Y-100872261D01*
X106306904Y-100967500D01*
X110720119Y-102960714D02*
X110720119Y-102389285D01*
X109720119Y-102675000D02*
X110720119Y-102675000D01*
X109720119Y-102055952D02*
X110720119Y-102055952D01*
X109720119Y-101627380D02*
X110243928Y-101627380D01*
X110339166Y-101675000D01*
X110386785Y-101770238D01*
X110386785Y-101913095D01*
X110339166Y-102008333D01*
X110291547Y-102055952D01*
X109720119Y-101151190D02*
X110386785Y-101151190D01*
X110720119Y-101151190D02*
X110672500Y-101198809D01*
X110624880Y-101151190D01*
X110672500Y-101103571D01*
X110720119Y-101151190D01*
X110624880Y-101151190D01*
X109767738Y-100722619D02*
X109720119Y-100627380D01*
X109720119Y-100436904D01*
X109767738Y-100341666D01*
X109862976Y-100294047D01*
X109910595Y-100294047D01*
X110005833Y-100341666D01*
X110053452Y-100436904D01*
X110053452Y-100579761D01*
X110101071Y-100675000D01*
X110196309Y-100722619D01*
X110243928Y-100722619D01*
X110339166Y-100675000D01*
X110386785Y-100579761D01*
X110386785Y-100436904D01*
X110339166Y-100341666D01*
X109767738Y-99151190D02*
X109720119Y-99055952D01*
X109720119Y-98865476D01*
X109767738Y-98770238D01*
X109862976Y-98722619D01*
X109910595Y-98722619D01*
X110005833Y-98770238D01*
X110053452Y-98865476D01*
X110053452Y-99008333D01*
X110101071Y-99103571D01*
X110196309Y-99151190D01*
X110243928Y-99151190D01*
X110339166Y-99103571D01*
X110386785Y-99008333D01*
X110386785Y-98865476D01*
X110339166Y-98770238D01*
X109720119Y-98294047D02*
X110386785Y-98294047D01*
X110720119Y-98294047D02*
X110672500Y-98341666D01*
X110624880Y-98294047D01*
X110672500Y-98246428D01*
X110720119Y-98294047D01*
X110624880Y-98294047D01*
X109720119Y-97389285D02*
X110720119Y-97389285D01*
X109767738Y-97389285D02*
X109720119Y-97484523D01*
X109720119Y-97675000D01*
X109767738Y-97770238D01*
X109815357Y-97817857D01*
X109910595Y-97865476D01*
X110196309Y-97865476D01*
X110291547Y-97817857D01*
X110339166Y-97770238D01*
X110386785Y-97675000D01*
X110386785Y-97484523D01*
X110339166Y-97389285D01*
X109767738Y-96532142D02*
X109720119Y-96627380D01*
X109720119Y-96817857D01*
X109767738Y-96913095D01*
X109862976Y-96960714D01*
X110243928Y-96960714D01*
X110339166Y-96913095D01*
X110386785Y-96817857D01*
X110386785Y-96627380D01*
X110339166Y-96532142D01*
X110243928Y-96484523D01*
X110148690Y-96484523D01*
X110053452Y-96960714D01*
X109720119Y-95294047D02*
X110720119Y-95294047D01*
X110720119Y-95055952D01*
X110672500Y-94913095D01*
X110577261Y-94817857D01*
X110482023Y-94770238D01*
X110291547Y-94722619D01*
X110148690Y-94722619D01*
X109958214Y-94770238D01*
X109862976Y-94817857D01*
X109767738Y-94913095D01*
X109720119Y-95055952D01*
X109720119Y-95294047D01*
X110720119Y-94103571D02*
X110720119Y-93913095D01*
X110672500Y-93817857D01*
X110577261Y-93722619D01*
X110386785Y-93675000D01*
X110053452Y-93675000D01*
X109862976Y-93722619D01*
X109767738Y-93817857D01*
X109720119Y-93913095D01*
X109720119Y-94103571D01*
X109767738Y-94198809D01*
X109862976Y-94294047D01*
X110053452Y-94341666D01*
X110386785Y-94341666D01*
X110577261Y-94294047D01*
X110672500Y-94198809D01*
X110720119Y-94103571D01*
X110720119Y-93341666D02*
X109720119Y-93103571D01*
X110434404Y-92913095D01*
X109720119Y-92722619D01*
X110720119Y-92484523D01*
X109720119Y-92103571D02*
X110720119Y-92103571D01*
X109720119Y-91532142D01*
X110720119Y-91532142D01*
X143089285Y-82220714D02*
X142422619Y-82220714D01*
X143470238Y-82458809D02*
X142755952Y-82696904D01*
X142755952Y-82077857D01*
X143089285Y-81268333D02*
X142422619Y-81268333D01*
X143470238Y-81506428D02*
X142755952Y-81744523D01*
X142755952Y-81125476D01*
X152264285Y-96627380D02*
X151597619Y-97627380D01*
X151597619Y-96627380D02*
X152264285Y-97627380D01*
X150645238Y-97532142D02*
X150692857Y-97579761D01*
X150835714Y-97627380D01*
X150930952Y-97627380D01*
X151073809Y-97579761D01*
X151169047Y-97484523D01*
X151216666Y-97389285D01*
X151264285Y-97198809D01*
X151264285Y-97055952D01*
X151216666Y-96865476D01*
X151169047Y-96770238D01*
X151073809Y-96675000D01*
X150930952Y-96627380D01*
X150835714Y-96627380D01*
X150692857Y-96675000D01*
X150645238Y-96722619D01*
X150169047Y-97627380D02*
X149978571Y-97627380D01*
X149883333Y-97579761D01*
X149835714Y-97532142D01*
X149740476Y-97389285D01*
X149692857Y-97198809D01*
X149692857Y-96817857D01*
X149740476Y-96722619D01*
X149788095Y-96675000D01*
X149883333Y-96627380D01*
X150073809Y-96627380D01*
X150169047Y-96675000D01*
X150216666Y-96722619D01*
X150264285Y-96817857D01*
X150264285Y-97055952D01*
X150216666Y-97151190D01*
X150169047Y-97198809D01*
X150073809Y-97246428D01*
X149883333Y-97246428D01*
X149788095Y-97198809D01*
X149740476Y-97151190D01*
X149692857Y-97055952D01*
X148788095Y-96627380D02*
X149264285Y-96627380D01*
X149311904Y-97103571D01*
X149264285Y-97055952D01*
X149169047Y-97008333D01*
X148930952Y-97008333D01*
X148835714Y-97055952D01*
X148788095Y-97103571D01*
X148740476Y-97198809D01*
X148740476Y-97436904D01*
X148788095Y-97532142D01*
X148835714Y-97579761D01*
X148930952Y-97627380D01*
X149169047Y-97627380D01*
X149264285Y-97579761D01*
X149311904Y-97532142D01*
X147788095Y-97627380D02*
X148359523Y-97627380D01*
X148073809Y-97627380D02*
X148073809Y-96627380D01*
X148169047Y-96770238D01*
X148264285Y-96865476D01*
X148359523Y-96913095D01*
X146930952Y-96960714D02*
X146930952Y-97627380D01*
X147169047Y-96579761D02*
X147407142Y-97294047D01*
X146788095Y-97294047D01*
X145978571Y-96960714D02*
X145978571Y-97627380D01*
X146216666Y-96579761D02*
X146454761Y-97294047D01*
X145835714Y-97294047D01*
X145454761Y-97246428D02*
X144692857Y-97246428D01*
X144359523Y-96627380D02*
X144026190Y-97627380D01*
X143692857Y-96627380D01*
X142692857Y-97722619D02*
X142788095Y-97675000D01*
X142883333Y-97579761D01*
X143026190Y-97436904D01*
X143121428Y-97389285D01*
X143216666Y-97389285D01*
X143169047Y-97627380D02*
X143264285Y-97579761D01*
X143359523Y-97484523D01*
X143407142Y-97294047D01*
X143407142Y-96960714D01*
X143359523Y-96770238D01*
X143264285Y-96675000D01*
X143169047Y-96627380D01*
X142978571Y-96627380D01*
X142883333Y-96675000D01*
X142788095Y-96770238D01*
X142740476Y-96960714D01*
X142740476Y-97294047D01*
X142788095Y-97484523D01*
X142883333Y-97579761D01*
X142978571Y-97627380D01*
X143169047Y-97627380D01*
X141788095Y-97627380D02*
X142359523Y-97627380D01*
X142073809Y-97627380D02*
X142073809Y-96627380D01*
X142169047Y-96770238D01*
X142264285Y-96865476D01*
X142359523Y-96913095D01*
X141169047Y-96627380D02*
X141073809Y-96627380D01*
X140978571Y-96675000D01*
X140930952Y-96722619D01*
X140883333Y-96817857D01*
X140835714Y-97008333D01*
X140835714Y-97246428D01*
X140883333Y-97436904D01*
X140930952Y-97532142D01*
X140978571Y-97579761D01*
X141073809Y-97627380D01*
X141169047Y-97627380D01*
X141264285Y-97579761D01*
X141311904Y-97532142D01*
X141359523Y-97436904D01*
X141407142Y-97246428D01*
X141407142Y-97008333D01*
X141359523Y-96817857D01*
X141311904Y-96722619D01*
X141264285Y-96675000D01*
X141169047Y-96627380D01*
X140216666Y-96627380D02*
X140121428Y-96627380D01*
X140026190Y-96675000D01*
X139978571Y-96722619D01*
X139930952Y-96817857D01*
X139883333Y-97008333D01*
X139883333Y-97246428D01*
X139930952Y-97436904D01*
X139978571Y-97532142D01*
X140026190Y-97579761D01*
X140121428Y-97627380D01*
X140216666Y-97627380D01*
X140311904Y-97579761D01*
X140359523Y-97532142D01*
X140407142Y-97436904D01*
X140454761Y-97246428D01*
X140454761Y-97008333D01*
X140407142Y-96817857D01*
X140359523Y-96722619D01*
X140311904Y-96675000D01*
X140216666Y-96627380D01*
X185237380Y-82855714D02*
X185285000Y-82808095D01*
X185332619Y-82712857D01*
X185332619Y-82474761D01*
X185285000Y-82379523D01*
X185237380Y-82331904D01*
X185142142Y-82284285D01*
X185046904Y-82284285D01*
X184904047Y-82331904D01*
X184332619Y-82903333D01*
X184332619Y-82284285D01*
D10*
X138940000Y-103565000D02*
X138940000Y-104265000D01*
X153160000Y-90745000D02*
X153160000Y-90045000D01*
X153160000Y-104265000D02*
X152460000Y-104265000D01*
X152460000Y-104265000D02*
X152460000Y-105555000D01*
X138940000Y-90745000D02*
X138940000Y-90045000D01*
X138940000Y-90045000D02*
X139640000Y-90045000D01*
X153160000Y-103565000D02*
X153160000Y-104265000D01*
X153160000Y-90045000D02*
X152460000Y-90045000D01*
X138940000Y-104265000D02*
X139640000Y-104265000D01*
%LPC*%
D12*
X133985000Y-78125000D03*
D13*
X133985000Y-80665000D03*
D12*
X130175000Y-78125000D03*
D13*
X130175000Y-80665000D03*
D12*
X122555000Y-78125000D03*
D13*
X122555000Y-80665000D03*
D14*
X184785000Y-77470000D03*
D15*
X184785000Y-79470000D03*
X182785000Y-77470000D03*
X182785000Y-79470000D03*
X180785000Y-77470000D03*
X180785000Y-79470000D03*
X178785000Y-77470000D03*
X178785000Y-79470000D03*
X176785000Y-77470000D03*
X176785000Y-79470000D03*
X174785000Y-77470000D03*
X174785000Y-79470000D03*
X172785000Y-77470000D03*
X172785000Y-79470000D03*
X170785000Y-77470000D03*
X170785000Y-79470000D03*
X168785000Y-77470000D03*
X168785000Y-79470000D03*
X166785000Y-77470000D03*
X166785000Y-79470000D03*
X164785000Y-77470000D03*
X164785000Y-79470000D03*
X162785000Y-77470000D03*
X162785000Y-79470000D03*
X160785000Y-77470000D03*
X160785000Y-79470000D03*
X158785000Y-77470000D03*
X158785000Y-79470000D03*
X156785000Y-77470000D03*
X156785000Y-79470000D03*
X154785000Y-77470000D03*
X154785000Y-79470000D03*
X152785000Y-77470000D03*
X152785000Y-79470000D03*
X150785000Y-77470000D03*
X150785000Y-79470000D03*
X148785000Y-77470000D03*
X148785000Y-79470000D03*
X146785000Y-77470000D03*
X146785000Y-79470000D03*
X144785000Y-77470000D03*
X144785000Y-79470000D03*
X142785000Y-77470000D03*
X142785000Y-79470000D03*
D12*
X184785000Y-95905000D03*
D16*
X118745000Y-79375000D03*
D13*
X116205000Y-79375000D03*
X113665000Y-79375000D03*
X111125000Y-79375000D03*
X108585000Y-79375000D03*
X106045000Y-79375000D03*
D17*
X106045000Y-108605000D03*
D18*
X108585000Y-108605000D03*
X111125000Y-108605000D03*
X113665000Y-108605000D03*
X116205000Y-108605000D03*
X118745000Y-108605000D03*
X121285000Y-108605000D03*
X123825000Y-108605000D03*
X126365000Y-108605000D03*
X128905000Y-108605000D03*
X131445000Y-108605000D03*
X133985000Y-108605000D03*
X136525000Y-108605000D03*
X139065000Y-108605000D03*
X141605000Y-108605000D03*
X144145000Y-108605000D03*
X146685000Y-108605000D03*
X149225000Y-108605000D03*
X151765000Y-108605000D03*
X154305000Y-108605000D03*
X156845000Y-108605000D03*
X159385000Y-108605000D03*
X161925000Y-108605000D03*
X164465000Y-108605000D03*
X167005000Y-108605000D03*
X169545000Y-108605000D03*
X172085000Y-108605000D03*
X174625000Y-108605000D03*
X177165000Y-108605000D03*
X179705000Y-108605000D03*
X182245000Y-108605000D03*
X184785000Y-108605000D03*
X184785000Y-85745000D03*
X182245000Y-85745000D03*
X179705000Y-85745000D03*
X177165000Y-85745000D03*
X174625000Y-85745000D03*
X172085000Y-85745000D03*
X169545000Y-85745000D03*
X167005000Y-85745000D03*
X164465000Y-85745000D03*
X161925000Y-85745000D03*
X159385000Y-85745000D03*
X156845000Y-85745000D03*
X154305000Y-85745000D03*
X151765000Y-85745000D03*
X149225000Y-85745000D03*
X146685000Y-85745000D03*
X144145000Y-85745000D03*
X141605000Y-85745000D03*
X139065000Y-85745000D03*
X136525000Y-85745000D03*
X133985000Y-85745000D03*
X131445000Y-85745000D03*
X128905000Y-85745000D03*
X126365000Y-85745000D03*
X123825000Y-85745000D03*
X121285000Y-85745000D03*
X118745000Y-85745000D03*
X116205000Y-85745000D03*
X113665000Y-85745000D03*
X111125000Y-85745000D03*
X108585000Y-85745000D03*
X106045000Y-85745000D03*
D12*
X126365000Y-78125000D03*
D13*
X126365000Y-80665000D03*
D12*
X184785000Y-98445000D03*
D19*
X152050000Y-104817500D03*
X151550000Y-104817500D03*
X151050000Y-104817500D03*
X150550000Y-104817500D03*
X150050000Y-104817500D03*
X149550000Y-104817500D03*
X149050000Y-104817500D03*
X148550000Y-104817500D03*
X148050000Y-104817500D03*
X147550000Y-104817500D03*
X147050000Y-104817500D03*
X146550000Y-104817500D03*
X146050000Y-104817500D03*
X145550000Y-104817500D03*
X145050000Y-104817500D03*
X144550000Y-104817500D03*
X144050000Y-104817500D03*
X143550000Y-104817500D03*
X143050000Y-104817500D03*
X142550000Y-104817500D03*
X142050000Y-104817500D03*
X141550000Y-104817500D03*
X141050000Y-104817500D03*
X140550000Y-104817500D03*
X140050000Y-104817500D03*
D20*
X138387500Y-103155000D03*
X138387500Y-102655000D03*
X138387500Y-102155000D03*
X138387500Y-101655000D03*
X138387500Y-101155000D03*
X138387500Y-100655000D03*
X138387500Y-100155000D03*
X138387500Y-99655000D03*
X138387500Y-99155000D03*
X138387500Y-98655000D03*
X138387500Y-98155000D03*
X138387500Y-97655000D03*
X138387500Y-97155000D03*
X138387500Y-96655000D03*
X138387500Y-96155000D03*
X138387500Y-95655000D03*
X138387500Y-95155000D03*
X138387500Y-94655000D03*
X138387500Y-94155000D03*
X138387500Y-93655000D03*
X138387500Y-93155000D03*
X138387500Y-92655000D03*
X138387500Y-92155000D03*
X138387500Y-91655000D03*
X138387500Y-91155000D03*
D19*
X140050000Y-89492500D03*
X140550000Y-89492500D03*
X141050000Y-89492500D03*
X141550000Y-89492500D03*
X142050000Y-89492500D03*
X142550000Y-89492500D03*
X143050000Y-89492500D03*
X143550000Y-89492500D03*
X144050000Y-89492500D03*
X144550000Y-89492500D03*
X145050000Y-89492500D03*
X145550000Y-89492500D03*
X146050000Y-89492500D03*
X146550000Y-89492500D03*
X147050000Y-89492500D03*
X147550000Y-89492500D03*
X148050000Y-89492500D03*
X148550000Y-89492500D03*
X149050000Y-89492500D03*
X149550000Y-89492500D03*
X150050000Y-89492500D03*
X150550000Y-89492500D03*
X151050000Y-89492500D03*
X151550000Y-89492500D03*
X152050000Y-89492500D03*
D20*
X153712500Y-91155000D03*
X153712500Y-91655000D03*
X153712500Y-92155000D03*
X153712500Y-92655000D03*
X153712500Y-93155000D03*
X153712500Y-93655000D03*
X153712500Y-94155000D03*
X153712500Y-94655000D03*
X153712500Y-95155000D03*
X153712500Y-95655000D03*
X153712500Y-96155000D03*
X153712500Y-96655000D03*
X153712500Y-97155000D03*
X153712500Y-97655000D03*
X153712500Y-98155000D03*
X153712500Y-98655000D03*
X153712500Y-99155000D03*
X153712500Y-99655000D03*
X153712500Y-100155000D03*
X153712500Y-100655000D03*
X153712500Y-101155000D03*
X153712500Y-101655000D03*
X153712500Y-102155000D03*
X153712500Y-102655000D03*
X153712500Y-103155000D03*
M02*
