G04 #@! TF.GenerationSoftware,KiCad,Pcbnew,6.0.8-f2edbf62ab~116~ubuntu22.04.1*
G04 #@! TF.CreationDate,2022-10-12T20:13:52+02:00*
G04 #@! TF.ProjectId,a500-ide-ram,61353030-2d69-4646-952d-72616d2e6b69,0.2*
G04 #@! TF.SameCoordinates,Original*
G04 #@! TF.FileFunction,Legend,Top*
G04 #@! TF.FilePolarity,Positive*
%FSLAX46Y46*%
G04 Gerber Fmt 4.6, Leading zero omitted, Abs format (unit mm)*
G04 Created by KiCad (PCBNEW 6.0.8-f2edbf62ab~116~ubuntu22.04.1) date 2022-10-12 20:13:52*
%MOMM*%
%LPD*%
G01*
G04 APERTURE LIST*
G04 Aperture macros list*
%AMRoundRect*
0 Rectangle with rounded corners*
0 $1 Rounding radius*
0 $2 $3 $4 $5 $6 $7 $8 $9 X,Y pos of 4 corners*
0 Add a 4 corners polygon primitive as box body*
4,1,4,$2,$3,$4,$5,$6,$7,$8,$9,$2,$3,0*
0 Add four circle primitives for the rounded corners*
1,1,$1+$1,$2,$3*
1,1,$1+$1,$4,$5*
1,1,$1+$1,$6,$7*
1,1,$1+$1,$8,$9*
0 Add four rect primitives between the rounded corners*
20,1,$1+$1,$2,$3,$4,$5,0*
20,1,$1+$1,$4,$5,$6,$7,0*
20,1,$1+$1,$6,$7,$8,$9,0*
20,1,$1+$1,$8,$9,$2,$3,0*%
G04 Aperture macros list end*
%ADD10C,0.120000*%
%ADD11C,0.250000*%
%ADD12C,0.150000*%
%ADD13C,0.100000*%
%ADD14RoundRect,0.301000X-0.250000X-0.475000X0.250000X-0.475000X0.250000X0.475000X-0.250000X0.475000X0*%
%ADD15RoundRect,0.301000X0.250000X0.475000X-0.250000X0.475000X-0.250000X-0.475000X0.250000X-0.475000X0*%
%ADD16RoundRect,0.301000X0.475000X-0.250000X0.475000X0.250000X-0.475000X0.250000X-0.475000X-0.250000X0*%
%ADD17RoundRect,0.201000X0.150000X-0.587500X0.150000X0.587500X-0.150000X0.587500X-0.150000X-0.587500X0*%
%ADD18RoundRect,0.051000X-0.850000X-0.850000X0.850000X-0.850000X0.850000X0.850000X-0.850000X0.850000X0*%
%ADD19O,1.802000X1.802000*%
%ADD20RoundRect,0.301000X0.262500X0.450000X-0.262500X0.450000X-0.262500X-0.450000X0.262500X-0.450000X0*%
%ADD21RoundRect,0.301000X-0.262500X-0.450000X0.262500X-0.450000X0.262500X0.450000X-0.262500X0.450000X0*%
%ADD22RoundRect,0.051000X-0.675000X0.675000X-0.675000X-0.675000X0.675000X-0.675000X0.675000X0.675000X0*%
%ADD23O,1.452000X1.452000*%
%ADD24RoundRect,0.051000X-0.850000X0.850000X-0.850000X-0.850000X0.850000X-0.850000X0.850000X0.850000X0*%
%ADD25C,1.102000*%
%ADD26RoundRect,0.051000X0.800000X-1.200000X0.800000X1.200000X-0.800000X1.200000X-0.800000X-1.200000X0*%
%ADD27O,1.702000X2.502000*%
%ADD28RoundRect,0.201000X-0.150000X0.512500X-0.150000X-0.512500X0.150000X-0.512500X0.150000X0.512500X0*%
%ADD29RoundRect,0.051000X0.550000X0.125000X-0.550000X0.125000X-0.550000X-0.125000X0.550000X-0.125000X0*%
%ADD30RoundRect,0.051000X-0.035355X-0.601041X0.601041X0.035355X0.035355X0.601041X-0.601041X-0.035355X0*%
G04 APERTURE END LIST*
D10*
X106680000Y-106065000D02*
X105410000Y-106065000D01*
X132016500Y-97238500D02*
X130810000Y-97429000D01*
X185420000Y-81935000D02*
X184150000Y-81935000D01*
X165785000Y-78490000D02*
X167785000Y-80490000D01*
X106045000Y-106700000D02*
X106680000Y-106065000D01*
X105410000Y-106065000D02*
X106045000Y-106700000D01*
X184785000Y-81300000D02*
X185420000Y-81935000D01*
X167785000Y-78490000D02*
X165785000Y-80490000D01*
X184150000Y-81935000D02*
X184785000Y-81300000D01*
D11*
X146480977Y-101765441D02*
X146972429Y-100711900D01*
X145909548Y-100775697D02*
X147641599Y-99775697D01*
X148022551Y-100435526D01*
X148035311Y-100648102D01*
X148000451Y-100778200D01*
X147883113Y-100955917D01*
X147635677Y-101098774D01*
X147423101Y-101111533D01*
X147293003Y-101076674D01*
X147115286Y-100959336D01*
X146734334Y-100299507D01*
X147356801Y-102139555D02*
X147832991Y-102964341D01*
X146766691Y-102260312D02*
X148832075Y-101837663D01*
X147433357Y-103415013D01*
X147766691Y-103992363D02*
X149498742Y-102992363D01*
X148594896Y-104283999D01*
X150165408Y-104147064D01*
X148433357Y-105147064D01*
X145999658Y-89628915D02*
X146475848Y-90453701D01*
X145409548Y-89749672D02*
X147474932Y-89327022D01*
X146076215Y-90904372D01*
X148617789Y-91306509D02*
X148141599Y-90481723D01*
X147269194Y-90875435D01*
X147399291Y-90910294D01*
X147577008Y-91027632D01*
X147815103Y-91440025D01*
X147827863Y-91652602D01*
X147793003Y-91782699D01*
X147675665Y-91960416D01*
X147263272Y-92198511D01*
X147050696Y-92211271D01*
X146920598Y-92176411D01*
X146742881Y-92059073D01*
X146504786Y-91646680D01*
X146492027Y-91434104D01*
X146526886Y-91304006D01*
X149284456Y-92461209D02*
X149379694Y-92626167D01*
X149392453Y-92838743D01*
X149357594Y-92968840D01*
X149240256Y-93146557D01*
X148957960Y-93419512D01*
X148545567Y-93657607D01*
X148168034Y-93765605D01*
X147955458Y-93778364D01*
X147825360Y-93743505D01*
X147647643Y-93626167D01*
X147552405Y-93461209D01*
X147539646Y-93248633D01*
X147574505Y-93118535D01*
X147691843Y-92940819D01*
X147974139Y-92667864D01*
X148386532Y-92429769D01*
X148764065Y-92321771D01*
X148976642Y-92309012D01*
X149106739Y-92343871D01*
X149284456Y-92461209D01*
X150236837Y-94110782D02*
X150332075Y-94275739D01*
X150344834Y-94488315D01*
X150309975Y-94618413D01*
X150192637Y-94796129D01*
X149910341Y-95069084D01*
X149497948Y-95307179D01*
X149120415Y-95415177D01*
X148907838Y-95427936D01*
X148777741Y-95393077D01*
X148600024Y-95275739D01*
X148504786Y-95110782D01*
X148492027Y-94898205D01*
X148526886Y-94768108D01*
X148644224Y-94590391D01*
X148926520Y-94317436D01*
X149338913Y-94079341D01*
X149716446Y-93971343D01*
X149929022Y-93958584D01*
X150059120Y-93993443D01*
X150236837Y-94110782D01*
D12*
X135501071Y-75839047D02*
X135501071Y-76600952D01*
X131119619Y-82117571D02*
X131167238Y-82022333D01*
X131214857Y-81974714D01*
X131310095Y-81927095D01*
X131595809Y-81927095D01*
X131691047Y-81974714D01*
X131738666Y-82022333D01*
X131786285Y-82117571D01*
X131786285Y-82260428D01*
X131738666Y-82355666D01*
X131691047Y-82403285D01*
X131595809Y-82450904D01*
X131310095Y-82450904D01*
X131214857Y-82403285D01*
X131167238Y-82355666D01*
X131119619Y-82260428D01*
X131119619Y-82117571D01*
X131056119Y-76220000D02*
X131722785Y-76220000D01*
X132056119Y-76220000D02*
X132008500Y-76172380D01*
X131960880Y-76220000D01*
X132008500Y-76267619D01*
X132056119Y-76220000D01*
X131960880Y-76220000D01*
X105687857Y-101015119D02*
X105640238Y-100967500D01*
X105592619Y-100824642D01*
X105592619Y-100729404D01*
X105640238Y-100586547D01*
X105735476Y-100491309D01*
X105830714Y-100443690D01*
X106021190Y-100396071D01*
X106164047Y-100396071D01*
X106354523Y-100443690D01*
X106449761Y-100491309D01*
X106545000Y-100586547D01*
X106592619Y-100729404D01*
X106592619Y-100824642D01*
X106545000Y-100967500D01*
X106497380Y-101015119D01*
X105592619Y-101443690D02*
X106592619Y-101443690D01*
X106592619Y-101824642D01*
X106545000Y-101919880D01*
X106497380Y-101967500D01*
X106402142Y-102015119D01*
X106259285Y-102015119D01*
X106164047Y-101967500D01*
X106116428Y-101919880D01*
X106068809Y-101824642D01*
X106068809Y-101443690D01*
X106592619Y-102443690D02*
X105783095Y-102443690D01*
X105687857Y-102491309D01*
X105640238Y-102538928D01*
X105592619Y-102634166D01*
X105592619Y-102824642D01*
X105640238Y-102919880D01*
X105687857Y-102967500D01*
X105783095Y-103015119D01*
X106592619Y-103015119D01*
X106259285Y-104205595D02*
X106259285Y-104919880D01*
X106687857Y-104491309D02*
X105402142Y-104205595D01*
X105830714Y-104824642D02*
X105830714Y-104110357D01*
X105402142Y-104538928D02*
X106687857Y-104824642D01*
X105592619Y-105777023D02*
X105592619Y-105205595D01*
X105592619Y-105491309D02*
X106592619Y-105491309D01*
X106449761Y-105396071D01*
X106354523Y-105300833D01*
X106306904Y-105205595D01*
X116705000Y-81808095D02*
X116752619Y-81712857D01*
X116752619Y-81570000D01*
X116705000Y-81427142D01*
X116609761Y-81331904D01*
X116514523Y-81284285D01*
X116324047Y-81236666D01*
X116181190Y-81236666D01*
X115990714Y-81284285D01*
X115895476Y-81331904D01*
X115800238Y-81427142D01*
X115752619Y-81570000D01*
X115752619Y-81665238D01*
X115800238Y-81808095D01*
X115847857Y-81855714D01*
X116181190Y-81855714D01*
X116181190Y-81665238D01*
X115752619Y-82284285D02*
X116752619Y-82284285D01*
X115752619Y-82855714D01*
X116752619Y-82855714D01*
X115752619Y-83331904D02*
X116752619Y-83331904D01*
X116752619Y-83570000D01*
X116705000Y-83712857D01*
X116609761Y-83808095D01*
X116514523Y-83855714D01*
X116324047Y-83903333D01*
X116181190Y-83903333D01*
X115990714Y-83855714D01*
X115895476Y-83808095D01*
X115800238Y-83712857D01*
X115752619Y-83570000D01*
X115752619Y-83331904D01*
X135501071Y-81808047D02*
X135501071Y-82569952D01*
X135120119Y-82189000D02*
X135882023Y-82189000D01*
X127246119Y-76220000D02*
X127912785Y-76220000D01*
X128246119Y-76220000D02*
X128198500Y-76172380D01*
X128150880Y-76220000D01*
X128198500Y-76267619D01*
X128246119Y-76220000D01*
X128150880Y-76220000D01*
X127309619Y-82117571D02*
X127357238Y-82022333D01*
X127404857Y-81974714D01*
X127500095Y-81927095D01*
X127785809Y-81927095D01*
X127881047Y-81974714D01*
X127928666Y-82022333D01*
X127976285Y-82117571D01*
X127976285Y-82260428D01*
X127928666Y-82355666D01*
X127881047Y-82403285D01*
X127785809Y-82450904D01*
X127500095Y-82450904D01*
X127404857Y-82403285D01*
X127357238Y-82355666D01*
X127309619Y-82260428D01*
X127309619Y-82117571D01*
X114212619Y-81284285D02*
X114212619Y-81855714D01*
X113212619Y-81570000D02*
X114212619Y-81570000D01*
X113307857Y-82760476D02*
X113260238Y-82712857D01*
X113212619Y-82570000D01*
X113212619Y-82474761D01*
X113260238Y-82331904D01*
X113355476Y-82236666D01*
X113450714Y-82189047D01*
X113641190Y-82141428D01*
X113784047Y-82141428D01*
X113974523Y-82189047D01*
X114069761Y-82236666D01*
X114165000Y-82331904D01*
X114212619Y-82474761D01*
X114212619Y-82570000D01*
X114165000Y-82712857D01*
X114117380Y-82760476D01*
X113212619Y-83189047D02*
X114212619Y-83189047D01*
X113212619Y-83760476D02*
X113784047Y-83331904D01*
X114212619Y-83760476D02*
X113641190Y-83189047D01*
X184332619Y-90714047D02*
X185332619Y-90714047D01*
X184332619Y-91190238D02*
X185332619Y-91190238D01*
X184332619Y-91761666D01*
X185332619Y-91761666D01*
X185332619Y-92095000D02*
X185332619Y-92666428D01*
X184332619Y-92380714D02*
X185332619Y-92380714D01*
X185237380Y-92952142D02*
X185285000Y-92999761D01*
X185332619Y-93095000D01*
X185332619Y-93333095D01*
X185285000Y-93428333D01*
X185237380Y-93475952D01*
X185142142Y-93523571D01*
X185046904Y-93523571D01*
X184904047Y-93475952D01*
X184332619Y-92904523D01*
X184332619Y-93523571D01*
X129127380Y-83657380D02*
X129127380Y-82657380D01*
X130317857Y-82609761D02*
X129460714Y-83895476D01*
X130841666Y-82657380D02*
X131032142Y-82657380D01*
X131127380Y-82705000D01*
X131222619Y-82800238D01*
X131270238Y-82990714D01*
X131270238Y-83324047D01*
X131222619Y-83514523D01*
X131127380Y-83609761D01*
X131032142Y-83657380D01*
X130841666Y-83657380D01*
X130746428Y-83609761D01*
X130651190Y-83514523D01*
X130603571Y-83324047D01*
X130603571Y-82990714D01*
X130651190Y-82800238D01*
X130746428Y-82705000D01*
X130841666Y-82657380D01*
X185237380Y-82284285D02*
X185285000Y-82331904D01*
X185332619Y-82427142D01*
X185332619Y-82665238D01*
X185285000Y-82760476D01*
X185237380Y-82808095D01*
X185142142Y-82855714D01*
X185046904Y-82855714D01*
X184904047Y-82808095D01*
X184332619Y-82236666D01*
X184332619Y-82855714D01*
X123753571Y-75839047D02*
X123753571Y-76600952D01*
X123372619Y-76220000D02*
X124134523Y-76220000D01*
X135607619Y-96008333D02*
X136083809Y-95675000D01*
X135607619Y-95436904D02*
X136607619Y-95436904D01*
X136607619Y-95817857D01*
X136560000Y-95913095D01*
X136512380Y-95960714D01*
X136417142Y-96008333D01*
X136274285Y-96008333D01*
X136179047Y-95960714D01*
X136131428Y-95913095D01*
X136083809Y-95817857D01*
X136083809Y-95436904D01*
X135893333Y-96389285D02*
X135893333Y-96865476D01*
X135607619Y-96294047D02*
X136607619Y-96627380D01*
X135607619Y-96960714D01*
X135607619Y-97294047D02*
X136607619Y-97294047D01*
X135893333Y-97627380D01*
X136607619Y-97960714D01*
X135607619Y-97960714D01*
X136512380Y-98389285D02*
X136560000Y-98436904D01*
X136607619Y-98532142D01*
X136607619Y-98770238D01*
X136560000Y-98865476D01*
X136512380Y-98913095D01*
X136417142Y-98960714D01*
X136321904Y-98960714D01*
X136179047Y-98913095D01*
X135607619Y-98341666D01*
X135607619Y-98960714D01*
X134092857Y-97032142D02*
X134045238Y-96984523D01*
X133997619Y-96841666D01*
X133997619Y-96746428D01*
X134045238Y-96603571D01*
X134140476Y-96508333D01*
X134235714Y-96460714D01*
X134426190Y-96413095D01*
X134569047Y-96413095D01*
X134759523Y-96460714D01*
X134854761Y-96508333D01*
X134950000Y-96603571D01*
X134997619Y-96746428D01*
X134997619Y-96841666D01*
X134950000Y-96984523D01*
X134902380Y-97032142D01*
X134521428Y-97460714D02*
X134521428Y-97794047D01*
X133997619Y-97936904D02*
X133997619Y-97460714D01*
X134997619Y-97460714D01*
X134997619Y-97936904D01*
X125388809Y-82657380D02*
X125579285Y-82657380D01*
X125674523Y-82705000D01*
X125769761Y-82800238D01*
X125817380Y-82990714D01*
X125817380Y-83324047D01*
X125769761Y-83514523D01*
X125674523Y-83609761D01*
X125579285Y-83657380D01*
X125388809Y-83657380D01*
X125293571Y-83609761D01*
X125198333Y-83514523D01*
X125150714Y-83324047D01*
X125150714Y-82990714D01*
X125198333Y-82800238D01*
X125293571Y-82705000D01*
X125388809Y-82657380D01*
X126245952Y-83657380D02*
X126245952Y-82657380D01*
X126626904Y-82657380D01*
X126722142Y-82705000D01*
X126769761Y-82752619D01*
X126817380Y-82847857D01*
X126817380Y-82990714D01*
X126769761Y-83085952D01*
X126722142Y-83133571D01*
X126626904Y-83181190D01*
X126245952Y-83181190D01*
X127103095Y-82657380D02*
X127674523Y-82657380D01*
X127388809Y-83657380D02*
X127388809Y-82657380D01*
X165452619Y-89603571D02*
X166452619Y-89603571D01*
X165452619Y-90032142D02*
X165976428Y-90032142D01*
X166071666Y-89984523D01*
X166119285Y-89889285D01*
X166119285Y-89746428D01*
X166071666Y-89651190D01*
X166024047Y-89603571D01*
X166119285Y-90365476D02*
X166119285Y-90746428D01*
X166452619Y-90508333D02*
X165595476Y-90508333D01*
X165500238Y-90555952D01*
X165452619Y-90651190D01*
X165452619Y-90746428D01*
X166119285Y-90936904D02*
X166119285Y-91317857D01*
X166452619Y-91079761D02*
X165595476Y-91079761D01*
X165500238Y-91127380D01*
X165452619Y-91222619D01*
X165452619Y-91317857D01*
X166119285Y-91651190D02*
X165119285Y-91651190D01*
X166071666Y-91651190D02*
X166119285Y-91746428D01*
X166119285Y-91936904D01*
X166071666Y-92032142D01*
X166024047Y-92079761D01*
X165928809Y-92127380D01*
X165643095Y-92127380D01*
X165547857Y-92079761D01*
X165500238Y-92032142D01*
X165452619Y-91936904D01*
X165452619Y-91746428D01*
X165500238Y-91651190D01*
X165500238Y-92508333D02*
X165452619Y-92603571D01*
X165452619Y-92794047D01*
X165500238Y-92889285D01*
X165595476Y-92936904D01*
X165643095Y-92936904D01*
X165738333Y-92889285D01*
X165785952Y-92794047D01*
X165785952Y-92651190D01*
X165833571Y-92555952D01*
X165928809Y-92508333D01*
X165976428Y-92508333D01*
X166071666Y-92555952D01*
X166119285Y-92651190D01*
X166119285Y-92794047D01*
X166071666Y-92889285D01*
X165547857Y-93365476D02*
X165500238Y-93413095D01*
X165452619Y-93365476D01*
X165500238Y-93317857D01*
X165547857Y-93365476D01*
X165452619Y-93365476D01*
X166071666Y-93365476D02*
X166024047Y-93413095D01*
X165976428Y-93365476D01*
X166024047Y-93317857D01*
X166071666Y-93365476D01*
X165976428Y-93365476D01*
X166500238Y-94555952D02*
X165214523Y-93698809D01*
X166500238Y-95603571D02*
X165214523Y-94746428D01*
X166119285Y-96365476D02*
X165309761Y-96365476D01*
X165214523Y-96317857D01*
X165166904Y-96270238D01*
X165119285Y-96175000D01*
X165119285Y-96032142D01*
X165166904Y-95936904D01*
X165500238Y-96365476D02*
X165452619Y-96270238D01*
X165452619Y-96079761D01*
X165500238Y-95984523D01*
X165547857Y-95936904D01*
X165643095Y-95889285D01*
X165928809Y-95889285D01*
X166024047Y-95936904D01*
X166071666Y-95984523D01*
X166119285Y-96079761D01*
X166119285Y-96270238D01*
X166071666Y-96365476D01*
X165452619Y-96841666D02*
X166119285Y-96841666D01*
X166452619Y-96841666D02*
X166405000Y-96794047D01*
X166357380Y-96841666D01*
X166405000Y-96889285D01*
X166452619Y-96841666D01*
X166357380Y-96841666D01*
X166119285Y-97175000D02*
X166119285Y-97555952D01*
X166452619Y-97317857D02*
X165595476Y-97317857D01*
X165500238Y-97365476D01*
X165452619Y-97460714D01*
X165452619Y-97555952D01*
X165452619Y-97889285D02*
X166452619Y-97889285D01*
X165452619Y-98317857D02*
X165976428Y-98317857D01*
X166071666Y-98270238D01*
X166119285Y-98175000D01*
X166119285Y-98032142D01*
X166071666Y-97936904D01*
X166024047Y-97889285D01*
X166119285Y-99222619D02*
X165452619Y-99222619D01*
X166119285Y-98794047D02*
X165595476Y-98794047D01*
X165500238Y-98841666D01*
X165452619Y-98936904D01*
X165452619Y-99079761D01*
X165500238Y-99175000D01*
X165547857Y-99222619D01*
X165452619Y-99698809D02*
X166452619Y-99698809D01*
X166071666Y-99698809D02*
X166119285Y-99794047D01*
X166119285Y-99984523D01*
X166071666Y-100079761D01*
X166024047Y-100127380D01*
X165928809Y-100175000D01*
X165643095Y-100175000D01*
X165547857Y-100127380D01*
X165500238Y-100079761D01*
X165452619Y-99984523D01*
X165452619Y-99794047D01*
X165500238Y-99698809D01*
X165547857Y-100603571D02*
X165500238Y-100651190D01*
X165452619Y-100603571D01*
X165500238Y-100555952D01*
X165547857Y-100603571D01*
X165452619Y-100603571D01*
X165500238Y-101508333D02*
X165452619Y-101413095D01*
X165452619Y-101222619D01*
X165500238Y-101127380D01*
X165547857Y-101079761D01*
X165643095Y-101032142D01*
X165928809Y-101032142D01*
X166024047Y-101079761D01*
X166071666Y-101127380D01*
X166119285Y-101222619D01*
X166119285Y-101413095D01*
X166071666Y-101508333D01*
X165452619Y-102079761D02*
X165500238Y-101984523D01*
X165547857Y-101936904D01*
X165643095Y-101889285D01*
X165928809Y-101889285D01*
X166024047Y-101936904D01*
X166071666Y-101984523D01*
X166119285Y-102079761D01*
X166119285Y-102222619D01*
X166071666Y-102317857D01*
X166024047Y-102365476D01*
X165928809Y-102413095D01*
X165643095Y-102413095D01*
X165547857Y-102365476D01*
X165500238Y-102317857D01*
X165452619Y-102222619D01*
X165452619Y-102079761D01*
X165452619Y-102841666D02*
X166119285Y-102841666D01*
X166024047Y-102841666D02*
X166071666Y-102889285D01*
X166119285Y-102984523D01*
X166119285Y-103127380D01*
X166071666Y-103222619D01*
X165976428Y-103270238D01*
X165452619Y-103270238D01*
X165976428Y-103270238D02*
X166071666Y-103317857D01*
X166119285Y-103413095D01*
X166119285Y-103555952D01*
X166071666Y-103651190D01*
X165976428Y-103698809D01*
X165452619Y-103698809D01*
X166500238Y-104889285D02*
X165214523Y-104032142D01*
X164509285Y-88841666D02*
X164509285Y-89222619D01*
X163842619Y-88984523D02*
X164699761Y-88984523D01*
X164795000Y-89032142D01*
X164842619Y-89127380D01*
X164842619Y-89222619D01*
X163842619Y-90079761D02*
X163842619Y-89508333D01*
X163842619Y-89794047D02*
X164842619Y-89794047D01*
X164699761Y-89698809D01*
X164604523Y-89603571D01*
X164556904Y-89508333D01*
X163842619Y-90936904D02*
X164366428Y-90936904D01*
X164461666Y-90889285D01*
X164509285Y-90794047D01*
X164509285Y-90603571D01*
X164461666Y-90508333D01*
X163890238Y-90936904D02*
X163842619Y-90841666D01*
X163842619Y-90603571D01*
X163890238Y-90508333D01*
X163985476Y-90460714D01*
X164080714Y-90460714D01*
X164175952Y-90508333D01*
X164223571Y-90603571D01*
X164223571Y-90841666D01*
X164271190Y-90936904D01*
X163890238Y-91841666D02*
X163842619Y-91746428D01*
X163842619Y-91555952D01*
X163890238Y-91460714D01*
X163937857Y-91413095D01*
X164033095Y-91365476D01*
X164318809Y-91365476D01*
X164414047Y-91413095D01*
X164461666Y-91460714D01*
X164509285Y-91555952D01*
X164509285Y-91746428D01*
X164461666Y-91841666D01*
X164842619Y-92460714D02*
X164842619Y-92555952D01*
X164795000Y-92651190D01*
X164747380Y-92698809D01*
X164652142Y-92746428D01*
X164461666Y-92794047D01*
X164223571Y-92794047D01*
X164033095Y-92746428D01*
X163937857Y-92698809D01*
X163890238Y-92651190D01*
X163842619Y-92555952D01*
X163842619Y-92460714D01*
X163890238Y-92365476D01*
X163937857Y-92317857D01*
X164033095Y-92270238D01*
X164223571Y-92222619D01*
X164461666Y-92222619D01*
X164652142Y-92270238D01*
X164747380Y-92317857D01*
X164795000Y-92365476D01*
X164842619Y-92460714D01*
X164890238Y-93936904D02*
X163604523Y-93079761D01*
X164128333Y-94222619D02*
X164128333Y-94698809D01*
X163842619Y-94127380D02*
X164842619Y-94460714D01*
X163842619Y-94794047D01*
X164842619Y-95603571D02*
X164842619Y-95127380D01*
X164366428Y-95079761D01*
X164414047Y-95127380D01*
X164461666Y-95222619D01*
X164461666Y-95460714D01*
X164414047Y-95555952D01*
X164366428Y-95603571D01*
X164271190Y-95651190D01*
X164033095Y-95651190D01*
X163937857Y-95603571D01*
X163890238Y-95555952D01*
X163842619Y-95460714D01*
X163842619Y-95222619D01*
X163890238Y-95127380D01*
X163937857Y-95079761D01*
X164842619Y-96270238D02*
X164842619Y-96365476D01*
X164795000Y-96460714D01*
X164747380Y-96508333D01*
X164652142Y-96555952D01*
X164461666Y-96603571D01*
X164223571Y-96603571D01*
X164033095Y-96555952D01*
X163937857Y-96508333D01*
X163890238Y-96460714D01*
X163842619Y-96365476D01*
X163842619Y-96270238D01*
X163890238Y-96175000D01*
X163937857Y-96127380D01*
X164033095Y-96079761D01*
X164223571Y-96032142D01*
X164461666Y-96032142D01*
X164652142Y-96079761D01*
X164747380Y-96127380D01*
X164795000Y-96175000D01*
X164842619Y-96270238D01*
X164842619Y-97222619D02*
X164842619Y-97317857D01*
X164795000Y-97413095D01*
X164747380Y-97460714D01*
X164652142Y-97508333D01*
X164461666Y-97555952D01*
X164223571Y-97555952D01*
X164033095Y-97508333D01*
X163937857Y-97460714D01*
X163890238Y-97413095D01*
X163842619Y-97317857D01*
X163842619Y-97222619D01*
X163890238Y-97127380D01*
X163937857Y-97079761D01*
X164033095Y-97032142D01*
X164223571Y-96984523D01*
X164461666Y-96984523D01*
X164652142Y-97032142D01*
X164747380Y-97079761D01*
X164795000Y-97127380D01*
X164842619Y-97222619D01*
X164223571Y-97984523D02*
X164223571Y-98746428D01*
X163842619Y-99222619D02*
X164842619Y-99222619D01*
X163842619Y-99698809D02*
X164842619Y-99698809D01*
X164842619Y-99936904D01*
X164795000Y-100079761D01*
X164699761Y-100175000D01*
X164604523Y-100222619D01*
X164414047Y-100270238D01*
X164271190Y-100270238D01*
X164080714Y-100222619D01*
X163985476Y-100175000D01*
X163890238Y-100079761D01*
X163842619Y-99936904D01*
X163842619Y-99698809D01*
X164366428Y-100698809D02*
X164366428Y-101032142D01*
X163842619Y-101175000D02*
X163842619Y-100698809D01*
X164842619Y-100698809D01*
X164842619Y-101175000D01*
X164223571Y-101603571D02*
X164223571Y-102365476D01*
X163842619Y-103413095D02*
X164318809Y-103079761D01*
X163842619Y-102841666D02*
X164842619Y-102841666D01*
X164842619Y-103222619D01*
X164795000Y-103317857D01*
X164747380Y-103365476D01*
X164652142Y-103413095D01*
X164509285Y-103413095D01*
X164414047Y-103365476D01*
X164366428Y-103317857D01*
X164318809Y-103222619D01*
X164318809Y-102841666D01*
X164128333Y-103794047D02*
X164128333Y-104270238D01*
X163842619Y-103698809D02*
X164842619Y-104032142D01*
X163842619Y-104365476D01*
X163842619Y-104698809D02*
X164842619Y-104698809D01*
X164128333Y-105032142D01*
X164842619Y-105365476D01*
X163842619Y-105365476D01*
X111672619Y-81260476D02*
X111672619Y-81831904D01*
X110672619Y-81546190D02*
X111672619Y-81546190D01*
X110672619Y-82165238D02*
X111672619Y-82165238D01*
X111672619Y-82403333D01*
X111625000Y-82546190D01*
X111529761Y-82641428D01*
X111434523Y-82689047D01*
X111244047Y-82736666D01*
X111101190Y-82736666D01*
X110910714Y-82689047D01*
X110815476Y-82641428D01*
X110720238Y-82546190D01*
X110672619Y-82403333D01*
X110672619Y-82165238D01*
X111672619Y-83355714D02*
X111672619Y-83546190D01*
X111625000Y-83641428D01*
X111529761Y-83736666D01*
X111339285Y-83784285D01*
X111005952Y-83784285D01*
X110815476Y-83736666D01*
X110720238Y-83641428D01*
X110672619Y-83546190D01*
X110672619Y-83355714D01*
X110720238Y-83260476D01*
X110815476Y-83165238D01*
X111005952Y-83117619D01*
X111339285Y-83117619D01*
X111529761Y-83165238D01*
X111625000Y-83260476D01*
X111672619Y-83355714D01*
D11*
X146219072Y-96231808D02*
X147951123Y-95231808D01*
X146695262Y-97056594D02*
X148427313Y-96056594D01*
X148665408Y-96468987D01*
X148725787Y-96764042D01*
X148656068Y-97024238D01*
X148538730Y-97201954D01*
X148256434Y-97474909D01*
X148008998Y-97617766D01*
X147631465Y-97725764D01*
X147418889Y-97738523D01*
X147158693Y-97668804D01*
X146933357Y-97468987D01*
X146695262Y-97056594D01*
X148602527Y-98264836D02*
X148935860Y-98842186D01*
X148171453Y-99613431D02*
X147695262Y-98788645D01*
X149427313Y-97788645D01*
X149903504Y-98613431D01*
D12*
X109132619Y-81546190D02*
X109132619Y-82117619D01*
X108132619Y-81831904D02*
X109132619Y-81831904D01*
X108132619Y-82450952D02*
X109132619Y-82450952D01*
X109132619Y-82689047D01*
X109085000Y-82831904D01*
X108989761Y-82927142D01*
X108894523Y-82974761D01*
X108704047Y-83022380D01*
X108561190Y-83022380D01*
X108370714Y-82974761D01*
X108275476Y-82927142D01*
X108180238Y-82831904D01*
X108132619Y-82689047D01*
X108132619Y-82450952D01*
X108132619Y-83450952D02*
X109132619Y-83450952D01*
D10*
X132137380Y-83566904D02*
X132137380Y-82766904D01*
X132442142Y-82766904D01*
X132518333Y-82805000D01*
X132556428Y-82843095D01*
X132594523Y-82919285D01*
X132594523Y-83033571D01*
X132556428Y-83109761D01*
X132518333Y-83147857D01*
X132442142Y-83185952D01*
X132137380Y-83185952D01*
X133089761Y-82766904D02*
X133242142Y-82766904D01*
X133318333Y-82805000D01*
X133394523Y-82881190D01*
X133432619Y-83033571D01*
X133432619Y-83300238D01*
X133394523Y-83452619D01*
X133318333Y-83528809D01*
X133242142Y-83566904D01*
X133089761Y-83566904D01*
X133013571Y-83528809D01*
X132937380Y-83452619D01*
X132899285Y-83300238D01*
X132899285Y-83033571D01*
X132937380Y-82881190D01*
X133013571Y-82805000D01*
X133089761Y-82766904D01*
X133699285Y-82766904D02*
X133889761Y-83566904D01*
X134042142Y-82995476D01*
X134194523Y-83566904D01*
X134385000Y-82766904D01*
X134689761Y-83147857D02*
X134956428Y-83147857D01*
X135070714Y-83566904D02*
X134689761Y-83566904D01*
X134689761Y-82766904D01*
X135070714Y-82766904D01*
X135870714Y-83566904D02*
X135604047Y-83185952D01*
X135413571Y-83566904D02*
X135413571Y-82766904D01*
X135718333Y-82766904D01*
X135794523Y-82805000D01*
X135832619Y-82843095D01*
X135870714Y-82919285D01*
X135870714Y-83033571D01*
X135832619Y-83109761D01*
X135794523Y-83147857D01*
X135718333Y-83185952D01*
X135413571Y-83185952D01*
D12*
X184332619Y-100620000D02*
X185332619Y-100620000D01*
X185332619Y-101286666D02*
X185332619Y-101477142D01*
X185285000Y-101572380D01*
X185189761Y-101667619D01*
X184999285Y-101715238D01*
X184665952Y-101715238D01*
X184475476Y-101667619D01*
X184380238Y-101572380D01*
X184332619Y-101477142D01*
X184332619Y-101286666D01*
X184380238Y-101191428D01*
X184475476Y-101096190D01*
X184665952Y-101048571D01*
X184999285Y-101048571D01*
X185189761Y-101096190D01*
X185285000Y-101191428D01*
X185332619Y-101286666D01*
X185332619Y-102048571D02*
X185332619Y-102667619D01*
X184951666Y-102334285D01*
X184951666Y-102477142D01*
X184904047Y-102572380D01*
X184856428Y-102620000D01*
X184761190Y-102667619D01*
X184523095Y-102667619D01*
X184427857Y-102620000D01*
X184380238Y-102572380D01*
X184332619Y-102477142D01*
X184332619Y-102191428D01*
X184380238Y-102096190D01*
X184427857Y-102048571D01*
X106592619Y-81236666D02*
X106592619Y-81808095D01*
X105592619Y-81522380D02*
X106592619Y-81522380D01*
X105592619Y-82141428D02*
X106592619Y-82141428D01*
X105878333Y-82474761D01*
X106592619Y-82808095D01*
X105592619Y-82808095D01*
X105640238Y-83236666D02*
X105592619Y-83379523D01*
X105592619Y-83617619D01*
X105640238Y-83712857D01*
X105687857Y-83760476D01*
X105783095Y-83808095D01*
X105878333Y-83808095D01*
X105973571Y-83760476D01*
X106021190Y-83712857D01*
X106068809Y-83617619D01*
X106116428Y-83427142D01*
X106164047Y-83331904D01*
X106211666Y-83284285D01*
X106306904Y-83236666D01*
X106402142Y-83236666D01*
X106497380Y-83284285D01*
X106545000Y-83331904D01*
X106592619Y-83427142D01*
X106592619Y-83665238D01*
X106545000Y-83808095D01*
X121912142Y-83657380D02*
X121435952Y-83657380D01*
X121435952Y-82657380D01*
X122245476Y-83133571D02*
X122578809Y-83133571D01*
X122721666Y-83657380D02*
X122245476Y-83657380D01*
X122245476Y-82657380D01*
X122721666Y-82657380D01*
X123150238Y-83657380D02*
X123150238Y-82657380D01*
X123388333Y-82657380D01*
X123531190Y-82705000D01*
X123626428Y-82800238D01*
X123674047Y-82895476D01*
X123721666Y-83085952D01*
X123721666Y-83228809D01*
X123674047Y-83419285D01*
X123626428Y-83514523D01*
X123531190Y-83609761D01*
X123388333Y-83657380D01*
X123150238Y-83657380D01*
X168529285Y-83022380D02*
X168529285Y-82022380D01*
X169005476Y-83022380D02*
X169005476Y-82022380D01*
X169243571Y-82022380D01*
X169386428Y-82070000D01*
X169481666Y-82165238D01*
X169529285Y-82260476D01*
X169576904Y-82450952D01*
X169576904Y-82593809D01*
X169529285Y-82784285D01*
X169481666Y-82879523D01*
X169386428Y-82974761D01*
X169243571Y-83022380D01*
X169005476Y-83022380D01*
X170005476Y-82498571D02*
X170338809Y-82498571D01*
X170481666Y-83022380D02*
X170005476Y-83022380D01*
X170005476Y-82022380D01*
X170481666Y-82022380D01*
X172100714Y-82355714D02*
X172100714Y-83022380D01*
X171862619Y-81974761D02*
X171624523Y-82689047D01*
X172243571Y-82689047D01*
X173053095Y-82355714D02*
X173053095Y-83022380D01*
X172815000Y-81974761D02*
X172576904Y-82689047D01*
X173195952Y-82689047D01*
X123776904Y-96817857D02*
X123824523Y-96770238D01*
X123967380Y-96722619D01*
X124062619Y-96722619D01*
X124205476Y-96770238D01*
X124300714Y-96865476D01*
X124348333Y-96960714D01*
X124395952Y-97151190D01*
X124395952Y-97294047D01*
X124348333Y-97484523D01*
X124300714Y-97579761D01*
X124205476Y-97675000D01*
X124062619Y-97722619D01*
X123967380Y-97722619D01*
X123824523Y-97675000D01*
X123776904Y-97627380D01*
X123157857Y-97198809D02*
X123157857Y-96722619D01*
X123491190Y-97722619D02*
X123157857Y-97198809D01*
X122824523Y-97722619D01*
X122062619Y-97722619D02*
X122253095Y-97722619D01*
X122348333Y-97675000D01*
X122395952Y-97627380D01*
X122491190Y-97484523D01*
X122538809Y-97294047D01*
X122538809Y-96913095D01*
X122491190Y-96817857D01*
X122443571Y-96770238D01*
X122348333Y-96722619D01*
X122157857Y-96722619D01*
X122062619Y-96770238D01*
X122015000Y-96817857D01*
X121967380Y-96913095D01*
X121967380Y-97151190D01*
X122015000Y-97246428D01*
X122062619Y-97294047D01*
X122157857Y-97341666D01*
X122348333Y-97341666D01*
X122443571Y-97294047D01*
X122491190Y-97246428D01*
X122538809Y-97151190D01*
X121586428Y-97627380D02*
X121538809Y-97675000D01*
X121443571Y-97722619D01*
X121205476Y-97722619D01*
X121110238Y-97675000D01*
X121062619Y-97627380D01*
X121015000Y-97532142D01*
X121015000Y-97436904D01*
X121062619Y-97294047D01*
X121634047Y-96722619D01*
X121015000Y-96722619D01*
X120062619Y-96722619D02*
X120634047Y-96722619D01*
X120348333Y-96722619D02*
X120348333Y-97722619D01*
X120443571Y-97579761D01*
X120538809Y-97484523D01*
X120634047Y-97436904D01*
X119205476Y-97722619D02*
X119395952Y-97722619D01*
X119491190Y-97675000D01*
X119538809Y-97627380D01*
X119634047Y-97484523D01*
X119681666Y-97294047D01*
X119681666Y-96913095D01*
X119634047Y-96817857D01*
X119586428Y-96770238D01*
X119491190Y-96722619D01*
X119300714Y-96722619D01*
X119205476Y-96770238D01*
X119157857Y-96817857D01*
X119110238Y-96913095D01*
X119110238Y-97151190D01*
X119157857Y-97246428D01*
X119205476Y-97294047D01*
X119300714Y-97341666D01*
X119491190Y-97341666D01*
X119586428Y-97294047D01*
X119634047Y-97246428D01*
X119681666Y-97151190D01*
X118776904Y-97722619D02*
X118110238Y-97722619D01*
X118538809Y-96722619D01*
X117729285Y-97246428D02*
X117395952Y-97246428D01*
X117253095Y-96722619D02*
X117729285Y-96722619D01*
X117729285Y-97722619D01*
X117253095Y-97722619D01*
X116348333Y-96722619D02*
X116824523Y-96722619D01*
X116824523Y-97722619D01*
X115538809Y-96722619D02*
X116015000Y-96722619D01*
X116015000Y-97722619D01*
X144216428Y-90587619D02*
X144216428Y-90254285D01*
X143692619Y-90254285D02*
X144692619Y-90254285D01*
X144692619Y-90730476D01*
X143692619Y-91587619D02*
X143692619Y-91111428D01*
X144692619Y-91111428D01*
X143978333Y-91873333D02*
X143978333Y-92349523D01*
X143692619Y-91778095D02*
X144692619Y-92111428D01*
X143692619Y-92444761D01*
X143787857Y-93349523D02*
X143740238Y-93301904D01*
X143692619Y-93159047D01*
X143692619Y-93063809D01*
X143740238Y-92920952D01*
X143835476Y-92825714D01*
X143930714Y-92778095D01*
X144121190Y-92730476D01*
X144264047Y-92730476D01*
X144454523Y-92778095D01*
X144549761Y-92825714D01*
X144645000Y-92920952D01*
X144692619Y-93063809D01*
X144692619Y-93159047D01*
X144645000Y-93301904D01*
X144597380Y-93349523D01*
X144692619Y-93968571D02*
X144692619Y-94159047D01*
X144645000Y-94254285D01*
X144549761Y-94349523D01*
X144359285Y-94397142D01*
X144025952Y-94397142D01*
X143835476Y-94349523D01*
X143740238Y-94254285D01*
X143692619Y-94159047D01*
X143692619Y-93968571D01*
X143740238Y-93873333D01*
X143835476Y-93778095D01*
X144025952Y-93730476D01*
X144359285Y-93730476D01*
X144549761Y-93778095D01*
X144645000Y-93873333D01*
X144692619Y-93968571D01*
X144597380Y-95540000D02*
X144645000Y-95587619D01*
X144692619Y-95682857D01*
X144692619Y-95920952D01*
X144645000Y-96016190D01*
X144597380Y-96063809D01*
X144502142Y-96111428D01*
X144406904Y-96111428D01*
X144264047Y-96063809D01*
X143692619Y-95492380D01*
X143692619Y-96111428D01*
X144692619Y-96730476D02*
X144692619Y-96825714D01*
X144645000Y-96920952D01*
X144597380Y-96968571D01*
X144502142Y-97016190D01*
X144311666Y-97063809D01*
X144073571Y-97063809D01*
X143883095Y-97016190D01*
X143787857Y-96968571D01*
X143740238Y-96920952D01*
X143692619Y-96825714D01*
X143692619Y-96730476D01*
X143740238Y-96635238D01*
X143787857Y-96587619D01*
X143883095Y-96540000D01*
X144073571Y-96492380D01*
X144311666Y-96492380D01*
X144502142Y-96540000D01*
X144597380Y-96587619D01*
X144645000Y-96635238D01*
X144692619Y-96730476D01*
X144597380Y-97444761D02*
X144645000Y-97492380D01*
X144692619Y-97587619D01*
X144692619Y-97825714D01*
X144645000Y-97920952D01*
X144597380Y-97968571D01*
X144502142Y-98016190D01*
X144406904Y-98016190D01*
X144264047Y-97968571D01*
X143692619Y-97397142D01*
X143692619Y-98016190D01*
X144692619Y-98635238D02*
X144692619Y-98730476D01*
X144645000Y-98825714D01*
X144597380Y-98873333D01*
X144502142Y-98920952D01*
X144311666Y-98968571D01*
X144073571Y-98968571D01*
X143883095Y-98920952D01*
X143787857Y-98873333D01*
X143740238Y-98825714D01*
X143692619Y-98730476D01*
X143692619Y-98635238D01*
X143740238Y-98540000D01*
X143787857Y-98492380D01*
X143883095Y-98444761D01*
X144073571Y-98397142D01*
X144311666Y-98397142D01*
X144502142Y-98444761D01*
X144597380Y-98492380D01*
X144645000Y-98540000D01*
X144692619Y-98635238D01*
X144359285Y-100063809D02*
X143692619Y-100301904D01*
X144359285Y-100540000D01*
X144692619Y-101111428D02*
X144692619Y-101206666D01*
X144645000Y-101301904D01*
X144597380Y-101349523D01*
X144502142Y-101397142D01*
X144311666Y-101444761D01*
X144073571Y-101444761D01*
X143883095Y-101397142D01*
X143787857Y-101349523D01*
X143740238Y-101301904D01*
X143692619Y-101206666D01*
X143692619Y-101111428D01*
X143740238Y-101016190D01*
X143787857Y-100968571D01*
X143883095Y-100920952D01*
X144073571Y-100873333D01*
X144311666Y-100873333D01*
X144502142Y-100920952D01*
X144597380Y-100968571D01*
X144645000Y-101016190D01*
X144692619Y-101111428D01*
X143787857Y-101873333D02*
X143740238Y-101920952D01*
X143692619Y-101873333D01*
X143740238Y-101825714D01*
X143787857Y-101873333D01*
X143692619Y-101873333D01*
X144597380Y-102301904D02*
X144645000Y-102349523D01*
X144692619Y-102444761D01*
X144692619Y-102682857D01*
X144645000Y-102778095D01*
X144597380Y-102825714D01*
X144502142Y-102873333D01*
X144406904Y-102873333D01*
X144264047Y-102825714D01*
X143692619Y-102254285D01*
X143692619Y-102873333D01*
D10*
X157853748Y-102790000D02*
X158376252Y-102790000D01*
X157853748Y-104260000D02*
X158376252Y-104260000D01*
X134246252Y-102790000D02*
X133723748Y-102790000D01*
X134246252Y-104260000D02*
X133723748Y-104260000D01*
X152773748Y-96440000D02*
X153296252Y-96440000D01*
X152773748Y-97910000D02*
X153296252Y-97910000D01*
X137118752Y-88185000D02*
X136596248Y-88185000D01*
X137118752Y-89655000D02*
X136596248Y-89655000D01*
X108050000Y-97113752D02*
X108050000Y-96591248D01*
X106580000Y-97113752D02*
X106580000Y-96591248D01*
X164345000Y-82379500D02*
X164345000Y-81729500D01*
X161225000Y-82379500D02*
X161225000Y-84054500D01*
X161225000Y-82379500D02*
X161225000Y-81729500D01*
X164345000Y-82379500D02*
X164345000Y-83029500D01*
X135315000Y-79395000D02*
X135315000Y-81995000D01*
X132655000Y-81995000D02*
X135315000Y-81995000D01*
X132655000Y-76795000D02*
X133985000Y-76795000D01*
X132655000Y-78125000D02*
X132655000Y-76795000D01*
X132655000Y-79395000D02*
X135315000Y-79395000D01*
X132655000Y-79395000D02*
X132655000Y-81995000D01*
X131505000Y-79395000D02*
X131505000Y-81995000D01*
X128845000Y-79395000D02*
X131505000Y-79395000D01*
X128845000Y-79395000D02*
X128845000Y-81995000D01*
X128845000Y-76795000D02*
X130175000Y-76795000D01*
X128845000Y-78125000D02*
X128845000Y-76795000D01*
X128845000Y-81995000D02*
X131505000Y-81995000D01*
X158977064Y-83285000D02*
X158522936Y-83285000D01*
X158977064Y-81815000D02*
X158522936Y-81815000D01*
X154712936Y-81815000D02*
X155167064Y-81815000D01*
X154712936Y-83285000D02*
X155167064Y-83285000D01*
X143282936Y-83285000D02*
X143737064Y-83285000D01*
X143282936Y-81815000D02*
X143737064Y-81815000D01*
X178662064Y-81815000D02*
X178207936Y-81815000D01*
X178662064Y-83285000D02*
X178207936Y-83285000D01*
X151357064Y-81815000D02*
X150902936Y-81815000D01*
X151357064Y-83285000D02*
X150902936Y-83285000D01*
X121225000Y-79395000D02*
X123885000Y-79395000D01*
X123885000Y-79395000D02*
X123885000Y-81995000D01*
X121225000Y-79395000D02*
X121225000Y-81995000D01*
X121225000Y-76795000D02*
X122555000Y-76795000D01*
X121225000Y-81995000D02*
X123885000Y-81995000D01*
X121225000Y-78125000D02*
X121225000Y-76795000D01*
X185845000Y-78470000D02*
X185845000Y-80530000D01*
X141725000Y-76410000D02*
X141725000Y-80530000D01*
X185845000Y-76410000D02*
X185845000Y-77470000D01*
X185845000Y-80530000D02*
X141725000Y-80530000D01*
X183785000Y-76410000D02*
X183785000Y-78470000D01*
X183785000Y-76410000D02*
X141725000Y-76410000D01*
X183785000Y-78470000D02*
X185845000Y-78470000D01*
X184785000Y-76410000D02*
X185845000Y-76410000D01*
X183455000Y-97235000D02*
X186115000Y-97235000D01*
X183455000Y-97175000D02*
X183455000Y-97235000D01*
X183455000Y-97175000D02*
X186115000Y-97175000D01*
X186115000Y-97175000D02*
X186115000Y-97235000D01*
X183455000Y-95905000D02*
X183455000Y-94575000D01*
X183455000Y-94575000D02*
X184785000Y-94575000D01*
X120075000Y-78045000D02*
X120075000Y-79375000D01*
X117475000Y-78045000D02*
X104715000Y-78045000D01*
X117475000Y-80705000D02*
X104715000Y-80705000D01*
X104715000Y-78045000D02*
X104715000Y-80705000D01*
X117475000Y-78045000D02*
X117475000Y-80705000D01*
X118745000Y-78045000D02*
X120075000Y-78045000D01*
X133415000Y-97111500D02*
G75*
G03*
X133415000Y-97111500I-700000J0D01*
G01*
X104655000Y-110045000D02*
X186175000Y-110045000D01*
X104715000Y-98175000D02*
X104715000Y-107045000D01*
X186115000Y-87305000D02*
X104715000Y-87305000D01*
X104655000Y-84305000D02*
X104655000Y-110045000D01*
X104715000Y-87305000D02*
X104715000Y-96175000D01*
X186175000Y-84305000D02*
X104655000Y-84305000D01*
X186175000Y-110045000D02*
X186175000Y-84305000D01*
X186115000Y-107045000D02*
X186115000Y-87305000D01*
X104715000Y-107045000D02*
X186115000Y-107045000D01*
X104715000Y-98175000D02*
G75*
G03*
X104715000Y-96175000I0J1000000D01*
G01*
X138056252Y-78860000D02*
X137533748Y-78860000D01*
X138056252Y-77390000D02*
X137533748Y-77390000D01*
X139355000Y-81300000D02*
X139355000Y-82100000D01*
X136235000Y-81300000D02*
X136235000Y-82100000D01*
X136235000Y-81300000D02*
X136235000Y-80500000D01*
X139355000Y-81300000D02*
X139355000Y-79500000D01*
X127695000Y-79395000D02*
X127695000Y-81995000D01*
X125035000Y-78125000D02*
X125035000Y-76795000D01*
X125035000Y-81995000D02*
X127695000Y-81995000D01*
X125035000Y-79395000D02*
X125035000Y-81995000D01*
X125035000Y-79395000D02*
X127695000Y-79395000D01*
X125035000Y-76795000D02*
X126365000Y-76795000D01*
D13*
X110815000Y-103295000D02*
X130215000Y-103295000D01*
D10*
X129215000Y-91055000D02*
X110815000Y-91055000D01*
X141011248Y-88185000D02*
X141533752Y-88185000D01*
X141011248Y-89655000D02*
X141533752Y-89655000D01*
X183455000Y-99715000D02*
X186115000Y-99715000D01*
X183455000Y-98445000D02*
X183455000Y-97115000D01*
X183455000Y-99775000D02*
X186115000Y-99775000D01*
X186115000Y-99715000D02*
X186115000Y-99775000D01*
X183455000Y-97115000D02*
X184785000Y-97115000D01*
X183455000Y-99715000D02*
X183455000Y-99775000D01*
X118517936Y-81815000D02*
X118972064Y-81815000D01*
X118517936Y-83285000D02*
X118972064Y-83285000D01*
X138574072Y-79632670D02*
X139231682Y-80290279D01*
X140808530Y-81867128D02*
X139776154Y-82899503D01*
X140808530Y-81867128D02*
X140150921Y-81209518D01*
X138574072Y-79632670D02*
X137046722Y-81160021D01*
%LPC*%
D14*
X157165000Y-103525000D03*
X159065000Y-103525000D03*
D15*
X134935000Y-103525000D03*
X133035000Y-103525000D03*
D14*
X152085000Y-97175000D03*
X153985000Y-97175000D03*
D15*
X137807500Y-88920000D03*
X135907500Y-88920000D03*
D16*
X107315000Y-97802500D03*
X107315000Y-95902500D03*
D17*
X161835000Y-83317000D03*
X163735000Y-83317000D03*
X162785000Y-81442000D03*
D18*
X133985000Y-78125000D03*
D19*
X133985000Y-80665000D03*
D18*
X130175000Y-78125000D03*
D19*
X130175000Y-80665000D03*
D20*
X159662500Y-82550000D03*
X157837500Y-82550000D03*
D21*
X154027500Y-82550000D03*
X155852500Y-82550000D03*
X142597500Y-82550000D03*
X144422500Y-82550000D03*
D20*
X179347500Y-82550000D03*
X177522500Y-82550000D03*
X152042500Y-82550000D03*
X150217500Y-82550000D03*
D18*
X122555000Y-78125000D03*
D19*
X122555000Y-80665000D03*
D22*
X184785000Y-77470000D03*
D23*
X184785000Y-79470000D03*
X182785000Y-77470000D03*
X182785000Y-79470000D03*
X180785000Y-77470000D03*
X180785000Y-79470000D03*
X178785000Y-77470000D03*
X178785000Y-79470000D03*
X176785000Y-77470000D03*
X176785000Y-79470000D03*
X174785000Y-77470000D03*
X174785000Y-79470000D03*
X172785000Y-77470000D03*
X172785000Y-79470000D03*
X170785000Y-77470000D03*
X170785000Y-79470000D03*
X168785000Y-77470000D03*
X168785000Y-79470000D03*
X166785000Y-77470000D03*
X166785000Y-79470000D03*
X164785000Y-77470000D03*
X164785000Y-79470000D03*
X162785000Y-77470000D03*
X162785000Y-79470000D03*
X160785000Y-77470000D03*
X160785000Y-79470000D03*
X158785000Y-77470000D03*
X158785000Y-79470000D03*
X156785000Y-77470000D03*
X156785000Y-79470000D03*
X154785000Y-77470000D03*
X154785000Y-79470000D03*
X152785000Y-77470000D03*
X152785000Y-79470000D03*
X150785000Y-77470000D03*
X150785000Y-79470000D03*
X148785000Y-77470000D03*
X148785000Y-79470000D03*
X146785000Y-77470000D03*
X146785000Y-79470000D03*
X144785000Y-77470000D03*
X144785000Y-79470000D03*
X142785000Y-77470000D03*
X142785000Y-79470000D03*
D18*
X184785000Y-95905000D03*
D24*
X118745000Y-79375000D03*
D19*
X116205000Y-79375000D03*
X113665000Y-79375000D03*
X111125000Y-79375000D03*
X108585000Y-79375000D03*
X106045000Y-79375000D03*
D25*
X132715000Y-97111500D03*
D26*
X106045000Y-108605000D03*
D27*
X108585000Y-108605000D03*
X111125000Y-108605000D03*
X113665000Y-108605000D03*
X116205000Y-108605000D03*
X118745000Y-108605000D03*
X121285000Y-108605000D03*
X123825000Y-108605000D03*
X126365000Y-108605000D03*
X128905000Y-108605000D03*
X131445000Y-108605000D03*
X133985000Y-108605000D03*
X136525000Y-108605000D03*
X139065000Y-108605000D03*
X141605000Y-108605000D03*
X144145000Y-108605000D03*
X146685000Y-108605000D03*
X149225000Y-108605000D03*
X151765000Y-108605000D03*
X154305000Y-108605000D03*
X156845000Y-108605000D03*
X159385000Y-108605000D03*
X161925000Y-108605000D03*
X164465000Y-108605000D03*
X167005000Y-108605000D03*
X169545000Y-108605000D03*
X172085000Y-108605000D03*
X174625000Y-108605000D03*
X177165000Y-108605000D03*
X179705000Y-108605000D03*
X182245000Y-108605000D03*
X184785000Y-108605000D03*
X184785000Y-85745000D03*
X182245000Y-85745000D03*
X179705000Y-85745000D03*
X177165000Y-85745000D03*
X174625000Y-85745000D03*
X172085000Y-85745000D03*
X169545000Y-85745000D03*
X167005000Y-85745000D03*
X164465000Y-85745000D03*
X161925000Y-85745000D03*
X159385000Y-85745000D03*
X156845000Y-85745000D03*
X154305000Y-85745000D03*
X151765000Y-85745000D03*
X149225000Y-85745000D03*
X146685000Y-85745000D03*
X144145000Y-85745000D03*
X141605000Y-85745000D03*
X139065000Y-85745000D03*
X136525000Y-85745000D03*
X133985000Y-85745000D03*
X131445000Y-85745000D03*
X128905000Y-85745000D03*
X126365000Y-85745000D03*
X123825000Y-85745000D03*
X121285000Y-85745000D03*
X118745000Y-85745000D03*
X116205000Y-85745000D03*
X113665000Y-85745000D03*
X111125000Y-85745000D03*
X108585000Y-85745000D03*
X106045000Y-85745000D03*
D15*
X138745000Y-78125000D03*
X136845000Y-78125000D03*
D28*
X138745000Y-80162500D03*
X137795000Y-80162500D03*
X136845000Y-80162500D03*
X136845000Y-82437500D03*
X138745000Y-82437500D03*
D18*
X126365000Y-78125000D03*
D19*
X126365000Y-80665000D03*
D29*
X129765000Y-102925000D03*
X129765000Y-102425000D03*
X129765000Y-101925000D03*
X129765000Y-101425000D03*
X129765000Y-100925000D03*
X129765000Y-100425000D03*
X129765000Y-99925000D03*
X129765000Y-99425000D03*
X129765000Y-98925000D03*
X129765000Y-98425000D03*
X129765000Y-97925000D03*
X129765000Y-97425000D03*
X129765000Y-96925000D03*
X129765000Y-96425000D03*
X129765000Y-95925000D03*
X129765000Y-95425000D03*
X129765000Y-94925000D03*
X129765000Y-94425000D03*
X129765000Y-93925000D03*
X129765000Y-93425000D03*
X129765000Y-92925000D03*
X129765000Y-92425000D03*
X129765000Y-91925000D03*
X129765000Y-91425000D03*
X110265000Y-91425000D03*
X110265000Y-91925000D03*
X110265000Y-92425000D03*
X110265000Y-92925000D03*
X110265000Y-93425000D03*
X110265000Y-93925000D03*
X110265000Y-94425000D03*
X110265000Y-94925000D03*
X110265000Y-95425000D03*
X110265000Y-95925000D03*
X110265000Y-96425000D03*
X110265000Y-96925000D03*
X110265000Y-97425000D03*
X110265000Y-97925000D03*
X110265000Y-98425000D03*
X110265000Y-98925000D03*
X110265000Y-99425000D03*
X110265000Y-99925000D03*
X110265000Y-100425000D03*
X110265000Y-100925000D03*
X110265000Y-101425000D03*
X110265000Y-101925000D03*
X110265000Y-102425000D03*
X110265000Y-102925000D03*
D14*
X140322500Y-88920000D03*
X142222500Y-88920000D03*
D18*
X184785000Y-98445000D03*
D21*
X117832500Y-82550000D03*
X119657500Y-82550000D03*
D30*
X137775042Y-81322655D03*
X139118545Y-82666158D03*
X139861007Y-80580193D03*
M02*
