G04 #@! TF.GenerationSoftware,KiCad,Pcbnew,6.0.8-f2edbf62ab~116~ubuntu22.04.1*
G04 #@! TF.CreationDate,2022-10-12T20:13:52+02:00*
G04 #@! TF.ProjectId,a500-ide-ram,61353030-2d69-4646-952d-72616d2e6b69,0.2*
G04 #@! TF.SameCoordinates,Original*
G04 #@! TF.FileFunction,Paste,Bot*
G04 #@! TF.FilePolarity,Positive*
%FSLAX46Y46*%
G04 Gerber Fmt 4.6, Leading zero omitted, Abs format (unit mm)*
G04 Created by KiCad (PCBNEW 6.0.8-f2edbf62ab~116~ubuntu22.04.1) date 2022-10-12 20:13:52*
%MOMM*%
%LPD*%
G01*
G04 APERTURE LIST*
G04 Aperture macros list*
%AMRoundRect*
0 Rectangle with rounded corners*
0 $1 Rounding radius*
0 $2 $3 $4 $5 $6 $7 $8 $9 X,Y pos of 4 corners*
0 Add a 4 corners polygon primitive as box body*
4,1,4,$2,$3,$4,$5,$6,$7,$8,$9,$2,$3,0*
0 Add four circle primitives for the rounded corners*
1,1,$1+$1,$2,$3*
1,1,$1+$1,$4,$5*
1,1,$1+$1,$6,$7*
1,1,$1+$1,$8,$9*
0 Add four rect primitives between the rounded corners*
20,1,$1+$1,$2,$3,$4,$5,0*
20,1,$1+$1,$4,$5,$6,$7,0*
20,1,$1+$1,$6,$7,$8,$9,0*
20,1,$1+$1,$8,$9,$2,$3,0*%
G04 Aperture macros list end*
%ADD10RoundRect,0.075000X0.075000X-0.662500X0.075000X0.662500X-0.075000X0.662500X-0.075000X-0.662500X0*%
%ADD11RoundRect,0.075000X0.662500X-0.075000X0.662500X0.075000X-0.662500X0.075000X-0.662500X-0.075000X0*%
G04 APERTURE END LIST*
D10*
X152050000Y-104817500D03*
X151550000Y-104817500D03*
X151050000Y-104817500D03*
X150550000Y-104817500D03*
X150050000Y-104817500D03*
X149550000Y-104817500D03*
X149050000Y-104817500D03*
X148550000Y-104817500D03*
X148050000Y-104817500D03*
X147550000Y-104817500D03*
X147050000Y-104817500D03*
X146550000Y-104817500D03*
X146050000Y-104817500D03*
X145550000Y-104817500D03*
X145050000Y-104817500D03*
X144550000Y-104817500D03*
X144050000Y-104817500D03*
X143550000Y-104817500D03*
X143050000Y-104817500D03*
X142550000Y-104817500D03*
X142050000Y-104817500D03*
X141550000Y-104817500D03*
X141050000Y-104817500D03*
X140550000Y-104817500D03*
X140050000Y-104817500D03*
D11*
X138387500Y-103155000D03*
X138387500Y-102655000D03*
X138387500Y-102155000D03*
X138387500Y-101655000D03*
X138387500Y-101155000D03*
X138387500Y-100655000D03*
X138387500Y-100155000D03*
X138387500Y-99655000D03*
X138387500Y-99155000D03*
X138387500Y-98655000D03*
X138387500Y-98155000D03*
X138387500Y-97655000D03*
X138387500Y-97155000D03*
X138387500Y-96655000D03*
X138387500Y-96155000D03*
X138387500Y-95655000D03*
X138387500Y-95155000D03*
X138387500Y-94655000D03*
X138387500Y-94155000D03*
X138387500Y-93655000D03*
X138387500Y-93155000D03*
X138387500Y-92655000D03*
X138387500Y-92155000D03*
X138387500Y-91655000D03*
X138387500Y-91155000D03*
D10*
X140050000Y-89492500D03*
X140550000Y-89492500D03*
X141050000Y-89492500D03*
X141550000Y-89492500D03*
X142050000Y-89492500D03*
X142550000Y-89492500D03*
X143050000Y-89492500D03*
X143550000Y-89492500D03*
X144050000Y-89492500D03*
X144550000Y-89492500D03*
X145050000Y-89492500D03*
X145550000Y-89492500D03*
X146050000Y-89492500D03*
X146550000Y-89492500D03*
X147050000Y-89492500D03*
X147550000Y-89492500D03*
X148050000Y-89492500D03*
X148550000Y-89492500D03*
X149050000Y-89492500D03*
X149550000Y-89492500D03*
X150050000Y-89492500D03*
X150550000Y-89492500D03*
X151050000Y-89492500D03*
X151550000Y-89492500D03*
X152050000Y-89492500D03*
D11*
X153712500Y-91155000D03*
X153712500Y-91655000D03*
X153712500Y-92155000D03*
X153712500Y-92655000D03*
X153712500Y-93155000D03*
X153712500Y-93655000D03*
X153712500Y-94155000D03*
X153712500Y-94655000D03*
X153712500Y-95155000D03*
X153712500Y-95655000D03*
X153712500Y-96155000D03*
X153712500Y-96655000D03*
X153712500Y-97155000D03*
X153712500Y-97655000D03*
X153712500Y-98155000D03*
X153712500Y-98655000D03*
X153712500Y-99155000D03*
X153712500Y-99655000D03*
X153712500Y-100155000D03*
X153712500Y-100655000D03*
X153712500Y-101155000D03*
X153712500Y-101655000D03*
X153712500Y-102155000D03*
X153712500Y-102655000D03*
X153712500Y-103155000D03*
M02*
