G04 #@! TF.GenerationSoftware,KiCad,Pcbnew,6.0.8-f2edbf62ab~116~ubuntu22.04.1*
G04 #@! TF.CreationDate,2022-10-12T20:13:53+02:00*
G04 #@! TF.ProjectId,a500-ide-ram,61353030-2d69-4646-952d-72616d2e6b69,0.2*
G04 #@! TF.SameCoordinates,Original*
G04 #@! TF.FileFunction,Soldermask,Bot*
G04 #@! TF.FilePolarity,Negative*
%FSLAX46Y46*%
G04 Gerber Fmt 4.6, Leading zero omitted, Abs format (unit mm)*
G04 Created by KiCad (PCBNEW 6.0.8-f2edbf62ab~116~ubuntu22.04.1) date 2022-10-12 20:13:53*
%MOMM*%
%LPD*%
G01*
G04 APERTURE LIST*
G04 Aperture macros list*
%AMRoundRect*
0 Rectangle with rounded corners*
0 $1 Rounding radius*
0 $2 $3 $4 $5 $6 $7 $8 $9 X,Y pos of 4 corners*
0 Add a 4 corners polygon primitive as box body*
4,1,4,$2,$3,$4,$5,$6,$7,$8,$9,$2,$3,0*
0 Add four circle primitives for the rounded corners*
1,1,$1+$1,$2,$3*
1,1,$1+$1,$4,$5*
1,1,$1+$1,$6,$7*
1,1,$1+$1,$8,$9*
0 Add four rect primitives between the rounded corners*
20,1,$1+$1,$2,$3,$4,$5,0*
20,1,$1+$1,$4,$5,$6,$7,0*
20,1,$1+$1,$6,$7,$8,$9,0*
20,1,$1+$1,$8,$9,$2,$3,0*%
G04 Aperture macros list end*
%ADD10RoundRect,0.051000X-0.850000X-0.850000X0.850000X-0.850000X0.850000X0.850000X-0.850000X0.850000X0*%
%ADD11O,1.802000X1.802000*%
%ADD12RoundRect,0.051000X-0.675000X0.675000X-0.675000X-0.675000X0.675000X-0.675000X0.675000X0.675000X0*%
%ADD13O,1.452000X1.452000*%
%ADD14RoundRect,0.051000X-0.850000X0.850000X-0.850000X-0.850000X0.850000X-0.850000X0.850000X0.850000X0*%
%ADD15RoundRect,0.051000X0.800000X-1.200000X0.800000X1.200000X-0.800000X1.200000X-0.800000X-1.200000X0*%
%ADD16O,1.702000X2.502000*%
%ADD17RoundRect,0.126000X0.075000X-0.662500X0.075000X0.662500X-0.075000X0.662500X-0.075000X-0.662500X0*%
%ADD18RoundRect,0.126000X0.662500X-0.075000X0.662500X0.075000X-0.662500X0.075000X-0.662500X-0.075000X0*%
G04 APERTURE END LIST*
D10*
X133985000Y-78125000D03*
D11*
X133985000Y-80665000D03*
D10*
X130175000Y-78125000D03*
D11*
X130175000Y-80665000D03*
D10*
X122555000Y-78125000D03*
D11*
X122555000Y-80665000D03*
D12*
X184785000Y-77470000D03*
D13*
X184785000Y-79470000D03*
X182785000Y-77470000D03*
X182785000Y-79470000D03*
X180785000Y-77470000D03*
X180785000Y-79470000D03*
X178785000Y-77470000D03*
X178785000Y-79470000D03*
X176785000Y-77470000D03*
X176785000Y-79470000D03*
X174785000Y-77470000D03*
X174785000Y-79470000D03*
X172785000Y-77470000D03*
X172785000Y-79470000D03*
X170785000Y-77470000D03*
X170785000Y-79470000D03*
X168785000Y-77470000D03*
X168785000Y-79470000D03*
X166785000Y-77470000D03*
X166785000Y-79470000D03*
X164785000Y-77470000D03*
X164785000Y-79470000D03*
X162785000Y-77470000D03*
X162785000Y-79470000D03*
X160785000Y-77470000D03*
X160785000Y-79470000D03*
X158785000Y-77470000D03*
X158785000Y-79470000D03*
X156785000Y-77470000D03*
X156785000Y-79470000D03*
X154785000Y-77470000D03*
X154785000Y-79470000D03*
X152785000Y-77470000D03*
X152785000Y-79470000D03*
X150785000Y-77470000D03*
X150785000Y-79470000D03*
X148785000Y-77470000D03*
X148785000Y-79470000D03*
X146785000Y-77470000D03*
X146785000Y-79470000D03*
X144785000Y-77470000D03*
X144785000Y-79470000D03*
X142785000Y-77470000D03*
X142785000Y-79470000D03*
D10*
X184785000Y-95905000D03*
D14*
X118745000Y-79375000D03*
D11*
X116205000Y-79375000D03*
X113665000Y-79375000D03*
X111125000Y-79375000D03*
X108585000Y-79375000D03*
X106045000Y-79375000D03*
D15*
X106045000Y-108605000D03*
D16*
X108585000Y-108605000D03*
X111125000Y-108605000D03*
X113665000Y-108605000D03*
X116205000Y-108605000D03*
X118745000Y-108605000D03*
X121285000Y-108605000D03*
X123825000Y-108605000D03*
X126365000Y-108605000D03*
X128905000Y-108605000D03*
X131445000Y-108605000D03*
X133985000Y-108605000D03*
X136525000Y-108605000D03*
X139065000Y-108605000D03*
X141605000Y-108605000D03*
X144145000Y-108605000D03*
X146685000Y-108605000D03*
X149225000Y-108605000D03*
X151765000Y-108605000D03*
X154305000Y-108605000D03*
X156845000Y-108605000D03*
X159385000Y-108605000D03*
X161925000Y-108605000D03*
X164465000Y-108605000D03*
X167005000Y-108605000D03*
X169545000Y-108605000D03*
X172085000Y-108605000D03*
X174625000Y-108605000D03*
X177165000Y-108605000D03*
X179705000Y-108605000D03*
X182245000Y-108605000D03*
X184785000Y-108605000D03*
X184785000Y-85745000D03*
X182245000Y-85745000D03*
X179705000Y-85745000D03*
X177165000Y-85745000D03*
X174625000Y-85745000D03*
X172085000Y-85745000D03*
X169545000Y-85745000D03*
X167005000Y-85745000D03*
X164465000Y-85745000D03*
X161925000Y-85745000D03*
X159385000Y-85745000D03*
X156845000Y-85745000D03*
X154305000Y-85745000D03*
X151765000Y-85745000D03*
X149225000Y-85745000D03*
X146685000Y-85745000D03*
X144145000Y-85745000D03*
X141605000Y-85745000D03*
X139065000Y-85745000D03*
X136525000Y-85745000D03*
X133985000Y-85745000D03*
X131445000Y-85745000D03*
X128905000Y-85745000D03*
X126365000Y-85745000D03*
X123825000Y-85745000D03*
X121285000Y-85745000D03*
X118745000Y-85745000D03*
X116205000Y-85745000D03*
X113665000Y-85745000D03*
X111125000Y-85745000D03*
X108585000Y-85745000D03*
X106045000Y-85745000D03*
D10*
X126365000Y-78125000D03*
D11*
X126365000Y-80665000D03*
D10*
X184785000Y-98445000D03*
D17*
X152050000Y-104817500D03*
X151550000Y-104817500D03*
X151050000Y-104817500D03*
X150550000Y-104817500D03*
X150050000Y-104817500D03*
X149550000Y-104817500D03*
X149050000Y-104817500D03*
X148550000Y-104817500D03*
X148050000Y-104817500D03*
X147550000Y-104817500D03*
X147050000Y-104817500D03*
X146550000Y-104817500D03*
X146050000Y-104817500D03*
X145550000Y-104817500D03*
X145050000Y-104817500D03*
X144550000Y-104817500D03*
X144050000Y-104817500D03*
X143550000Y-104817500D03*
X143050000Y-104817500D03*
X142550000Y-104817500D03*
X142050000Y-104817500D03*
X141550000Y-104817500D03*
X141050000Y-104817500D03*
X140550000Y-104817500D03*
X140050000Y-104817500D03*
D18*
X138387500Y-103155000D03*
X138387500Y-102655000D03*
X138387500Y-102155000D03*
X138387500Y-101655000D03*
X138387500Y-101155000D03*
X138387500Y-100655000D03*
X138387500Y-100155000D03*
X138387500Y-99655000D03*
X138387500Y-99155000D03*
X138387500Y-98655000D03*
X138387500Y-98155000D03*
X138387500Y-97655000D03*
X138387500Y-97155000D03*
X138387500Y-96655000D03*
X138387500Y-96155000D03*
X138387500Y-95655000D03*
X138387500Y-95155000D03*
X138387500Y-94655000D03*
X138387500Y-94155000D03*
X138387500Y-93655000D03*
X138387500Y-93155000D03*
X138387500Y-92655000D03*
X138387500Y-92155000D03*
X138387500Y-91655000D03*
X138387500Y-91155000D03*
D17*
X140050000Y-89492500D03*
X140550000Y-89492500D03*
X141050000Y-89492500D03*
X141550000Y-89492500D03*
X142050000Y-89492500D03*
X142550000Y-89492500D03*
X143050000Y-89492500D03*
X143550000Y-89492500D03*
X144050000Y-89492500D03*
X144550000Y-89492500D03*
X145050000Y-89492500D03*
X145550000Y-89492500D03*
X146050000Y-89492500D03*
X146550000Y-89492500D03*
X147050000Y-89492500D03*
X147550000Y-89492500D03*
X148050000Y-89492500D03*
X148550000Y-89492500D03*
X149050000Y-89492500D03*
X149550000Y-89492500D03*
X150050000Y-89492500D03*
X150550000Y-89492500D03*
X151050000Y-89492500D03*
X151550000Y-89492500D03*
X152050000Y-89492500D03*
D18*
X153712500Y-91155000D03*
X153712500Y-91655000D03*
X153712500Y-92155000D03*
X153712500Y-92655000D03*
X153712500Y-93155000D03*
X153712500Y-93655000D03*
X153712500Y-94155000D03*
X153712500Y-94655000D03*
X153712500Y-95155000D03*
X153712500Y-95655000D03*
X153712500Y-96155000D03*
X153712500Y-96655000D03*
X153712500Y-97155000D03*
X153712500Y-97655000D03*
X153712500Y-98155000D03*
X153712500Y-98655000D03*
X153712500Y-99155000D03*
X153712500Y-99655000D03*
X153712500Y-100155000D03*
X153712500Y-100655000D03*
X153712500Y-101155000D03*
X153712500Y-101655000D03*
X153712500Y-102155000D03*
X153712500Y-102655000D03*
X153712500Y-103155000D03*
G36*
X151218693Y-104069460D02*
G01*
X151231425Y-104077967D01*
X151297789Y-104098747D01*
X151368589Y-104077958D01*
X151381307Y-104069460D01*
X151383303Y-104069329D01*
X151384414Y-104070992D01*
X151384081Y-104072234D01*
X151360476Y-104107561D01*
X151351000Y-104155199D01*
X151351000Y-105479801D01*
X151360476Y-105527439D01*
X151384081Y-105562766D01*
X151384212Y-105564762D01*
X151382549Y-105565873D01*
X151381307Y-105565540D01*
X151368575Y-105557033D01*
X151302211Y-105536253D01*
X151231411Y-105557042D01*
X151218693Y-105565540D01*
X151216697Y-105565671D01*
X151215586Y-105564008D01*
X151215919Y-105562766D01*
X151239524Y-105527439D01*
X151249000Y-105479801D01*
X151249000Y-104155199D01*
X151239524Y-104107561D01*
X151215919Y-104072234D01*
X151215788Y-104070238D01*
X151217451Y-104069127D01*
X151218693Y-104069460D01*
G37*
G36*
X140718693Y-104069460D02*
G01*
X140731425Y-104077967D01*
X140797789Y-104098747D01*
X140868589Y-104077958D01*
X140881307Y-104069460D01*
X140883303Y-104069329D01*
X140884414Y-104070992D01*
X140884081Y-104072234D01*
X140860476Y-104107561D01*
X140851000Y-104155199D01*
X140851000Y-105479801D01*
X140860476Y-105527439D01*
X140884081Y-105562766D01*
X140884212Y-105564762D01*
X140882549Y-105565873D01*
X140881307Y-105565540D01*
X140868575Y-105557033D01*
X140802211Y-105536253D01*
X140731411Y-105557042D01*
X140718693Y-105565540D01*
X140716697Y-105565671D01*
X140715586Y-105564008D01*
X140715919Y-105562766D01*
X140739524Y-105527439D01*
X140749000Y-105479801D01*
X140749000Y-104155199D01*
X140739524Y-104107561D01*
X140715919Y-104072234D01*
X140715788Y-104070238D01*
X140717451Y-104069127D01*
X140718693Y-104069460D01*
G37*
G36*
X144218693Y-104069460D02*
G01*
X144231425Y-104077967D01*
X144297789Y-104098747D01*
X144368589Y-104077958D01*
X144381307Y-104069460D01*
X144383303Y-104069329D01*
X144384414Y-104070992D01*
X144384081Y-104072234D01*
X144360476Y-104107561D01*
X144351000Y-104155199D01*
X144351000Y-105479801D01*
X144360476Y-105527439D01*
X144384081Y-105562766D01*
X144384212Y-105564762D01*
X144382549Y-105565873D01*
X144381307Y-105565540D01*
X144368575Y-105557033D01*
X144302211Y-105536253D01*
X144231411Y-105557042D01*
X144218693Y-105565540D01*
X144216697Y-105565671D01*
X144215586Y-105564008D01*
X144215919Y-105562766D01*
X144239524Y-105527439D01*
X144249000Y-105479801D01*
X144249000Y-104155199D01*
X144239524Y-104107561D01*
X144215919Y-104072234D01*
X144215788Y-104070238D01*
X144217451Y-104069127D01*
X144218693Y-104069460D01*
G37*
G36*
X146718693Y-104069460D02*
G01*
X146731425Y-104077967D01*
X146797789Y-104098747D01*
X146868589Y-104077958D01*
X146881307Y-104069460D01*
X146883303Y-104069329D01*
X146884414Y-104070992D01*
X146884081Y-104072234D01*
X146860476Y-104107561D01*
X146851000Y-104155199D01*
X146851000Y-105479801D01*
X146860476Y-105527439D01*
X146884081Y-105562766D01*
X146884212Y-105564762D01*
X146882549Y-105565873D01*
X146881307Y-105565540D01*
X146868575Y-105557033D01*
X146802211Y-105536253D01*
X146731411Y-105557042D01*
X146718693Y-105565540D01*
X146716697Y-105565671D01*
X146715586Y-105564008D01*
X146715919Y-105562766D01*
X146739524Y-105527439D01*
X146749000Y-105479801D01*
X146749000Y-104155199D01*
X146739524Y-104107561D01*
X146715919Y-104072234D01*
X146715788Y-104070238D01*
X146717451Y-104069127D01*
X146718693Y-104069460D01*
G37*
G36*
X147718693Y-104069460D02*
G01*
X147731425Y-104077967D01*
X147797789Y-104098747D01*
X147868589Y-104077958D01*
X147881307Y-104069460D01*
X147883303Y-104069329D01*
X147884414Y-104070992D01*
X147884081Y-104072234D01*
X147860476Y-104107561D01*
X147851000Y-104155199D01*
X147851000Y-105479801D01*
X147860476Y-105527439D01*
X147884081Y-105562766D01*
X147884212Y-105564762D01*
X147882549Y-105565873D01*
X147881307Y-105565540D01*
X147868575Y-105557033D01*
X147802211Y-105536253D01*
X147731411Y-105557042D01*
X147718693Y-105565540D01*
X147716697Y-105565671D01*
X147715586Y-105564008D01*
X147715919Y-105562766D01*
X147739524Y-105527439D01*
X147749000Y-105479801D01*
X147749000Y-104155199D01*
X147739524Y-104107561D01*
X147715919Y-104072234D01*
X147715788Y-104070238D01*
X147717451Y-104069127D01*
X147718693Y-104069460D01*
G37*
G36*
X141718693Y-104069460D02*
G01*
X141731425Y-104077967D01*
X141797789Y-104098747D01*
X141868589Y-104077958D01*
X141881307Y-104069460D01*
X141883303Y-104069329D01*
X141884414Y-104070992D01*
X141884081Y-104072234D01*
X141860476Y-104107561D01*
X141851000Y-104155199D01*
X141851000Y-105479801D01*
X141860476Y-105527439D01*
X141884081Y-105562766D01*
X141884212Y-105564762D01*
X141882549Y-105565873D01*
X141881307Y-105565540D01*
X141868575Y-105557033D01*
X141802211Y-105536253D01*
X141731411Y-105557042D01*
X141718693Y-105565540D01*
X141716697Y-105565671D01*
X141715586Y-105564008D01*
X141715919Y-105562766D01*
X141739524Y-105527439D01*
X141749000Y-105479801D01*
X141749000Y-104155199D01*
X141739524Y-104107561D01*
X141715919Y-104072234D01*
X141715788Y-104070238D01*
X141717451Y-104069127D01*
X141718693Y-104069460D01*
G37*
G36*
X148218693Y-104069460D02*
G01*
X148231425Y-104077967D01*
X148297789Y-104098747D01*
X148368589Y-104077958D01*
X148381307Y-104069460D01*
X148383303Y-104069329D01*
X148384414Y-104070992D01*
X148384081Y-104072234D01*
X148360476Y-104107561D01*
X148351000Y-104155199D01*
X148351000Y-105479801D01*
X148360476Y-105527439D01*
X148384081Y-105562766D01*
X148384212Y-105564762D01*
X148382549Y-105565873D01*
X148381307Y-105565540D01*
X148368575Y-105557033D01*
X148302211Y-105536253D01*
X148231411Y-105557042D01*
X148218693Y-105565540D01*
X148216697Y-105565671D01*
X148215586Y-105564008D01*
X148215919Y-105562766D01*
X148239524Y-105527439D01*
X148249000Y-105479801D01*
X148249000Y-104155199D01*
X148239524Y-104107561D01*
X148215919Y-104072234D01*
X148215788Y-104070238D01*
X148217451Y-104069127D01*
X148218693Y-104069460D01*
G37*
G36*
X149718693Y-104069460D02*
G01*
X149731425Y-104077967D01*
X149797789Y-104098747D01*
X149868589Y-104077958D01*
X149881307Y-104069460D01*
X149883303Y-104069329D01*
X149884414Y-104070992D01*
X149884081Y-104072234D01*
X149860476Y-104107561D01*
X149851000Y-104155199D01*
X149851000Y-105479801D01*
X149860476Y-105527439D01*
X149884081Y-105562766D01*
X149884212Y-105564762D01*
X149882549Y-105565873D01*
X149881307Y-105565540D01*
X149868575Y-105557033D01*
X149802211Y-105536253D01*
X149731411Y-105557042D01*
X149718693Y-105565540D01*
X149716697Y-105565671D01*
X149715586Y-105564008D01*
X149715919Y-105562766D01*
X149739524Y-105527439D01*
X149749000Y-105479801D01*
X149749000Y-104155199D01*
X149739524Y-104107561D01*
X149715919Y-104072234D01*
X149715788Y-104070238D01*
X149717451Y-104069127D01*
X149718693Y-104069460D01*
G37*
G36*
X144718693Y-104069460D02*
G01*
X144731425Y-104077967D01*
X144797789Y-104098747D01*
X144868589Y-104077958D01*
X144881307Y-104069460D01*
X144883303Y-104069329D01*
X144884414Y-104070992D01*
X144884081Y-104072234D01*
X144860476Y-104107561D01*
X144851000Y-104155199D01*
X144851000Y-105479801D01*
X144860476Y-105527439D01*
X144884081Y-105562766D01*
X144884212Y-105564762D01*
X144882549Y-105565873D01*
X144881307Y-105565540D01*
X144868575Y-105557033D01*
X144802211Y-105536253D01*
X144731411Y-105557042D01*
X144718693Y-105565540D01*
X144716697Y-105565671D01*
X144715586Y-105564008D01*
X144715919Y-105562766D01*
X144739524Y-105527439D01*
X144749000Y-105479801D01*
X144749000Y-104155199D01*
X144739524Y-104107561D01*
X144715919Y-104072234D01*
X144715788Y-104070238D01*
X144717451Y-104069127D01*
X144718693Y-104069460D01*
G37*
G36*
X147218693Y-104069460D02*
G01*
X147231425Y-104077967D01*
X147297789Y-104098747D01*
X147368589Y-104077958D01*
X147381307Y-104069460D01*
X147383303Y-104069329D01*
X147384414Y-104070992D01*
X147384081Y-104072234D01*
X147360476Y-104107561D01*
X147351000Y-104155199D01*
X147351000Y-105479801D01*
X147360476Y-105527439D01*
X147384081Y-105562766D01*
X147384212Y-105564762D01*
X147382549Y-105565873D01*
X147381307Y-105565540D01*
X147368575Y-105557033D01*
X147302211Y-105536253D01*
X147231411Y-105557042D01*
X147218693Y-105565540D01*
X147216697Y-105565671D01*
X147215586Y-105564008D01*
X147215919Y-105562766D01*
X147239524Y-105527439D01*
X147249000Y-105479801D01*
X147249000Y-104155199D01*
X147239524Y-104107561D01*
X147215919Y-104072234D01*
X147215788Y-104070238D01*
X147217451Y-104069127D01*
X147218693Y-104069460D01*
G37*
G36*
X142718693Y-104069460D02*
G01*
X142731425Y-104077967D01*
X142797789Y-104098747D01*
X142868589Y-104077958D01*
X142881307Y-104069460D01*
X142883303Y-104069329D01*
X142884414Y-104070992D01*
X142884081Y-104072234D01*
X142860476Y-104107561D01*
X142851000Y-104155199D01*
X142851000Y-105479801D01*
X142860476Y-105527439D01*
X142884081Y-105562766D01*
X142884212Y-105564762D01*
X142882549Y-105565873D01*
X142881307Y-105565540D01*
X142868575Y-105557033D01*
X142802211Y-105536253D01*
X142731411Y-105557042D01*
X142718693Y-105565540D01*
X142716697Y-105565671D01*
X142715586Y-105564008D01*
X142715919Y-105562766D01*
X142739524Y-105527439D01*
X142749000Y-105479801D01*
X142749000Y-104155199D01*
X142739524Y-104107561D01*
X142715919Y-104072234D01*
X142715788Y-104070238D01*
X142717451Y-104069127D01*
X142718693Y-104069460D01*
G37*
G36*
X141218693Y-104069460D02*
G01*
X141231425Y-104077967D01*
X141297789Y-104098747D01*
X141368589Y-104077958D01*
X141381307Y-104069460D01*
X141383303Y-104069329D01*
X141384414Y-104070992D01*
X141384081Y-104072234D01*
X141360476Y-104107561D01*
X141351000Y-104155199D01*
X141351000Y-105479801D01*
X141360476Y-105527439D01*
X141384081Y-105562766D01*
X141384212Y-105564762D01*
X141382549Y-105565873D01*
X141381307Y-105565540D01*
X141368575Y-105557033D01*
X141302211Y-105536253D01*
X141231411Y-105557042D01*
X141218693Y-105565540D01*
X141216697Y-105565671D01*
X141215586Y-105564008D01*
X141215919Y-105562766D01*
X141239524Y-105527439D01*
X141249000Y-105479801D01*
X141249000Y-104155199D01*
X141239524Y-104107561D01*
X141215919Y-104072234D01*
X141215788Y-104070238D01*
X141217451Y-104069127D01*
X141218693Y-104069460D01*
G37*
G36*
X140218693Y-104069460D02*
G01*
X140231425Y-104077967D01*
X140297789Y-104098747D01*
X140368589Y-104077958D01*
X140381307Y-104069460D01*
X140383303Y-104069329D01*
X140384414Y-104070992D01*
X140384081Y-104072234D01*
X140360476Y-104107561D01*
X140351000Y-104155199D01*
X140351000Y-105479801D01*
X140360476Y-105527439D01*
X140384081Y-105562766D01*
X140384212Y-105564762D01*
X140382549Y-105565873D01*
X140381307Y-105565540D01*
X140368575Y-105557033D01*
X140302211Y-105536253D01*
X140231411Y-105557042D01*
X140218693Y-105565540D01*
X140216697Y-105565671D01*
X140215586Y-105564008D01*
X140215919Y-105562766D01*
X140239524Y-105527439D01*
X140249000Y-105479801D01*
X140249000Y-104155199D01*
X140239524Y-104107561D01*
X140215919Y-104072234D01*
X140215788Y-104070238D01*
X140217451Y-104069127D01*
X140218693Y-104069460D01*
G37*
G36*
X142218693Y-104069460D02*
G01*
X142231425Y-104077967D01*
X142297789Y-104098747D01*
X142368589Y-104077958D01*
X142381307Y-104069460D01*
X142383303Y-104069329D01*
X142384414Y-104070992D01*
X142384081Y-104072234D01*
X142360476Y-104107561D01*
X142351000Y-104155199D01*
X142351000Y-105479801D01*
X142360476Y-105527439D01*
X142384081Y-105562766D01*
X142384212Y-105564762D01*
X142382549Y-105565873D01*
X142381307Y-105565540D01*
X142368575Y-105557033D01*
X142302211Y-105536253D01*
X142231411Y-105557042D01*
X142218693Y-105565540D01*
X142216697Y-105565671D01*
X142215586Y-105564008D01*
X142215919Y-105562766D01*
X142239524Y-105527439D01*
X142249000Y-105479801D01*
X142249000Y-104155199D01*
X142239524Y-104107561D01*
X142215919Y-104072234D01*
X142215788Y-104070238D01*
X142217451Y-104069127D01*
X142218693Y-104069460D01*
G37*
G36*
X151718693Y-104069460D02*
G01*
X151731425Y-104077967D01*
X151797789Y-104098747D01*
X151868589Y-104077958D01*
X151881307Y-104069460D01*
X151883303Y-104069329D01*
X151884414Y-104070992D01*
X151884081Y-104072234D01*
X151860476Y-104107561D01*
X151851000Y-104155199D01*
X151851000Y-105479801D01*
X151860476Y-105527439D01*
X151884081Y-105562766D01*
X151884212Y-105564762D01*
X151882549Y-105565873D01*
X151881307Y-105565540D01*
X151868575Y-105557033D01*
X151802211Y-105536253D01*
X151731411Y-105557042D01*
X151718693Y-105565540D01*
X151716697Y-105565671D01*
X151715586Y-105564008D01*
X151715919Y-105562766D01*
X151739524Y-105527439D01*
X151749000Y-105479801D01*
X151749000Y-104155199D01*
X151739524Y-104107561D01*
X151715919Y-104072234D01*
X151715788Y-104070238D01*
X151717451Y-104069127D01*
X151718693Y-104069460D01*
G37*
G36*
X145718693Y-104069460D02*
G01*
X145731425Y-104077967D01*
X145797789Y-104098747D01*
X145868589Y-104077958D01*
X145881307Y-104069460D01*
X145883303Y-104069329D01*
X145884414Y-104070992D01*
X145884081Y-104072234D01*
X145860476Y-104107561D01*
X145851000Y-104155199D01*
X145851000Y-105479801D01*
X145860476Y-105527439D01*
X145884081Y-105562766D01*
X145884212Y-105564762D01*
X145882549Y-105565873D01*
X145881307Y-105565540D01*
X145868575Y-105557033D01*
X145802211Y-105536253D01*
X145731411Y-105557042D01*
X145718693Y-105565540D01*
X145716697Y-105565671D01*
X145715586Y-105564008D01*
X145715919Y-105562766D01*
X145739524Y-105527439D01*
X145749000Y-105479801D01*
X145749000Y-104155199D01*
X145739524Y-104107561D01*
X145715919Y-104072234D01*
X145715788Y-104070238D01*
X145717451Y-104069127D01*
X145718693Y-104069460D01*
G37*
G36*
X143718693Y-104069460D02*
G01*
X143731425Y-104077967D01*
X143797789Y-104098747D01*
X143868589Y-104077958D01*
X143881307Y-104069460D01*
X143883303Y-104069329D01*
X143884414Y-104070992D01*
X143884081Y-104072234D01*
X143860476Y-104107561D01*
X143851000Y-104155199D01*
X143851000Y-105479801D01*
X143860476Y-105527439D01*
X143884081Y-105562766D01*
X143884212Y-105564762D01*
X143882549Y-105565873D01*
X143881307Y-105565540D01*
X143868575Y-105557033D01*
X143802211Y-105536253D01*
X143731411Y-105557042D01*
X143718693Y-105565540D01*
X143716697Y-105565671D01*
X143715586Y-105564008D01*
X143715919Y-105562766D01*
X143739524Y-105527439D01*
X143749000Y-105479801D01*
X143749000Y-104155199D01*
X143739524Y-104107561D01*
X143715919Y-104072234D01*
X143715788Y-104070238D01*
X143717451Y-104069127D01*
X143718693Y-104069460D01*
G37*
G36*
X146218693Y-104069460D02*
G01*
X146231425Y-104077967D01*
X146297789Y-104098747D01*
X146368589Y-104077958D01*
X146381307Y-104069460D01*
X146383303Y-104069329D01*
X146384414Y-104070992D01*
X146384081Y-104072234D01*
X146360476Y-104107561D01*
X146351000Y-104155199D01*
X146351000Y-105479801D01*
X146360476Y-105527439D01*
X146384081Y-105562766D01*
X146384212Y-105564762D01*
X146382549Y-105565873D01*
X146381307Y-105565540D01*
X146368575Y-105557033D01*
X146302211Y-105536253D01*
X146231411Y-105557042D01*
X146218693Y-105565540D01*
X146216697Y-105565671D01*
X146215586Y-105564008D01*
X146215919Y-105562766D01*
X146239524Y-105527439D01*
X146249000Y-105479801D01*
X146249000Y-104155199D01*
X146239524Y-104107561D01*
X146215919Y-104072234D01*
X146215788Y-104070238D01*
X146217451Y-104069127D01*
X146218693Y-104069460D01*
G37*
G36*
X150218693Y-104069460D02*
G01*
X150231425Y-104077967D01*
X150297789Y-104098747D01*
X150368589Y-104077958D01*
X150381307Y-104069460D01*
X150383303Y-104069329D01*
X150384414Y-104070992D01*
X150384081Y-104072234D01*
X150360476Y-104107561D01*
X150351000Y-104155199D01*
X150351000Y-105479801D01*
X150360476Y-105527439D01*
X150384081Y-105562766D01*
X150384212Y-105564762D01*
X150382549Y-105565873D01*
X150381307Y-105565540D01*
X150368575Y-105557033D01*
X150302211Y-105536253D01*
X150231411Y-105557042D01*
X150218693Y-105565540D01*
X150216697Y-105565671D01*
X150215586Y-105564008D01*
X150215919Y-105562766D01*
X150239524Y-105527439D01*
X150249000Y-105479801D01*
X150249000Y-104155199D01*
X150239524Y-104107561D01*
X150215919Y-104072234D01*
X150215788Y-104070238D01*
X150217451Y-104069127D01*
X150218693Y-104069460D01*
G37*
G36*
X143218693Y-104069460D02*
G01*
X143231425Y-104077967D01*
X143297789Y-104098747D01*
X143368589Y-104077958D01*
X143381307Y-104069460D01*
X143383303Y-104069329D01*
X143384414Y-104070992D01*
X143384081Y-104072234D01*
X143360476Y-104107561D01*
X143351000Y-104155199D01*
X143351000Y-105479801D01*
X143360476Y-105527439D01*
X143384081Y-105562766D01*
X143384212Y-105564762D01*
X143382549Y-105565873D01*
X143381307Y-105565540D01*
X143368575Y-105557033D01*
X143302211Y-105536253D01*
X143231411Y-105557042D01*
X143218693Y-105565540D01*
X143216697Y-105565671D01*
X143215586Y-105564008D01*
X143215919Y-105562766D01*
X143239524Y-105527439D01*
X143249000Y-105479801D01*
X143249000Y-104155199D01*
X143239524Y-104107561D01*
X143215919Y-104072234D01*
X143215788Y-104070238D01*
X143217451Y-104069127D01*
X143218693Y-104069460D01*
G37*
G36*
X148718693Y-104069460D02*
G01*
X148731425Y-104077967D01*
X148797789Y-104098747D01*
X148868589Y-104077958D01*
X148881307Y-104069460D01*
X148883303Y-104069329D01*
X148884414Y-104070992D01*
X148884081Y-104072234D01*
X148860476Y-104107561D01*
X148851000Y-104155199D01*
X148851000Y-105479801D01*
X148860476Y-105527439D01*
X148884081Y-105562766D01*
X148884212Y-105564762D01*
X148882549Y-105565873D01*
X148881307Y-105565540D01*
X148868575Y-105557033D01*
X148802211Y-105536253D01*
X148731411Y-105557042D01*
X148718693Y-105565540D01*
X148716697Y-105565671D01*
X148715586Y-105564008D01*
X148715919Y-105562766D01*
X148739524Y-105527439D01*
X148749000Y-105479801D01*
X148749000Y-104155199D01*
X148739524Y-104107561D01*
X148715919Y-104072234D01*
X148715788Y-104070238D01*
X148717451Y-104069127D01*
X148718693Y-104069460D01*
G37*
G36*
X150718693Y-104069460D02*
G01*
X150731425Y-104077967D01*
X150797789Y-104098747D01*
X150868589Y-104077958D01*
X150881307Y-104069460D01*
X150883303Y-104069329D01*
X150884414Y-104070992D01*
X150884081Y-104072234D01*
X150860476Y-104107561D01*
X150851000Y-104155199D01*
X150851000Y-105479801D01*
X150860476Y-105527439D01*
X150884081Y-105562766D01*
X150884212Y-105564762D01*
X150882549Y-105565873D01*
X150881307Y-105565540D01*
X150868575Y-105557033D01*
X150802211Y-105536253D01*
X150731411Y-105557042D01*
X150718693Y-105565540D01*
X150716697Y-105565671D01*
X150715586Y-105564008D01*
X150715919Y-105562766D01*
X150739524Y-105527439D01*
X150749000Y-105479801D01*
X150749000Y-104155199D01*
X150739524Y-104107561D01*
X150715919Y-104072234D01*
X150715788Y-104070238D01*
X150717451Y-104069127D01*
X150718693Y-104069460D01*
G37*
G36*
X149218693Y-104069460D02*
G01*
X149231425Y-104077967D01*
X149297789Y-104098747D01*
X149368589Y-104077958D01*
X149381307Y-104069460D01*
X149383303Y-104069329D01*
X149384414Y-104070992D01*
X149384081Y-104072234D01*
X149360476Y-104107561D01*
X149351000Y-104155199D01*
X149351000Y-105479801D01*
X149360476Y-105527439D01*
X149384081Y-105562766D01*
X149384212Y-105564762D01*
X149382549Y-105565873D01*
X149381307Y-105565540D01*
X149368575Y-105557033D01*
X149302211Y-105536253D01*
X149231411Y-105557042D01*
X149218693Y-105565540D01*
X149216697Y-105565671D01*
X149215586Y-105564008D01*
X149215919Y-105562766D01*
X149239524Y-105527439D01*
X149249000Y-105479801D01*
X149249000Y-104155199D01*
X149239524Y-104107561D01*
X149215919Y-104072234D01*
X149215788Y-104070238D01*
X149217451Y-104069127D01*
X149218693Y-104069460D01*
G37*
G36*
X145218693Y-104069460D02*
G01*
X145231425Y-104077967D01*
X145297789Y-104098747D01*
X145368589Y-104077958D01*
X145381307Y-104069460D01*
X145383303Y-104069329D01*
X145384414Y-104070992D01*
X145384081Y-104072234D01*
X145360476Y-104107561D01*
X145351000Y-104155199D01*
X145351000Y-105479801D01*
X145360476Y-105527439D01*
X145384081Y-105562766D01*
X145384212Y-105564762D01*
X145382549Y-105565873D01*
X145381307Y-105565540D01*
X145368575Y-105557033D01*
X145302211Y-105536253D01*
X145231411Y-105557042D01*
X145218693Y-105565540D01*
X145216697Y-105565671D01*
X145215586Y-105564008D01*
X145215919Y-105562766D01*
X145239524Y-105527439D01*
X145249000Y-105479801D01*
X145249000Y-104155199D01*
X145239524Y-104107561D01*
X145215919Y-104072234D01*
X145215788Y-104070238D01*
X145217451Y-104069127D01*
X145218693Y-104069460D01*
G37*
G36*
X152967234Y-102820919D02*
G01*
X153002561Y-102844524D01*
X153050199Y-102854000D01*
X154374801Y-102854000D01*
X154422439Y-102844524D01*
X154457766Y-102820919D01*
X154459762Y-102820788D01*
X154460873Y-102822451D01*
X154460540Y-102823693D01*
X154452033Y-102836425D01*
X154431253Y-102902789D01*
X154452042Y-102973589D01*
X154460540Y-102986307D01*
X154460671Y-102988303D01*
X154459008Y-102989414D01*
X154457766Y-102989081D01*
X154422439Y-102965476D01*
X154374801Y-102956000D01*
X153050199Y-102956000D01*
X153002561Y-102965476D01*
X152967234Y-102989081D01*
X152965238Y-102989212D01*
X152964127Y-102987549D01*
X152964460Y-102986307D01*
X152972967Y-102973575D01*
X152993747Y-102907211D01*
X152972958Y-102836411D01*
X152964460Y-102823693D01*
X152964329Y-102821697D01*
X152965992Y-102820586D01*
X152967234Y-102820919D01*
G37*
G36*
X137642234Y-102820919D02*
G01*
X137677561Y-102844524D01*
X137725199Y-102854000D01*
X139049801Y-102854000D01*
X139097439Y-102844524D01*
X139132766Y-102820919D01*
X139134762Y-102820788D01*
X139135873Y-102822451D01*
X139135540Y-102823693D01*
X139127033Y-102836425D01*
X139106253Y-102902789D01*
X139127042Y-102973589D01*
X139135540Y-102986307D01*
X139135671Y-102988303D01*
X139134008Y-102989414D01*
X139132766Y-102989081D01*
X139097439Y-102965476D01*
X139049801Y-102956000D01*
X137725199Y-102956000D01*
X137677561Y-102965476D01*
X137642234Y-102989081D01*
X137640238Y-102989212D01*
X137639127Y-102987549D01*
X137639460Y-102986307D01*
X137647967Y-102973575D01*
X137668747Y-102907211D01*
X137647958Y-102836411D01*
X137639460Y-102823693D01*
X137639329Y-102821697D01*
X137640992Y-102820586D01*
X137642234Y-102820919D01*
G37*
G36*
X152967234Y-102320919D02*
G01*
X153002561Y-102344524D01*
X153050199Y-102354000D01*
X154374801Y-102354000D01*
X154422439Y-102344524D01*
X154457766Y-102320919D01*
X154459762Y-102320788D01*
X154460873Y-102322451D01*
X154460540Y-102323693D01*
X154452033Y-102336425D01*
X154431253Y-102402789D01*
X154452042Y-102473589D01*
X154460540Y-102486307D01*
X154460671Y-102488303D01*
X154459008Y-102489414D01*
X154457766Y-102489081D01*
X154422439Y-102465476D01*
X154374801Y-102456000D01*
X153050199Y-102456000D01*
X153002561Y-102465476D01*
X152967234Y-102489081D01*
X152965238Y-102489212D01*
X152964127Y-102487549D01*
X152964460Y-102486307D01*
X152972967Y-102473575D01*
X152993747Y-102407211D01*
X152972958Y-102336411D01*
X152964460Y-102323693D01*
X152964329Y-102321697D01*
X152965992Y-102320586D01*
X152967234Y-102320919D01*
G37*
G36*
X137642234Y-102320919D02*
G01*
X137677561Y-102344524D01*
X137725199Y-102354000D01*
X139049801Y-102354000D01*
X139097439Y-102344524D01*
X139132766Y-102320919D01*
X139134762Y-102320788D01*
X139135873Y-102322451D01*
X139135540Y-102323693D01*
X139127033Y-102336425D01*
X139106253Y-102402789D01*
X139127042Y-102473589D01*
X139135540Y-102486307D01*
X139135671Y-102488303D01*
X139134008Y-102489414D01*
X139132766Y-102489081D01*
X139097439Y-102465476D01*
X139049801Y-102456000D01*
X137725199Y-102456000D01*
X137677561Y-102465476D01*
X137642234Y-102489081D01*
X137640238Y-102489212D01*
X137639127Y-102487549D01*
X137639460Y-102486307D01*
X137647967Y-102473575D01*
X137668747Y-102407211D01*
X137647958Y-102336411D01*
X137639460Y-102323693D01*
X137639329Y-102321697D01*
X137640992Y-102320586D01*
X137642234Y-102320919D01*
G37*
G36*
X152967234Y-101820919D02*
G01*
X153002561Y-101844524D01*
X153050199Y-101854000D01*
X154374801Y-101854000D01*
X154422439Y-101844524D01*
X154457766Y-101820919D01*
X154459762Y-101820788D01*
X154460873Y-101822451D01*
X154460540Y-101823693D01*
X154452033Y-101836425D01*
X154431253Y-101902789D01*
X154452042Y-101973589D01*
X154460540Y-101986307D01*
X154460671Y-101988303D01*
X154459008Y-101989414D01*
X154457766Y-101989081D01*
X154422439Y-101965476D01*
X154374801Y-101956000D01*
X153050199Y-101956000D01*
X153002561Y-101965476D01*
X152967234Y-101989081D01*
X152965238Y-101989212D01*
X152964127Y-101987549D01*
X152964460Y-101986307D01*
X152972967Y-101973575D01*
X152993747Y-101907211D01*
X152972958Y-101836411D01*
X152964460Y-101823693D01*
X152964329Y-101821697D01*
X152965992Y-101820586D01*
X152967234Y-101820919D01*
G37*
G36*
X137642234Y-101820919D02*
G01*
X137677561Y-101844524D01*
X137725199Y-101854000D01*
X139049801Y-101854000D01*
X139097439Y-101844524D01*
X139132766Y-101820919D01*
X139134762Y-101820788D01*
X139135873Y-101822451D01*
X139135540Y-101823693D01*
X139127033Y-101836425D01*
X139106253Y-101902789D01*
X139127042Y-101973589D01*
X139135540Y-101986307D01*
X139135671Y-101988303D01*
X139134008Y-101989414D01*
X139132766Y-101989081D01*
X139097439Y-101965476D01*
X139049801Y-101956000D01*
X137725199Y-101956000D01*
X137677561Y-101965476D01*
X137642234Y-101989081D01*
X137640238Y-101989212D01*
X137639127Y-101987549D01*
X137639460Y-101986307D01*
X137647967Y-101973575D01*
X137668747Y-101907211D01*
X137647958Y-101836411D01*
X137639460Y-101823693D01*
X137639329Y-101821697D01*
X137640992Y-101820586D01*
X137642234Y-101820919D01*
G37*
G36*
X152967234Y-101320919D02*
G01*
X153002561Y-101344524D01*
X153050199Y-101354000D01*
X154374801Y-101354000D01*
X154422439Y-101344524D01*
X154457766Y-101320919D01*
X154459762Y-101320788D01*
X154460873Y-101322451D01*
X154460540Y-101323693D01*
X154452033Y-101336425D01*
X154431253Y-101402789D01*
X154452042Y-101473589D01*
X154460540Y-101486307D01*
X154460671Y-101488303D01*
X154459008Y-101489414D01*
X154457766Y-101489081D01*
X154422439Y-101465476D01*
X154374801Y-101456000D01*
X153050199Y-101456000D01*
X153002561Y-101465476D01*
X152967234Y-101489081D01*
X152965238Y-101489212D01*
X152964127Y-101487549D01*
X152964460Y-101486307D01*
X152972967Y-101473575D01*
X152993747Y-101407211D01*
X152972958Y-101336411D01*
X152964460Y-101323693D01*
X152964329Y-101321697D01*
X152965992Y-101320586D01*
X152967234Y-101320919D01*
G37*
G36*
X137642234Y-101320919D02*
G01*
X137677561Y-101344524D01*
X137725199Y-101354000D01*
X139049801Y-101354000D01*
X139097439Y-101344524D01*
X139132766Y-101320919D01*
X139134762Y-101320788D01*
X139135873Y-101322451D01*
X139135540Y-101323693D01*
X139127033Y-101336425D01*
X139106253Y-101402789D01*
X139127042Y-101473589D01*
X139135540Y-101486307D01*
X139135671Y-101488303D01*
X139134008Y-101489414D01*
X139132766Y-101489081D01*
X139097439Y-101465476D01*
X139049801Y-101456000D01*
X137725199Y-101456000D01*
X137677561Y-101465476D01*
X137642234Y-101489081D01*
X137640238Y-101489212D01*
X137639127Y-101487549D01*
X137639460Y-101486307D01*
X137647967Y-101473575D01*
X137668747Y-101407211D01*
X137647958Y-101336411D01*
X137639460Y-101323693D01*
X137639329Y-101321697D01*
X137640992Y-101320586D01*
X137642234Y-101320919D01*
G37*
G36*
X152967234Y-100820919D02*
G01*
X153002561Y-100844524D01*
X153050199Y-100854000D01*
X154374801Y-100854000D01*
X154422439Y-100844524D01*
X154457766Y-100820919D01*
X154459762Y-100820788D01*
X154460873Y-100822451D01*
X154460540Y-100823693D01*
X154452033Y-100836425D01*
X154431253Y-100902789D01*
X154452042Y-100973589D01*
X154460540Y-100986307D01*
X154460671Y-100988303D01*
X154459008Y-100989414D01*
X154457766Y-100989081D01*
X154422439Y-100965476D01*
X154374801Y-100956000D01*
X153050199Y-100956000D01*
X153002561Y-100965476D01*
X152967234Y-100989081D01*
X152965238Y-100989212D01*
X152964127Y-100987549D01*
X152964460Y-100986307D01*
X152972967Y-100973575D01*
X152993747Y-100907211D01*
X152972958Y-100836411D01*
X152964460Y-100823693D01*
X152964329Y-100821697D01*
X152965992Y-100820586D01*
X152967234Y-100820919D01*
G37*
G36*
X137642234Y-100820919D02*
G01*
X137677561Y-100844524D01*
X137725199Y-100854000D01*
X139049801Y-100854000D01*
X139097439Y-100844524D01*
X139132766Y-100820919D01*
X139134762Y-100820788D01*
X139135873Y-100822451D01*
X139135540Y-100823693D01*
X139127033Y-100836425D01*
X139106253Y-100902789D01*
X139127042Y-100973589D01*
X139135540Y-100986307D01*
X139135671Y-100988303D01*
X139134008Y-100989414D01*
X139132766Y-100989081D01*
X139097439Y-100965476D01*
X139049801Y-100956000D01*
X137725199Y-100956000D01*
X137677561Y-100965476D01*
X137642234Y-100989081D01*
X137640238Y-100989212D01*
X137639127Y-100987549D01*
X137639460Y-100986307D01*
X137647967Y-100973575D01*
X137668747Y-100907211D01*
X137647958Y-100836411D01*
X137639460Y-100823693D01*
X137639329Y-100821697D01*
X137640992Y-100820586D01*
X137642234Y-100820919D01*
G37*
G36*
X152967234Y-100320919D02*
G01*
X153002561Y-100344524D01*
X153050199Y-100354000D01*
X154374801Y-100354000D01*
X154422439Y-100344524D01*
X154457766Y-100320919D01*
X154459762Y-100320788D01*
X154460873Y-100322451D01*
X154460540Y-100323693D01*
X154452033Y-100336425D01*
X154431253Y-100402789D01*
X154452042Y-100473589D01*
X154460540Y-100486307D01*
X154460671Y-100488303D01*
X154459008Y-100489414D01*
X154457766Y-100489081D01*
X154422439Y-100465476D01*
X154374801Y-100456000D01*
X153050199Y-100456000D01*
X153002561Y-100465476D01*
X152967234Y-100489081D01*
X152965238Y-100489212D01*
X152964127Y-100487549D01*
X152964460Y-100486307D01*
X152972967Y-100473575D01*
X152993747Y-100407211D01*
X152972958Y-100336411D01*
X152964460Y-100323693D01*
X152964329Y-100321697D01*
X152965992Y-100320586D01*
X152967234Y-100320919D01*
G37*
G36*
X137642234Y-100320919D02*
G01*
X137677561Y-100344524D01*
X137725199Y-100354000D01*
X139049801Y-100354000D01*
X139097439Y-100344524D01*
X139132766Y-100320919D01*
X139134762Y-100320788D01*
X139135873Y-100322451D01*
X139135540Y-100323693D01*
X139127033Y-100336425D01*
X139106253Y-100402789D01*
X139127042Y-100473589D01*
X139135540Y-100486307D01*
X139135671Y-100488303D01*
X139134008Y-100489414D01*
X139132766Y-100489081D01*
X139097439Y-100465476D01*
X139049801Y-100456000D01*
X137725199Y-100456000D01*
X137677561Y-100465476D01*
X137642234Y-100489081D01*
X137640238Y-100489212D01*
X137639127Y-100487549D01*
X137639460Y-100486307D01*
X137647967Y-100473575D01*
X137668747Y-100407211D01*
X137647958Y-100336411D01*
X137639460Y-100323693D01*
X137639329Y-100321697D01*
X137640992Y-100320586D01*
X137642234Y-100320919D01*
G37*
G36*
X137642234Y-99820919D02*
G01*
X137677561Y-99844524D01*
X137725199Y-99854000D01*
X139049801Y-99854000D01*
X139097439Y-99844524D01*
X139132766Y-99820919D01*
X139134762Y-99820788D01*
X139135873Y-99822451D01*
X139135540Y-99823693D01*
X139127033Y-99836425D01*
X139106253Y-99902789D01*
X139127042Y-99973589D01*
X139135540Y-99986307D01*
X139135671Y-99988303D01*
X139134008Y-99989414D01*
X139132766Y-99989081D01*
X139097439Y-99965476D01*
X139049801Y-99956000D01*
X137725199Y-99956000D01*
X137677561Y-99965476D01*
X137642234Y-99989081D01*
X137640238Y-99989212D01*
X137639127Y-99987549D01*
X137639460Y-99986307D01*
X137647967Y-99973575D01*
X137668747Y-99907211D01*
X137647958Y-99836411D01*
X137639460Y-99823693D01*
X137639329Y-99821697D01*
X137640992Y-99820586D01*
X137642234Y-99820919D01*
G37*
G36*
X152967234Y-99820919D02*
G01*
X153002561Y-99844524D01*
X153050199Y-99854000D01*
X154374801Y-99854000D01*
X154422439Y-99844524D01*
X154457766Y-99820919D01*
X154459762Y-99820788D01*
X154460873Y-99822451D01*
X154460540Y-99823693D01*
X154452033Y-99836425D01*
X154431253Y-99902789D01*
X154452042Y-99973589D01*
X154460540Y-99986307D01*
X154460671Y-99988303D01*
X154459008Y-99989414D01*
X154457766Y-99989081D01*
X154422439Y-99965476D01*
X154374801Y-99956000D01*
X153050199Y-99956000D01*
X153002561Y-99965476D01*
X152967234Y-99989081D01*
X152965238Y-99989212D01*
X152964127Y-99987549D01*
X152964460Y-99986307D01*
X152972967Y-99973575D01*
X152993747Y-99907211D01*
X152972958Y-99836411D01*
X152964460Y-99823693D01*
X152964329Y-99821697D01*
X152965992Y-99820586D01*
X152967234Y-99820919D01*
G37*
G36*
X152967234Y-99320919D02*
G01*
X153002561Y-99344524D01*
X153050199Y-99354000D01*
X154374801Y-99354000D01*
X154422439Y-99344524D01*
X154457766Y-99320919D01*
X154459762Y-99320788D01*
X154460873Y-99322451D01*
X154460540Y-99323693D01*
X154452033Y-99336425D01*
X154431253Y-99402789D01*
X154452042Y-99473589D01*
X154460540Y-99486307D01*
X154460671Y-99488303D01*
X154459008Y-99489414D01*
X154457766Y-99489081D01*
X154422439Y-99465476D01*
X154374801Y-99456000D01*
X153050199Y-99456000D01*
X153002561Y-99465476D01*
X152967234Y-99489081D01*
X152965238Y-99489212D01*
X152964127Y-99487549D01*
X152964460Y-99486307D01*
X152972967Y-99473575D01*
X152993747Y-99407211D01*
X152972958Y-99336411D01*
X152964460Y-99323693D01*
X152964329Y-99321697D01*
X152965992Y-99320586D01*
X152967234Y-99320919D01*
G37*
G36*
X137642234Y-99320919D02*
G01*
X137677561Y-99344524D01*
X137725199Y-99354000D01*
X139049801Y-99354000D01*
X139097439Y-99344524D01*
X139132766Y-99320919D01*
X139134762Y-99320788D01*
X139135873Y-99322451D01*
X139135540Y-99323693D01*
X139127033Y-99336425D01*
X139106253Y-99402789D01*
X139127042Y-99473589D01*
X139135540Y-99486307D01*
X139135671Y-99488303D01*
X139134008Y-99489414D01*
X139132766Y-99489081D01*
X139097439Y-99465476D01*
X139049801Y-99456000D01*
X137725199Y-99456000D01*
X137677561Y-99465476D01*
X137642234Y-99489081D01*
X137640238Y-99489212D01*
X137639127Y-99487549D01*
X137639460Y-99486307D01*
X137647967Y-99473575D01*
X137668747Y-99407211D01*
X137647958Y-99336411D01*
X137639460Y-99323693D01*
X137639329Y-99321697D01*
X137640992Y-99320586D01*
X137642234Y-99320919D01*
G37*
G36*
X152967234Y-98820919D02*
G01*
X153002561Y-98844524D01*
X153050199Y-98854000D01*
X154374801Y-98854000D01*
X154422439Y-98844524D01*
X154457766Y-98820919D01*
X154459762Y-98820788D01*
X154460873Y-98822451D01*
X154460540Y-98823693D01*
X154452033Y-98836425D01*
X154431253Y-98902789D01*
X154452042Y-98973589D01*
X154460540Y-98986307D01*
X154460671Y-98988303D01*
X154459008Y-98989414D01*
X154457766Y-98989081D01*
X154422439Y-98965476D01*
X154374801Y-98956000D01*
X153050199Y-98956000D01*
X153002561Y-98965476D01*
X152967234Y-98989081D01*
X152965238Y-98989212D01*
X152964127Y-98987549D01*
X152964460Y-98986307D01*
X152972967Y-98973575D01*
X152993747Y-98907211D01*
X152972958Y-98836411D01*
X152964460Y-98823693D01*
X152964329Y-98821697D01*
X152965992Y-98820586D01*
X152967234Y-98820919D01*
G37*
G36*
X137642234Y-98820919D02*
G01*
X137677561Y-98844524D01*
X137725199Y-98854000D01*
X139049801Y-98854000D01*
X139097439Y-98844524D01*
X139132766Y-98820919D01*
X139134762Y-98820788D01*
X139135873Y-98822451D01*
X139135540Y-98823693D01*
X139127033Y-98836425D01*
X139106253Y-98902789D01*
X139127042Y-98973589D01*
X139135540Y-98986307D01*
X139135671Y-98988303D01*
X139134008Y-98989414D01*
X139132766Y-98989081D01*
X139097439Y-98965476D01*
X139049801Y-98956000D01*
X137725199Y-98956000D01*
X137677561Y-98965476D01*
X137642234Y-98989081D01*
X137640238Y-98989212D01*
X137639127Y-98987549D01*
X137639460Y-98986307D01*
X137647967Y-98973575D01*
X137668747Y-98907211D01*
X137647958Y-98836411D01*
X137639460Y-98823693D01*
X137639329Y-98821697D01*
X137640992Y-98820586D01*
X137642234Y-98820919D01*
G37*
G36*
X152967234Y-98320919D02*
G01*
X153002561Y-98344524D01*
X153050199Y-98354000D01*
X154374801Y-98354000D01*
X154422439Y-98344524D01*
X154457766Y-98320919D01*
X154459762Y-98320788D01*
X154460873Y-98322451D01*
X154460540Y-98323693D01*
X154452033Y-98336425D01*
X154431253Y-98402789D01*
X154452042Y-98473589D01*
X154460540Y-98486307D01*
X154460671Y-98488303D01*
X154459008Y-98489414D01*
X154457766Y-98489081D01*
X154422439Y-98465476D01*
X154374801Y-98456000D01*
X153050199Y-98456000D01*
X153002561Y-98465476D01*
X152967234Y-98489081D01*
X152965238Y-98489212D01*
X152964127Y-98487549D01*
X152964460Y-98486307D01*
X152972967Y-98473575D01*
X152993747Y-98407211D01*
X152972958Y-98336411D01*
X152964460Y-98323693D01*
X152964329Y-98321697D01*
X152965992Y-98320586D01*
X152967234Y-98320919D01*
G37*
G36*
X137642234Y-98320919D02*
G01*
X137677561Y-98344524D01*
X137725199Y-98354000D01*
X139049801Y-98354000D01*
X139097439Y-98344524D01*
X139132766Y-98320919D01*
X139134762Y-98320788D01*
X139135873Y-98322451D01*
X139135540Y-98323693D01*
X139127033Y-98336425D01*
X139106253Y-98402789D01*
X139127042Y-98473589D01*
X139135540Y-98486307D01*
X139135671Y-98488303D01*
X139134008Y-98489414D01*
X139132766Y-98489081D01*
X139097439Y-98465476D01*
X139049801Y-98456000D01*
X137725199Y-98456000D01*
X137677561Y-98465476D01*
X137642234Y-98489081D01*
X137640238Y-98489212D01*
X137639127Y-98487549D01*
X137639460Y-98486307D01*
X137647967Y-98473575D01*
X137668747Y-98407211D01*
X137647958Y-98336411D01*
X137639460Y-98323693D01*
X137639329Y-98321697D01*
X137640992Y-98320586D01*
X137642234Y-98320919D01*
G37*
G36*
X152967234Y-97820919D02*
G01*
X153002561Y-97844524D01*
X153050199Y-97854000D01*
X154374801Y-97854000D01*
X154422439Y-97844524D01*
X154457766Y-97820919D01*
X154459762Y-97820788D01*
X154460873Y-97822451D01*
X154460540Y-97823693D01*
X154452033Y-97836425D01*
X154431253Y-97902789D01*
X154452042Y-97973589D01*
X154460540Y-97986307D01*
X154460671Y-97988303D01*
X154459008Y-97989414D01*
X154457766Y-97989081D01*
X154422439Y-97965476D01*
X154374801Y-97956000D01*
X153050199Y-97956000D01*
X153002561Y-97965476D01*
X152967234Y-97989081D01*
X152965238Y-97989212D01*
X152964127Y-97987549D01*
X152964460Y-97986307D01*
X152972967Y-97973575D01*
X152993747Y-97907211D01*
X152972958Y-97836411D01*
X152964460Y-97823693D01*
X152964329Y-97821697D01*
X152965992Y-97820586D01*
X152967234Y-97820919D01*
G37*
G36*
X137642234Y-97820919D02*
G01*
X137677561Y-97844524D01*
X137725199Y-97854000D01*
X139049801Y-97854000D01*
X139097439Y-97844524D01*
X139132766Y-97820919D01*
X139134762Y-97820788D01*
X139135873Y-97822451D01*
X139135540Y-97823693D01*
X139127033Y-97836425D01*
X139106253Y-97902789D01*
X139127042Y-97973589D01*
X139135540Y-97986307D01*
X139135671Y-97988303D01*
X139134008Y-97989414D01*
X139132766Y-97989081D01*
X139097439Y-97965476D01*
X139049801Y-97956000D01*
X137725199Y-97956000D01*
X137677561Y-97965476D01*
X137642234Y-97989081D01*
X137640238Y-97989212D01*
X137639127Y-97987549D01*
X137639460Y-97986307D01*
X137647967Y-97973575D01*
X137668747Y-97907211D01*
X137647958Y-97836411D01*
X137639460Y-97823693D01*
X137639329Y-97821697D01*
X137640992Y-97820586D01*
X137642234Y-97820919D01*
G37*
G36*
X152967234Y-97320919D02*
G01*
X153002561Y-97344524D01*
X153050199Y-97354000D01*
X154374801Y-97354000D01*
X154422439Y-97344524D01*
X154457766Y-97320919D01*
X154459762Y-97320788D01*
X154460873Y-97322451D01*
X154460540Y-97323693D01*
X154452033Y-97336425D01*
X154431253Y-97402789D01*
X154452042Y-97473589D01*
X154460540Y-97486307D01*
X154460671Y-97488303D01*
X154459008Y-97489414D01*
X154457766Y-97489081D01*
X154422439Y-97465476D01*
X154374801Y-97456000D01*
X153050199Y-97456000D01*
X153002561Y-97465476D01*
X152967234Y-97489081D01*
X152965238Y-97489212D01*
X152964127Y-97487549D01*
X152964460Y-97486307D01*
X152972967Y-97473575D01*
X152993747Y-97407211D01*
X152972958Y-97336411D01*
X152964460Y-97323693D01*
X152964329Y-97321697D01*
X152965992Y-97320586D01*
X152967234Y-97320919D01*
G37*
G36*
X137642234Y-97320919D02*
G01*
X137677561Y-97344524D01*
X137725199Y-97354000D01*
X139049801Y-97354000D01*
X139097439Y-97344524D01*
X139132766Y-97320919D01*
X139134762Y-97320788D01*
X139135873Y-97322451D01*
X139135540Y-97323693D01*
X139127033Y-97336425D01*
X139106253Y-97402789D01*
X139127042Y-97473589D01*
X139135540Y-97486307D01*
X139135671Y-97488303D01*
X139134008Y-97489414D01*
X139132766Y-97489081D01*
X139097439Y-97465476D01*
X139049801Y-97456000D01*
X137725199Y-97456000D01*
X137677561Y-97465476D01*
X137642234Y-97489081D01*
X137640238Y-97489212D01*
X137639127Y-97487549D01*
X137639460Y-97486307D01*
X137647967Y-97473575D01*
X137668747Y-97407211D01*
X137647958Y-97336411D01*
X137639460Y-97323693D01*
X137639329Y-97321697D01*
X137640992Y-97320586D01*
X137642234Y-97320919D01*
G37*
G36*
X152967234Y-96820919D02*
G01*
X153002561Y-96844524D01*
X153050199Y-96854000D01*
X154374801Y-96854000D01*
X154422439Y-96844524D01*
X154457766Y-96820919D01*
X154459762Y-96820788D01*
X154460873Y-96822451D01*
X154460540Y-96823693D01*
X154452033Y-96836425D01*
X154431253Y-96902789D01*
X154452042Y-96973589D01*
X154460540Y-96986307D01*
X154460671Y-96988303D01*
X154459008Y-96989414D01*
X154457766Y-96989081D01*
X154422439Y-96965476D01*
X154374801Y-96956000D01*
X153050199Y-96956000D01*
X153002561Y-96965476D01*
X152967234Y-96989081D01*
X152965238Y-96989212D01*
X152964127Y-96987549D01*
X152964460Y-96986307D01*
X152972967Y-96973575D01*
X152993747Y-96907211D01*
X152972958Y-96836411D01*
X152964460Y-96823693D01*
X152964329Y-96821697D01*
X152965992Y-96820586D01*
X152967234Y-96820919D01*
G37*
G36*
X137642234Y-96820919D02*
G01*
X137677561Y-96844524D01*
X137725199Y-96854000D01*
X139049801Y-96854000D01*
X139097439Y-96844524D01*
X139132766Y-96820919D01*
X139134762Y-96820788D01*
X139135873Y-96822451D01*
X139135540Y-96823693D01*
X139127033Y-96836425D01*
X139106253Y-96902789D01*
X139127042Y-96973589D01*
X139135540Y-96986307D01*
X139135671Y-96988303D01*
X139134008Y-96989414D01*
X139132766Y-96989081D01*
X139097439Y-96965476D01*
X139049801Y-96956000D01*
X137725199Y-96956000D01*
X137677561Y-96965476D01*
X137642234Y-96989081D01*
X137640238Y-96989212D01*
X137639127Y-96987549D01*
X137639460Y-96986307D01*
X137647967Y-96973575D01*
X137668747Y-96907211D01*
X137647958Y-96836411D01*
X137639460Y-96823693D01*
X137639329Y-96821697D01*
X137640992Y-96820586D01*
X137642234Y-96820919D01*
G37*
G36*
X152967234Y-96320919D02*
G01*
X153002561Y-96344524D01*
X153050199Y-96354000D01*
X154374801Y-96354000D01*
X154422439Y-96344524D01*
X154457766Y-96320919D01*
X154459762Y-96320788D01*
X154460873Y-96322451D01*
X154460540Y-96323693D01*
X154452033Y-96336425D01*
X154431253Y-96402789D01*
X154452042Y-96473589D01*
X154460540Y-96486307D01*
X154460671Y-96488303D01*
X154459008Y-96489414D01*
X154457766Y-96489081D01*
X154422439Y-96465476D01*
X154374801Y-96456000D01*
X153050199Y-96456000D01*
X153002561Y-96465476D01*
X152967234Y-96489081D01*
X152965238Y-96489212D01*
X152964127Y-96487549D01*
X152964460Y-96486307D01*
X152972967Y-96473575D01*
X152993747Y-96407211D01*
X152972958Y-96336411D01*
X152964460Y-96323693D01*
X152964329Y-96321697D01*
X152965992Y-96320586D01*
X152967234Y-96320919D01*
G37*
G36*
X137642234Y-96320919D02*
G01*
X137677561Y-96344524D01*
X137725199Y-96354000D01*
X139049801Y-96354000D01*
X139097439Y-96344524D01*
X139132766Y-96320919D01*
X139134762Y-96320788D01*
X139135873Y-96322451D01*
X139135540Y-96323693D01*
X139127033Y-96336425D01*
X139106253Y-96402789D01*
X139127042Y-96473589D01*
X139135540Y-96486307D01*
X139135671Y-96488303D01*
X139134008Y-96489414D01*
X139132766Y-96489081D01*
X139097439Y-96465476D01*
X139049801Y-96456000D01*
X137725199Y-96456000D01*
X137677561Y-96465476D01*
X137642234Y-96489081D01*
X137640238Y-96489212D01*
X137639127Y-96487549D01*
X137639460Y-96486307D01*
X137647967Y-96473575D01*
X137668747Y-96407211D01*
X137647958Y-96336411D01*
X137639460Y-96323693D01*
X137639329Y-96321697D01*
X137640992Y-96320586D01*
X137642234Y-96320919D01*
G37*
G36*
X152967234Y-95820919D02*
G01*
X153002561Y-95844524D01*
X153050199Y-95854000D01*
X154374801Y-95854000D01*
X154422439Y-95844524D01*
X154457766Y-95820919D01*
X154459762Y-95820788D01*
X154460873Y-95822451D01*
X154460540Y-95823693D01*
X154452033Y-95836425D01*
X154431253Y-95902789D01*
X154452042Y-95973589D01*
X154460540Y-95986307D01*
X154460671Y-95988303D01*
X154459008Y-95989414D01*
X154457766Y-95989081D01*
X154422439Y-95965476D01*
X154374801Y-95956000D01*
X153050199Y-95956000D01*
X153002561Y-95965476D01*
X152967234Y-95989081D01*
X152965238Y-95989212D01*
X152964127Y-95987549D01*
X152964460Y-95986307D01*
X152972967Y-95973575D01*
X152993747Y-95907211D01*
X152972958Y-95836411D01*
X152964460Y-95823693D01*
X152964329Y-95821697D01*
X152965992Y-95820586D01*
X152967234Y-95820919D01*
G37*
G36*
X137642234Y-95820919D02*
G01*
X137677561Y-95844524D01*
X137725199Y-95854000D01*
X139049801Y-95854000D01*
X139097439Y-95844524D01*
X139132766Y-95820919D01*
X139134762Y-95820788D01*
X139135873Y-95822451D01*
X139135540Y-95823693D01*
X139127033Y-95836425D01*
X139106253Y-95902789D01*
X139127042Y-95973589D01*
X139135540Y-95986307D01*
X139135671Y-95988303D01*
X139134008Y-95989414D01*
X139132766Y-95989081D01*
X139097439Y-95965476D01*
X139049801Y-95956000D01*
X137725199Y-95956000D01*
X137677561Y-95965476D01*
X137642234Y-95989081D01*
X137640238Y-95989212D01*
X137639127Y-95987549D01*
X137639460Y-95986307D01*
X137647967Y-95973575D01*
X137668747Y-95907211D01*
X137647958Y-95836411D01*
X137639460Y-95823693D01*
X137639329Y-95821697D01*
X137640992Y-95820586D01*
X137642234Y-95820919D01*
G37*
G36*
X152967234Y-95320919D02*
G01*
X153002561Y-95344524D01*
X153050199Y-95354000D01*
X154374801Y-95354000D01*
X154422439Y-95344524D01*
X154457766Y-95320919D01*
X154459762Y-95320788D01*
X154460873Y-95322451D01*
X154460540Y-95323693D01*
X154452033Y-95336425D01*
X154431253Y-95402789D01*
X154452042Y-95473589D01*
X154460540Y-95486307D01*
X154460671Y-95488303D01*
X154459008Y-95489414D01*
X154457766Y-95489081D01*
X154422439Y-95465476D01*
X154374801Y-95456000D01*
X153050199Y-95456000D01*
X153002561Y-95465476D01*
X152967234Y-95489081D01*
X152965238Y-95489212D01*
X152964127Y-95487549D01*
X152964460Y-95486307D01*
X152972967Y-95473575D01*
X152993747Y-95407211D01*
X152972958Y-95336411D01*
X152964460Y-95323693D01*
X152964329Y-95321697D01*
X152965992Y-95320586D01*
X152967234Y-95320919D01*
G37*
G36*
X137642234Y-95320919D02*
G01*
X137677561Y-95344524D01*
X137725199Y-95354000D01*
X139049801Y-95354000D01*
X139097439Y-95344524D01*
X139132766Y-95320919D01*
X139134762Y-95320788D01*
X139135873Y-95322451D01*
X139135540Y-95323693D01*
X139127033Y-95336425D01*
X139106253Y-95402789D01*
X139127042Y-95473589D01*
X139135540Y-95486307D01*
X139135671Y-95488303D01*
X139134008Y-95489414D01*
X139132766Y-95489081D01*
X139097439Y-95465476D01*
X139049801Y-95456000D01*
X137725199Y-95456000D01*
X137677561Y-95465476D01*
X137642234Y-95489081D01*
X137640238Y-95489212D01*
X137639127Y-95487549D01*
X137639460Y-95486307D01*
X137647967Y-95473575D01*
X137668747Y-95407211D01*
X137647958Y-95336411D01*
X137639460Y-95323693D01*
X137639329Y-95321697D01*
X137640992Y-95320586D01*
X137642234Y-95320919D01*
G37*
G36*
X137642234Y-94820919D02*
G01*
X137677561Y-94844524D01*
X137725199Y-94854000D01*
X139049801Y-94854000D01*
X139097439Y-94844524D01*
X139132766Y-94820919D01*
X139134762Y-94820788D01*
X139135873Y-94822451D01*
X139135540Y-94823693D01*
X139127033Y-94836425D01*
X139106253Y-94902789D01*
X139127042Y-94973589D01*
X139135540Y-94986307D01*
X139135671Y-94988303D01*
X139134008Y-94989414D01*
X139132766Y-94989081D01*
X139097439Y-94965476D01*
X139049801Y-94956000D01*
X137725199Y-94956000D01*
X137677561Y-94965476D01*
X137642234Y-94989081D01*
X137640238Y-94989212D01*
X137639127Y-94987549D01*
X137639460Y-94986307D01*
X137647967Y-94973575D01*
X137668747Y-94907211D01*
X137647958Y-94836411D01*
X137639460Y-94823693D01*
X137639329Y-94821697D01*
X137640992Y-94820586D01*
X137642234Y-94820919D01*
G37*
G36*
X152967234Y-94820919D02*
G01*
X153002561Y-94844524D01*
X153050199Y-94854000D01*
X154374801Y-94854000D01*
X154422439Y-94844524D01*
X154457766Y-94820919D01*
X154459762Y-94820788D01*
X154460873Y-94822451D01*
X154460540Y-94823693D01*
X154452033Y-94836425D01*
X154431253Y-94902789D01*
X154452042Y-94973589D01*
X154460540Y-94986307D01*
X154460671Y-94988303D01*
X154459008Y-94989414D01*
X154457766Y-94989081D01*
X154422439Y-94965476D01*
X154374801Y-94956000D01*
X153050199Y-94956000D01*
X153002561Y-94965476D01*
X152967234Y-94989081D01*
X152965238Y-94989212D01*
X152964127Y-94987549D01*
X152964460Y-94986307D01*
X152972967Y-94973575D01*
X152993747Y-94907211D01*
X152972958Y-94836411D01*
X152964460Y-94823693D01*
X152964329Y-94821697D01*
X152965992Y-94820586D01*
X152967234Y-94820919D01*
G37*
G36*
X137642234Y-94320919D02*
G01*
X137677561Y-94344524D01*
X137725199Y-94354000D01*
X139049801Y-94354000D01*
X139097439Y-94344524D01*
X139132766Y-94320919D01*
X139134762Y-94320788D01*
X139135873Y-94322451D01*
X139135540Y-94323693D01*
X139127033Y-94336425D01*
X139106253Y-94402789D01*
X139127042Y-94473589D01*
X139135540Y-94486307D01*
X139135671Y-94488303D01*
X139134008Y-94489414D01*
X139132766Y-94489081D01*
X139097439Y-94465476D01*
X139049801Y-94456000D01*
X137725199Y-94456000D01*
X137677561Y-94465476D01*
X137642234Y-94489081D01*
X137640238Y-94489212D01*
X137639127Y-94487549D01*
X137639460Y-94486307D01*
X137647967Y-94473575D01*
X137668747Y-94407211D01*
X137647958Y-94336411D01*
X137639460Y-94323693D01*
X137639329Y-94321697D01*
X137640992Y-94320586D01*
X137642234Y-94320919D01*
G37*
G36*
X152967234Y-94320919D02*
G01*
X153002561Y-94344524D01*
X153050199Y-94354000D01*
X154374801Y-94354000D01*
X154422439Y-94344524D01*
X154457766Y-94320919D01*
X154459762Y-94320788D01*
X154460873Y-94322451D01*
X154460540Y-94323693D01*
X154452033Y-94336425D01*
X154431253Y-94402789D01*
X154452042Y-94473589D01*
X154460540Y-94486307D01*
X154460671Y-94488303D01*
X154459008Y-94489414D01*
X154457766Y-94489081D01*
X154422439Y-94465476D01*
X154374801Y-94456000D01*
X153050199Y-94456000D01*
X153002561Y-94465476D01*
X152967234Y-94489081D01*
X152965238Y-94489212D01*
X152964127Y-94487549D01*
X152964460Y-94486307D01*
X152972967Y-94473575D01*
X152993747Y-94407211D01*
X152972958Y-94336411D01*
X152964460Y-94323693D01*
X152964329Y-94321697D01*
X152965992Y-94320586D01*
X152967234Y-94320919D01*
G37*
G36*
X152967234Y-93820919D02*
G01*
X153002561Y-93844524D01*
X153050199Y-93854000D01*
X154374801Y-93854000D01*
X154422439Y-93844524D01*
X154457766Y-93820919D01*
X154459762Y-93820788D01*
X154460873Y-93822451D01*
X154460540Y-93823693D01*
X154452033Y-93836425D01*
X154431253Y-93902789D01*
X154452042Y-93973589D01*
X154460540Y-93986307D01*
X154460671Y-93988303D01*
X154459008Y-93989414D01*
X154457766Y-93989081D01*
X154422439Y-93965476D01*
X154374801Y-93956000D01*
X153050199Y-93956000D01*
X153002561Y-93965476D01*
X152967234Y-93989081D01*
X152965238Y-93989212D01*
X152964127Y-93987549D01*
X152964460Y-93986307D01*
X152972967Y-93973575D01*
X152993747Y-93907211D01*
X152972958Y-93836411D01*
X152964460Y-93823693D01*
X152964329Y-93821697D01*
X152965992Y-93820586D01*
X152967234Y-93820919D01*
G37*
G36*
X137642234Y-93820919D02*
G01*
X137677561Y-93844524D01*
X137725199Y-93854000D01*
X139049801Y-93854000D01*
X139097439Y-93844524D01*
X139132766Y-93820919D01*
X139134762Y-93820788D01*
X139135873Y-93822451D01*
X139135540Y-93823693D01*
X139127033Y-93836425D01*
X139106253Y-93902789D01*
X139127042Y-93973589D01*
X139135540Y-93986307D01*
X139135671Y-93988303D01*
X139134008Y-93989414D01*
X139132766Y-93989081D01*
X139097439Y-93965476D01*
X139049801Y-93956000D01*
X137725199Y-93956000D01*
X137677561Y-93965476D01*
X137642234Y-93989081D01*
X137640238Y-93989212D01*
X137639127Y-93987549D01*
X137639460Y-93986307D01*
X137647967Y-93973575D01*
X137668747Y-93907211D01*
X137647958Y-93836411D01*
X137639460Y-93823693D01*
X137639329Y-93821697D01*
X137640992Y-93820586D01*
X137642234Y-93820919D01*
G37*
G36*
X152967234Y-93320919D02*
G01*
X153002561Y-93344524D01*
X153050199Y-93354000D01*
X154374801Y-93354000D01*
X154422439Y-93344524D01*
X154457766Y-93320919D01*
X154459762Y-93320788D01*
X154460873Y-93322451D01*
X154460540Y-93323693D01*
X154452033Y-93336425D01*
X154431253Y-93402789D01*
X154452042Y-93473589D01*
X154460540Y-93486307D01*
X154460671Y-93488303D01*
X154459008Y-93489414D01*
X154457766Y-93489081D01*
X154422439Y-93465476D01*
X154374801Y-93456000D01*
X153050199Y-93456000D01*
X153002561Y-93465476D01*
X152967234Y-93489081D01*
X152965238Y-93489212D01*
X152964127Y-93487549D01*
X152964460Y-93486307D01*
X152972967Y-93473575D01*
X152993747Y-93407211D01*
X152972958Y-93336411D01*
X152964460Y-93323693D01*
X152964329Y-93321697D01*
X152965992Y-93320586D01*
X152967234Y-93320919D01*
G37*
G36*
X137642234Y-93320919D02*
G01*
X137677561Y-93344524D01*
X137725199Y-93354000D01*
X139049801Y-93354000D01*
X139097439Y-93344524D01*
X139132766Y-93320919D01*
X139134762Y-93320788D01*
X139135873Y-93322451D01*
X139135540Y-93323693D01*
X139127033Y-93336425D01*
X139106253Y-93402789D01*
X139127042Y-93473589D01*
X139135540Y-93486307D01*
X139135671Y-93488303D01*
X139134008Y-93489414D01*
X139132766Y-93489081D01*
X139097439Y-93465476D01*
X139049801Y-93456000D01*
X137725199Y-93456000D01*
X137677561Y-93465476D01*
X137642234Y-93489081D01*
X137640238Y-93489212D01*
X137639127Y-93487549D01*
X137639460Y-93486307D01*
X137647967Y-93473575D01*
X137668747Y-93407211D01*
X137647958Y-93336411D01*
X137639460Y-93323693D01*
X137639329Y-93321697D01*
X137640992Y-93320586D01*
X137642234Y-93320919D01*
G37*
G36*
X137642234Y-92820919D02*
G01*
X137677561Y-92844524D01*
X137725199Y-92854000D01*
X139049801Y-92854000D01*
X139097439Y-92844524D01*
X139132766Y-92820919D01*
X139134762Y-92820788D01*
X139135873Y-92822451D01*
X139135540Y-92823693D01*
X139127033Y-92836425D01*
X139106253Y-92902789D01*
X139127042Y-92973589D01*
X139135540Y-92986307D01*
X139135671Y-92988303D01*
X139134008Y-92989414D01*
X139132766Y-92989081D01*
X139097439Y-92965476D01*
X139049801Y-92956000D01*
X137725199Y-92956000D01*
X137677561Y-92965476D01*
X137642234Y-92989081D01*
X137640238Y-92989212D01*
X137639127Y-92987549D01*
X137639460Y-92986307D01*
X137647967Y-92973575D01*
X137668747Y-92907211D01*
X137647958Y-92836411D01*
X137639460Y-92823693D01*
X137639329Y-92821697D01*
X137640992Y-92820586D01*
X137642234Y-92820919D01*
G37*
G36*
X152967234Y-92820919D02*
G01*
X153002561Y-92844524D01*
X153050199Y-92854000D01*
X154374801Y-92854000D01*
X154422439Y-92844524D01*
X154457766Y-92820919D01*
X154459762Y-92820788D01*
X154460873Y-92822451D01*
X154460540Y-92823693D01*
X154452033Y-92836425D01*
X154431253Y-92902789D01*
X154452042Y-92973589D01*
X154460540Y-92986307D01*
X154460671Y-92988303D01*
X154459008Y-92989414D01*
X154457766Y-92989081D01*
X154422439Y-92965476D01*
X154374801Y-92956000D01*
X153050199Y-92956000D01*
X153002561Y-92965476D01*
X152967234Y-92989081D01*
X152965238Y-92989212D01*
X152964127Y-92987549D01*
X152964460Y-92986307D01*
X152972967Y-92973575D01*
X152993747Y-92907211D01*
X152972958Y-92836411D01*
X152964460Y-92823693D01*
X152964329Y-92821697D01*
X152965992Y-92820586D01*
X152967234Y-92820919D01*
G37*
G36*
X152967234Y-92320919D02*
G01*
X153002561Y-92344524D01*
X153050199Y-92354000D01*
X154374801Y-92354000D01*
X154422439Y-92344524D01*
X154457766Y-92320919D01*
X154459762Y-92320788D01*
X154460873Y-92322451D01*
X154460540Y-92323693D01*
X154452033Y-92336425D01*
X154431253Y-92402789D01*
X154452042Y-92473589D01*
X154460540Y-92486307D01*
X154460671Y-92488303D01*
X154459008Y-92489414D01*
X154457766Y-92489081D01*
X154422439Y-92465476D01*
X154374801Y-92456000D01*
X153050199Y-92456000D01*
X153002561Y-92465476D01*
X152967234Y-92489081D01*
X152965238Y-92489212D01*
X152964127Y-92487549D01*
X152964460Y-92486307D01*
X152972967Y-92473575D01*
X152993747Y-92407211D01*
X152972958Y-92336411D01*
X152964460Y-92323693D01*
X152964329Y-92321697D01*
X152965992Y-92320586D01*
X152967234Y-92320919D01*
G37*
G36*
X137642234Y-92320919D02*
G01*
X137677561Y-92344524D01*
X137725199Y-92354000D01*
X139049801Y-92354000D01*
X139097439Y-92344524D01*
X139132766Y-92320919D01*
X139134762Y-92320788D01*
X139135873Y-92322451D01*
X139135540Y-92323693D01*
X139127033Y-92336425D01*
X139106253Y-92402789D01*
X139127042Y-92473589D01*
X139135540Y-92486307D01*
X139135671Y-92488303D01*
X139134008Y-92489414D01*
X139132766Y-92489081D01*
X139097439Y-92465476D01*
X139049801Y-92456000D01*
X137725199Y-92456000D01*
X137677561Y-92465476D01*
X137642234Y-92489081D01*
X137640238Y-92489212D01*
X137639127Y-92487549D01*
X137639460Y-92486307D01*
X137647967Y-92473575D01*
X137668747Y-92407211D01*
X137647958Y-92336411D01*
X137639460Y-92323693D01*
X137639329Y-92321697D01*
X137640992Y-92320586D01*
X137642234Y-92320919D01*
G37*
G36*
X137642234Y-91820919D02*
G01*
X137677561Y-91844524D01*
X137725199Y-91854000D01*
X139049801Y-91854000D01*
X139097439Y-91844524D01*
X139132766Y-91820919D01*
X139134762Y-91820788D01*
X139135873Y-91822451D01*
X139135540Y-91823693D01*
X139127033Y-91836425D01*
X139106253Y-91902789D01*
X139127042Y-91973589D01*
X139135540Y-91986307D01*
X139135671Y-91988303D01*
X139134008Y-91989414D01*
X139132766Y-91989081D01*
X139097439Y-91965476D01*
X139049801Y-91956000D01*
X137725199Y-91956000D01*
X137677561Y-91965476D01*
X137642234Y-91989081D01*
X137640238Y-91989212D01*
X137639127Y-91987549D01*
X137639460Y-91986307D01*
X137647967Y-91973575D01*
X137668747Y-91907211D01*
X137647958Y-91836411D01*
X137639460Y-91823693D01*
X137639329Y-91821697D01*
X137640992Y-91820586D01*
X137642234Y-91820919D01*
G37*
G36*
X152967234Y-91820919D02*
G01*
X153002561Y-91844524D01*
X153050199Y-91854000D01*
X154374801Y-91854000D01*
X154422439Y-91844524D01*
X154457766Y-91820919D01*
X154459762Y-91820788D01*
X154460873Y-91822451D01*
X154460540Y-91823693D01*
X154452033Y-91836425D01*
X154431253Y-91902789D01*
X154452042Y-91973589D01*
X154460540Y-91986307D01*
X154460671Y-91988303D01*
X154459008Y-91989414D01*
X154457766Y-91989081D01*
X154422439Y-91965476D01*
X154374801Y-91956000D01*
X153050199Y-91956000D01*
X153002561Y-91965476D01*
X152967234Y-91989081D01*
X152965238Y-91989212D01*
X152964127Y-91987549D01*
X152964460Y-91986307D01*
X152972967Y-91973575D01*
X152993747Y-91907211D01*
X152972958Y-91836411D01*
X152964460Y-91823693D01*
X152964329Y-91821697D01*
X152965992Y-91820586D01*
X152967234Y-91820919D01*
G37*
G36*
X137642234Y-91320919D02*
G01*
X137677561Y-91344524D01*
X137725199Y-91354000D01*
X139049801Y-91354000D01*
X139097439Y-91344524D01*
X139132766Y-91320919D01*
X139134762Y-91320788D01*
X139135873Y-91322451D01*
X139135540Y-91323693D01*
X139127033Y-91336425D01*
X139106253Y-91402789D01*
X139127042Y-91473589D01*
X139135540Y-91486307D01*
X139135671Y-91488303D01*
X139134008Y-91489414D01*
X139132766Y-91489081D01*
X139097439Y-91465476D01*
X139049801Y-91456000D01*
X137725199Y-91456000D01*
X137677561Y-91465476D01*
X137642234Y-91489081D01*
X137640238Y-91489212D01*
X137639127Y-91487549D01*
X137639460Y-91486307D01*
X137647967Y-91473575D01*
X137668747Y-91407211D01*
X137647958Y-91336411D01*
X137639460Y-91323693D01*
X137639329Y-91321697D01*
X137640992Y-91320586D01*
X137642234Y-91320919D01*
G37*
G36*
X152967234Y-91320919D02*
G01*
X153002561Y-91344524D01*
X153050199Y-91354000D01*
X154374801Y-91354000D01*
X154422439Y-91344524D01*
X154457766Y-91320919D01*
X154459762Y-91320788D01*
X154460873Y-91322451D01*
X154460540Y-91323693D01*
X154452033Y-91336425D01*
X154431253Y-91402789D01*
X154452042Y-91473589D01*
X154460540Y-91486307D01*
X154460671Y-91488303D01*
X154459008Y-91489414D01*
X154457766Y-91489081D01*
X154422439Y-91465476D01*
X154374801Y-91456000D01*
X153050199Y-91456000D01*
X153002561Y-91465476D01*
X152967234Y-91489081D01*
X152965238Y-91489212D01*
X152964127Y-91487549D01*
X152964460Y-91486307D01*
X152972967Y-91473575D01*
X152993747Y-91407211D01*
X152972958Y-91336411D01*
X152964460Y-91323693D01*
X152964329Y-91321697D01*
X152965992Y-91320586D01*
X152967234Y-91320919D01*
G37*
G36*
X144718693Y-88744460D02*
G01*
X144731425Y-88752967D01*
X144797789Y-88773747D01*
X144868589Y-88752958D01*
X144881307Y-88744460D01*
X144883303Y-88744329D01*
X144884414Y-88745992D01*
X144884081Y-88747234D01*
X144860476Y-88782561D01*
X144851000Y-88830199D01*
X144851000Y-90154801D01*
X144860476Y-90202439D01*
X144884081Y-90237766D01*
X144884212Y-90239762D01*
X144882549Y-90240873D01*
X144881307Y-90240540D01*
X144868575Y-90232033D01*
X144802211Y-90211253D01*
X144731411Y-90232042D01*
X144718693Y-90240540D01*
X144716697Y-90240671D01*
X144715586Y-90239008D01*
X144715919Y-90237766D01*
X144739524Y-90202439D01*
X144749000Y-90154801D01*
X144749000Y-88830199D01*
X144739524Y-88782561D01*
X144715919Y-88747234D01*
X144715788Y-88745238D01*
X144717451Y-88744127D01*
X144718693Y-88744460D01*
G37*
G36*
X145718693Y-88744460D02*
G01*
X145731425Y-88752967D01*
X145797789Y-88773747D01*
X145868589Y-88752958D01*
X145881307Y-88744460D01*
X145883303Y-88744329D01*
X145884414Y-88745992D01*
X145884081Y-88747234D01*
X145860476Y-88782561D01*
X145851000Y-88830199D01*
X145851000Y-90154801D01*
X145860476Y-90202439D01*
X145884081Y-90237766D01*
X145884212Y-90239762D01*
X145882549Y-90240873D01*
X145881307Y-90240540D01*
X145868575Y-90232033D01*
X145802211Y-90211253D01*
X145731411Y-90232042D01*
X145718693Y-90240540D01*
X145716697Y-90240671D01*
X145715586Y-90239008D01*
X145715919Y-90237766D01*
X145739524Y-90202439D01*
X145749000Y-90154801D01*
X145749000Y-88830199D01*
X145739524Y-88782561D01*
X145715919Y-88747234D01*
X145715788Y-88745238D01*
X145717451Y-88744127D01*
X145718693Y-88744460D01*
G37*
G36*
X145218693Y-88744460D02*
G01*
X145231425Y-88752967D01*
X145297789Y-88773747D01*
X145368589Y-88752958D01*
X145381307Y-88744460D01*
X145383303Y-88744329D01*
X145384414Y-88745992D01*
X145384081Y-88747234D01*
X145360476Y-88782561D01*
X145351000Y-88830199D01*
X145351000Y-90154801D01*
X145360476Y-90202439D01*
X145384081Y-90237766D01*
X145384212Y-90239762D01*
X145382549Y-90240873D01*
X145381307Y-90240540D01*
X145368575Y-90232033D01*
X145302211Y-90211253D01*
X145231411Y-90232042D01*
X145218693Y-90240540D01*
X145216697Y-90240671D01*
X145215586Y-90239008D01*
X145215919Y-90237766D01*
X145239524Y-90202439D01*
X145249000Y-90154801D01*
X145249000Y-88830199D01*
X145239524Y-88782561D01*
X145215919Y-88747234D01*
X145215788Y-88745238D01*
X145217451Y-88744127D01*
X145218693Y-88744460D01*
G37*
G36*
X143218693Y-88744460D02*
G01*
X143231425Y-88752967D01*
X143297789Y-88773747D01*
X143368589Y-88752958D01*
X143381307Y-88744460D01*
X143383303Y-88744329D01*
X143384414Y-88745992D01*
X143384081Y-88747234D01*
X143360476Y-88782561D01*
X143351000Y-88830199D01*
X143351000Y-90154801D01*
X143360476Y-90202439D01*
X143384081Y-90237766D01*
X143384212Y-90239762D01*
X143382549Y-90240873D01*
X143381307Y-90240540D01*
X143368575Y-90232033D01*
X143302211Y-90211253D01*
X143231411Y-90232042D01*
X143218693Y-90240540D01*
X143216697Y-90240671D01*
X143215586Y-90239008D01*
X143215919Y-90237766D01*
X143239524Y-90202439D01*
X143249000Y-90154801D01*
X143249000Y-88830199D01*
X143239524Y-88782561D01*
X143215919Y-88747234D01*
X143215788Y-88745238D01*
X143217451Y-88744127D01*
X143218693Y-88744460D01*
G37*
G36*
X151218693Y-88744460D02*
G01*
X151231425Y-88752967D01*
X151297789Y-88773747D01*
X151368589Y-88752958D01*
X151381307Y-88744460D01*
X151383303Y-88744329D01*
X151384414Y-88745992D01*
X151384081Y-88747234D01*
X151360476Y-88782561D01*
X151351000Y-88830199D01*
X151351000Y-90154801D01*
X151360476Y-90202439D01*
X151384081Y-90237766D01*
X151384212Y-90239762D01*
X151382549Y-90240873D01*
X151381307Y-90240540D01*
X151368575Y-90232033D01*
X151302211Y-90211253D01*
X151231411Y-90232042D01*
X151218693Y-90240540D01*
X151216697Y-90240671D01*
X151215586Y-90239008D01*
X151215919Y-90237766D01*
X151239524Y-90202439D01*
X151249000Y-90154801D01*
X151249000Y-88830199D01*
X151239524Y-88782561D01*
X151215919Y-88747234D01*
X151215788Y-88745238D01*
X151217451Y-88744127D01*
X151218693Y-88744460D01*
G37*
G36*
X148218693Y-88744460D02*
G01*
X148231425Y-88752967D01*
X148297789Y-88773747D01*
X148368589Y-88752958D01*
X148381307Y-88744460D01*
X148383303Y-88744329D01*
X148384414Y-88745992D01*
X148384081Y-88747234D01*
X148360476Y-88782561D01*
X148351000Y-88830199D01*
X148351000Y-90154801D01*
X148360476Y-90202439D01*
X148384081Y-90237766D01*
X148384212Y-90239762D01*
X148382549Y-90240873D01*
X148381307Y-90240540D01*
X148368575Y-90232033D01*
X148302211Y-90211253D01*
X148231411Y-90232042D01*
X148218693Y-90240540D01*
X148216697Y-90240671D01*
X148215586Y-90239008D01*
X148215919Y-90237766D01*
X148239524Y-90202439D01*
X148249000Y-90154801D01*
X148249000Y-88830199D01*
X148239524Y-88782561D01*
X148215919Y-88747234D01*
X148215788Y-88745238D01*
X148217451Y-88744127D01*
X148218693Y-88744460D01*
G37*
G36*
X142218693Y-88744460D02*
G01*
X142231425Y-88752967D01*
X142297789Y-88773747D01*
X142368589Y-88752958D01*
X142381307Y-88744460D01*
X142383303Y-88744329D01*
X142384414Y-88745992D01*
X142384081Y-88747234D01*
X142360476Y-88782561D01*
X142351000Y-88830199D01*
X142351000Y-90154801D01*
X142360476Y-90202439D01*
X142384081Y-90237766D01*
X142384212Y-90239762D01*
X142382549Y-90240873D01*
X142381307Y-90240540D01*
X142368575Y-90232033D01*
X142302211Y-90211253D01*
X142231411Y-90232042D01*
X142218693Y-90240540D01*
X142216697Y-90240671D01*
X142215586Y-90239008D01*
X142215919Y-90237766D01*
X142239524Y-90202439D01*
X142249000Y-90154801D01*
X142249000Y-88830199D01*
X142239524Y-88782561D01*
X142215919Y-88747234D01*
X142215788Y-88745238D01*
X142217451Y-88744127D01*
X142218693Y-88744460D01*
G37*
G36*
X143718693Y-88744460D02*
G01*
X143731425Y-88752967D01*
X143797789Y-88773747D01*
X143868589Y-88752958D01*
X143881307Y-88744460D01*
X143883303Y-88744329D01*
X143884414Y-88745992D01*
X143884081Y-88747234D01*
X143860476Y-88782561D01*
X143851000Y-88830199D01*
X143851000Y-90154801D01*
X143860476Y-90202439D01*
X143884081Y-90237766D01*
X143884212Y-90239762D01*
X143882549Y-90240873D01*
X143881307Y-90240540D01*
X143868575Y-90232033D01*
X143802211Y-90211253D01*
X143731411Y-90232042D01*
X143718693Y-90240540D01*
X143716697Y-90240671D01*
X143715586Y-90239008D01*
X143715919Y-90237766D01*
X143739524Y-90202439D01*
X143749000Y-90154801D01*
X143749000Y-88830199D01*
X143739524Y-88782561D01*
X143715919Y-88747234D01*
X143715788Y-88745238D01*
X143717451Y-88744127D01*
X143718693Y-88744460D01*
G37*
G36*
X150718693Y-88744460D02*
G01*
X150731425Y-88752967D01*
X150797789Y-88773747D01*
X150868589Y-88752958D01*
X150881307Y-88744460D01*
X150883303Y-88744329D01*
X150884414Y-88745992D01*
X150884081Y-88747234D01*
X150860476Y-88782561D01*
X150851000Y-88830199D01*
X150851000Y-90154801D01*
X150860476Y-90202439D01*
X150884081Y-90237766D01*
X150884212Y-90239762D01*
X150882549Y-90240873D01*
X150881307Y-90240540D01*
X150868575Y-90232033D01*
X150802211Y-90211253D01*
X150731411Y-90232042D01*
X150718693Y-90240540D01*
X150716697Y-90240671D01*
X150715586Y-90239008D01*
X150715919Y-90237766D01*
X150739524Y-90202439D01*
X150749000Y-90154801D01*
X150749000Y-88830199D01*
X150739524Y-88782561D01*
X150715919Y-88747234D01*
X150715788Y-88745238D01*
X150717451Y-88744127D01*
X150718693Y-88744460D01*
G37*
G36*
X149718693Y-88744460D02*
G01*
X149731425Y-88752967D01*
X149797789Y-88773747D01*
X149868589Y-88752958D01*
X149881307Y-88744460D01*
X149883303Y-88744329D01*
X149884414Y-88745992D01*
X149884081Y-88747234D01*
X149860476Y-88782561D01*
X149851000Y-88830199D01*
X149851000Y-90154801D01*
X149860476Y-90202439D01*
X149884081Y-90237766D01*
X149884212Y-90239762D01*
X149882549Y-90240873D01*
X149881307Y-90240540D01*
X149868575Y-90232033D01*
X149802211Y-90211253D01*
X149731411Y-90232042D01*
X149718693Y-90240540D01*
X149716697Y-90240671D01*
X149715586Y-90239008D01*
X149715919Y-90237766D01*
X149739524Y-90202439D01*
X149749000Y-90154801D01*
X149749000Y-88830199D01*
X149739524Y-88782561D01*
X149715919Y-88747234D01*
X149715788Y-88745238D01*
X149717451Y-88744127D01*
X149718693Y-88744460D01*
G37*
G36*
X147218693Y-88744460D02*
G01*
X147231425Y-88752967D01*
X147297789Y-88773747D01*
X147368589Y-88752958D01*
X147381307Y-88744460D01*
X147383303Y-88744329D01*
X147384414Y-88745992D01*
X147384081Y-88747234D01*
X147360476Y-88782561D01*
X147351000Y-88830199D01*
X147351000Y-90154801D01*
X147360476Y-90202439D01*
X147384081Y-90237766D01*
X147384212Y-90239762D01*
X147382549Y-90240873D01*
X147381307Y-90240540D01*
X147368575Y-90232033D01*
X147302211Y-90211253D01*
X147231411Y-90232042D01*
X147218693Y-90240540D01*
X147216697Y-90240671D01*
X147215586Y-90239008D01*
X147215919Y-90237766D01*
X147239524Y-90202439D01*
X147249000Y-90154801D01*
X147249000Y-88830199D01*
X147239524Y-88782561D01*
X147215919Y-88747234D01*
X147215788Y-88745238D01*
X147217451Y-88744127D01*
X147218693Y-88744460D01*
G37*
G36*
X148718693Y-88744460D02*
G01*
X148731425Y-88752967D01*
X148797789Y-88773747D01*
X148868589Y-88752958D01*
X148881307Y-88744460D01*
X148883303Y-88744329D01*
X148884414Y-88745992D01*
X148884081Y-88747234D01*
X148860476Y-88782561D01*
X148851000Y-88830199D01*
X148851000Y-90154801D01*
X148860476Y-90202439D01*
X148884081Y-90237766D01*
X148884212Y-90239762D01*
X148882549Y-90240873D01*
X148881307Y-90240540D01*
X148868575Y-90232033D01*
X148802211Y-90211253D01*
X148731411Y-90232042D01*
X148718693Y-90240540D01*
X148716697Y-90240671D01*
X148715586Y-90239008D01*
X148715919Y-90237766D01*
X148739524Y-90202439D01*
X148749000Y-90154801D01*
X148749000Y-88830199D01*
X148739524Y-88782561D01*
X148715919Y-88747234D01*
X148715788Y-88745238D01*
X148717451Y-88744127D01*
X148718693Y-88744460D01*
G37*
G36*
X147718693Y-88744460D02*
G01*
X147731425Y-88752967D01*
X147797789Y-88773747D01*
X147868589Y-88752958D01*
X147881307Y-88744460D01*
X147883303Y-88744329D01*
X147884414Y-88745992D01*
X147884081Y-88747234D01*
X147860476Y-88782561D01*
X147851000Y-88830199D01*
X147851000Y-90154801D01*
X147860476Y-90202439D01*
X147884081Y-90237766D01*
X147884212Y-90239762D01*
X147882549Y-90240873D01*
X147881307Y-90240540D01*
X147868575Y-90232033D01*
X147802211Y-90211253D01*
X147731411Y-90232042D01*
X147718693Y-90240540D01*
X147716697Y-90240671D01*
X147715586Y-90239008D01*
X147715919Y-90237766D01*
X147739524Y-90202439D01*
X147749000Y-90154801D01*
X147749000Y-88830199D01*
X147739524Y-88782561D01*
X147715919Y-88747234D01*
X147715788Y-88745238D01*
X147717451Y-88744127D01*
X147718693Y-88744460D01*
G37*
G36*
X150218693Y-88744460D02*
G01*
X150231425Y-88752967D01*
X150297789Y-88773747D01*
X150368589Y-88752958D01*
X150381307Y-88744460D01*
X150383303Y-88744329D01*
X150384414Y-88745992D01*
X150384081Y-88747234D01*
X150360476Y-88782561D01*
X150351000Y-88830199D01*
X150351000Y-90154801D01*
X150360476Y-90202439D01*
X150384081Y-90237766D01*
X150384212Y-90239762D01*
X150382549Y-90240873D01*
X150381307Y-90240540D01*
X150368575Y-90232033D01*
X150302211Y-90211253D01*
X150231411Y-90232042D01*
X150218693Y-90240540D01*
X150216697Y-90240671D01*
X150215586Y-90239008D01*
X150215919Y-90237766D01*
X150239524Y-90202439D01*
X150249000Y-90154801D01*
X150249000Y-88830199D01*
X150239524Y-88782561D01*
X150215919Y-88747234D01*
X150215788Y-88745238D01*
X150217451Y-88744127D01*
X150218693Y-88744460D01*
G37*
G36*
X142718693Y-88744460D02*
G01*
X142731425Y-88752967D01*
X142797789Y-88773747D01*
X142868589Y-88752958D01*
X142881307Y-88744460D01*
X142883303Y-88744329D01*
X142884414Y-88745992D01*
X142884081Y-88747234D01*
X142860476Y-88782561D01*
X142851000Y-88830199D01*
X142851000Y-90154801D01*
X142860476Y-90202439D01*
X142884081Y-90237766D01*
X142884212Y-90239762D01*
X142882549Y-90240873D01*
X142881307Y-90240540D01*
X142868575Y-90232033D01*
X142802211Y-90211253D01*
X142731411Y-90232042D01*
X142718693Y-90240540D01*
X142716697Y-90240671D01*
X142715586Y-90239008D01*
X142715919Y-90237766D01*
X142739524Y-90202439D01*
X142749000Y-90154801D01*
X142749000Y-88830199D01*
X142739524Y-88782561D01*
X142715919Y-88747234D01*
X142715788Y-88745238D01*
X142717451Y-88744127D01*
X142718693Y-88744460D01*
G37*
G36*
X146718693Y-88744460D02*
G01*
X146731425Y-88752967D01*
X146797789Y-88773747D01*
X146868589Y-88752958D01*
X146881307Y-88744460D01*
X146883303Y-88744329D01*
X146884414Y-88745992D01*
X146884081Y-88747234D01*
X146860476Y-88782561D01*
X146851000Y-88830199D01*
X146851000Y-90154801D01*
X146860476Y-90202439D01*
X146884081Y-90237766D01*
X146884212Y-90239762D01*
X146882549Y-90240873D01*
X146881307Y-90240540D01*
X146868575Y-90232033D01*
X146802211Y-90211253D01*
X146731411Y-90232042D01*
X146718693Y-90240540D01*
X146716697Y-90240671D01*
X146715586Y-90239008D01*
X146715919Y-90237766D01*
X146739524Y-90202439D01*
X146749000Y-90154801D01*
X146749000Y-88830199D01*
X146739524Y-88782561D01*
X146715919Y-88747234D01*
X146715788Y-88745238D01*
X146717451Y-88744127D01*
X146718693Y-88744460D01*
G37*
G36*
X149218693Y-88744460D02*
G01*
X149231425Y-88752967D01*
X149297789Y-88773747D01*
X149368589Y-88752958D01*
X149381307Y-88744460D01*
X149383303Y-88744329D01*
X149384414Y-88745992D01*
X149384081Y-88747234D01*
X149360476Y-88782561D01*
X149351000Y-88830199D01*
X149351000Y-90154801D01*
X149360476Y-90202439D01*
X149384081Y-90237766D01*
X149384212Y-90239762D01*
X149382549Y-90240873D01*
X149381307Y-90240540D01*
X149368575Y-90232033D01*
X149302211Y-90211253D01*
X149231411Y-90232042D01*
X149218693Y-90240540D01*
X149216697Y-90240671D01*
X149215586Y-90239008D01*
X149215919Y-90237766D01*
X149239524Y-90202439D01*
X149249000Y-90154801D01*
X149249000Y-88830199D01*
X149239524Y-88782561D01*
X149215919Y-88747234D01*
X149215788Y-88745238D01*
X149217451Y-88744127D01*
X149218693Y-88744460D01*
G37*
G36*
X146218693Y-88744460D02*
G01*
X146231425Y-88752967D01*
X146297789Y-88773747D01*
X146368589Y-88752958D01*
X146381307Y-88744460D01*
X146383303Y-88744329D01*
X146384414Y-88745992D01*
X146384081Y-88747234D01*
X146360476Y-88782561D01*
X146351000Y-88830199D01*
X146351000Y-90154801D01*
X146360476Y-90202439D01*
X146384081Y-90237766D01*
X146384212Y-90239762D01*
X146382549Y-90240873D01*
X146381307Y-90240540D01*
X146368575Y-90232033D01*
X146302211Y-90211253D01*
X146231411Y-90232042D01*
X146218693Y-90240540D01*
X146216697Y-90240671D01*
X146215586Y-90239008D01*
X146215919Y-90237766D01*
X146239524Y-90202439D01*
X146249000Y-90154801D01*
X146249000Y-88830199D01*
X146239524Y-88782561D01*
X146215919Y-88747234D01*
X146215788Y-88745238D01*
X146217451Y-88744127D01*
X146218693Y-88744460D01*
G37*
G36*
X141718693Y-88744460D02*
G01*
X141731425Y-88752967D01*
X141797789Y-88773747D01*
X141868589Y-88752958D01*
X141881307Y-88744460D01*
X141883303Y-88744329D01*
X141884414Y-88745992D01*
X141884081Y-88747234D01*
X141860476Y-88782561D01*
X141851000Y-88830199D01*
X141851000Y-90154801D01*
X141860476Y-90202439D01*
X141884081Y-90237766D01*
X141884212Y-90239762D01*
X141882549Y-90240873D01*
X141881307Y-90240540D01*
X141868575Y-90232033D01*
X141802211Y-90211253D01*
X141731411Y-90232042D01*
X141718693Y-90240540D01*
X141716697Y-90240671D01*
X141715586Y-90239008D01*
X141715919Y-90237766D01*
X141739524Y-90202439D01*
X141749000Y-90154801D01*
X141749000Y-88830199D01*
X141739524Y-88782561D01*
X141715919Y-88747234D01*
X141715788Y-88745238D01*
X141717451Y-88744127D01*
X141718693Y-88744460D01*
G37*
G36*
X140218693Y-88744460D02*
G01*
X140231425Y-88752967D01*
X140297789Y-88773747D01*
X140368589Y-88752958D01*
X140381307Y-88744460D01*
X140383303Y-88744329D01*
X140384414Y-88745992D01*
X140384081Y-88747234D01*
X140360476Y-88782561D01*
X140351000Y-88830199D01*
X140351000Y-90154801D01*
X140360476Y-90202439D01*
X140384081Y-90237766D01*
X140384212Y-90239762D01*
X140382549Y-90240873D01*
X140381307Y-90240540D01*
X140368575Y-90232033D01*
X140302211Y-90211253D01*
X140231411Y-90232042D01*
X140218693Y-90240540D01*
X140216697Y-90240671D01*
X140215586Y-90239008D01*
X140215919Y-90237766D01*
X140239524Y-90202439D01*
X140249000Y-90154801D01*
X140249000Y-88830199D01*
X140239524Y-88782561D01*
X140215919Y-88747234D01*
X140215788Y-88745238D01*
X140217451Y-88744127D01*
X140218693Y-88744460D01*
G37*
G36*
X151718693Y-88744460D02*
G01*
X151731425Y-88752967D01*
X151797789Y-88773747D01*
X151868589Y-88752958D01*
X151881307Y-88744460D01*
X151883303Y-88744329D01*
X151884414Y-88745992D01*
X151884081Y-88747234D01*
X151860476Y-88782561D01*
X151851000Y-88830199D01*
X151851000Y-90154801D01*
X151860476Y-90202439D01*
X151884081Y-90237766D01*
X151884212Y-90239762D01*
X151882549Y-90240873D01*
X151881307Y-90240540D01*
X151868575Y-90232033D01*
X151802211Y-90211253D01*
X151731411Y-90232042D01*
X151718693Y-90240540D01*
X151716697Y-90240671D01*
X151715586Y-90239008D01*
X151715919Y-90237766D01*
X151739524Y-90202439D01*
X151749000Y-90154801D01*
X151749000Y-88830199D01*
X151739524Y-88782561D01*
X151715919Y-88747234D01*
X151715788Y-88745238D01*
X151717451Y-88744127D01*
X151718693Y-88744460D01*
G37*
G36*
X140718693Y-88744460D02*
G01*
X140731425Y-88752967D01*
X140797789Y-88773747D01*
X140868589Y-88752958D01*
X140881307Y-88744460D01*
X140883303Y-88744329D01*
X140884414Y-88745992D01*
X140884081Y-88747234D01*
X140860476Y-88782561D01*
X140851000Y-88830199D01*
X140851000Y-90154801D01*
X140860476Y-90202439D01*
X140884081Y-90237766D01*
X140884212Y-90239762D01*
X140882549Y-90240873D01*
X140881307Y-90240540D01*
X140868575Y-90232033D01*
X140802211Y-90211253D01*
X140731411Y-90232042D01*
X140718693Y-90240540D01*
X140716697Y-90240671D01*
X140715586Y-90239008D01*
X140715919Y-90237766D01*
X140739524Y-90202439D01*
X140749000Y-90154801D01*
X140749000Y-88830199D01*
X140739524Y-88782561D01*
X140715919Y-88747234D01*
X140715788Y-88745238D01*
X140717451Y-88744127D01*
X140718693Y-88744460D01*
G37*
G36*
X141218693Y-88744460D02*
G01*
X141231425Y-88752967D01*
X141297789Y-88773747D01*
X141368589Y-88752958D01*
X141381307Y-88744460D01*
X141383303Y-88744329D01*
X141384414Y-88745992D01*
X141384081Y-88747234D01*
X141360476Y-88782561D01*
X141351000Y-88830199D01*
X141351000Y-90154801D01*
X141360476Y-90202439D01*
X141384081Y-90237766D01*
X141384212Y-90239762D01*
X141382549Y-90240873D01*
X141381307Y-90240540D01*
X141368575Y-90232033D01*
X141302211Y-90211253D01*
X141231411Y-90232042D01*
X141218693Y-90240540D01*
X141216697Y-90240671D01*
X141215586Y-90239008D01*
X141215919Y-90237766D01*
X141239524Y-90202439D01*
X141249000Y-90154801D01*
X141249000Y-88830199D01*
X141239524Y-88782561D01*
X141215919Y-88747234D01*
X141215788Y-88745238D01*
X141217451Y-88744127D01*
X141218693Y-88744460D01*
G37*
G36*
X144218693Y-88744460D02*
G01*
X144231425Y-88752967D01*
X144297789Y-88773747D01*
X144368589Y-88752958D01*
X144381307Y-88744460D01*
X144383303Y-88744329D01*
X144384414Y-88745992D01*
X144384081Y-88747234D01*
X144360476Y-88782561D01*
X144351000Y-88830199D01*
X144351000Y-90154801D01*
X144360476Y-90202439D01*
X144384081Y-90237766D01*
X144384212Y-90239762D01*
X144382549Y-90240873D01*
X144381307Y-90240540D01*
X144368575Y-90232033D01*
X144302211Y-90211253D01*
X144231411Y-90232042D01*
X144218693Y-90240540D01*
X144216697Y-90240671D01*
X144215586Y-90239008D01*
X144215919Y-90237766D01*
X144239524Y-90202439D01*
X144249000Y-90154801D01*
X144249000Y-88830199D01*
X144239524Y-88782561D01*
X144215919Y-88747234D01*
X144215788Y-88745238D01*
X144217451Y-88744127D01*
X144218693Y-88744460D01*
G37*
M02*
